<?xml version="1.0" encoding="UTF-8" standalone="no"?>
<svg
   xmlns:dc="http://purl.org/dc/elements/1.1/"
   xmlns:cc="http://creativecommons.org/ns#"
   xmlns:rdf="http://www.w3.org/1999/02/22-rdf-syntax-ns#"
   xmlns:svg="http://www.w3.org/2000/svg"
   xmlns="http://www.w3.org/2000/svg"
   xmlns:sodipodi="http://sodipodi.sourceforge.net/DTD/sodipodi-0.dtd"
   xmlns:inkscape="http://www.inkscape.org/namespaces/inkscape"
   width="300"
   height="150"
   viewBox="0 0 79.374998 39.687501"
   version="1.1"
   id="svg10887"
   inkscape:version="1.0.2-2 (e86c870879, 2021-01-15)"
   sodipodi:docname="ico_cards-4.svg">
  <defs
     id="defs10881" />
  <sodipodi:namedview
     id="base"
     pagecolor="#ffffff"
     bordercolor="#666666"
     borderopacity="1.0"
     inkscape:pageopacity="0.0"
     inkscape:pageshadow="2"
     inkscape:zoom="0.98994949"
     inkscape:cx="138.49242"
     inkscape:cy="35.348124"
     inkscape:document-units="mm"
     inkscape:current-layer="g12024"
     inkscape:document-rotation="0"
     showgrid="false"
     units="px"
     inkscape:window-width="1600"
     inkscape:window-height="837"
     inkscape:window-x="1358"
     inkscape:window-y="-8"
     inkscape:window-maximized="1" />
  <metadata
     id="metadata10884">
    <rdf:RDF>
      <cc:Work
         rdf:about="">
        <dc:format>image/svg+xml</dc:format>
        <dc:type
           rdf:resource="http://purl.org/dc/dcmitype/StillImage" />
        <dc:title></dc:title>
      </cc:Work>
    </rdf:RDF>
  </metadata>
  <g
     inkscape:groupmode="layer"
     id="layer2"
     inkscape:label="LOGO 2"
     style="display:inline">
    <g
       id="g12024"
       transform="translate(-54.517612,-55.330164)">
      <g
         aria-label="LABSATC"
         id="text9423"
         style="font-style:normal;font-variant:normal;font-weight:900;font-stretch:normal;font-size:15.8456px;line-height:1.25;font-family:Raleway;-inkscape-font-specification:'Raleway, Heavy';font-variant-ligatures:normal;font-variant-caps:normal;font-variant-numeric:normal;font-variant-east-asian:normal;fill:#ffffff;fill-opacity:1;stroke:none;stroke-width:0.721544">
        <path
           d="M 59.660155,93.336876 V 82.0865 h 3.089892 v 8.556624 h 5.102283 v 2.693752 z"
           style="font-style:normal;font-variant:normal;font-weight:900;font-stretch:normal;font-size:15.8456px;font-family:Raleway;-inkscape-font-specification:'Raleway, Heavy';font-variant-ligatures:normal;font-variant-caps:normal;font-variant-numeric:normal;font-variant-east-asian:normal;text-align:center;text-anchor:middle;fill:#ffffff;fill-opacity:1;stroke-width:0.721544"
           id="path12026" />
        <path
           d="m 71.845407,82.0865 h 2.820517 l 3.898017,11.250376 h -3.137429 l -0.68136,-2.202539 h -2.994819 l -0.665515,2.202539 h -3.153274 z m 2.408531,6.987909 -0.998273,-3.486032 -1.045809,3.486032 z"
           style="font-style:normal;font-variant:normal;font-weight:900;font-stretch:normal;font-size:15.8456px;font-family:Raleway;-inkscape-font-specification:'Raleway, Heavy';font-variant-ligatures:normal;font-variant-caps:normal;font-variant-numeric:normal;font-variant-east-asian:normal;text-align:center;text-anchor:middle;fill:#ffffff;fill-opacity:1;stroke-width:0.721544"
           id="path12028" />
        <path
           d="m 89.069572,90.452977 q 0,0.760588 -0.316912,1.315185 -0.316912,0.53875 -0.871508,0.887353 -0.554596,0.348603 -1.29934,0.522905 -0.728897,0.158456 -1.552868,0.158456 H 79.498829 V 82.0865 h 6.528387 q 0.586288,0 1.061656,0.253529 0.475368,0.25353 0.808125,0.665516 0.332758,0.39614 0.507059,0.919044 0.190148,0.50706 0.190148,1.04581 0,0.79228 -0.411986,1.521178 -0.39614,0.713052 -1.204266,1.0775 0.966582,0.285221 1.521178,0.998273 0.570442,0.697207 0.570442,1.885627 z m -3.137429,-0.633824 q 0,-0.411986 -0.221839,-0.681361 -0.221838,-0.285221 -0.570441,-0.285221 h -2.551142 v 1.885626 h 2.440223 q 0.380294,0 0.633824,-0.237684 0.269375,-0.237684 0.269375,-0.68136 z m -3.343422,-5.102284 v 1.727171 h 2.107465 q 0.316912,0 0.570442,-0.174302 0.269375,-0.174301 0.269375,-0.697206 0,-0.459523 -0.221839,-0.64967 -0.221838,-0.205993 -0.522904,-0.205993 z"
           style="font-style:normal;font-variant:normal;font-weight:900;font-stretch:normal;font-size:15.8456px;font-family:Raleway;-inkscape-font-specification:'Raleway, Heavy';font-variant-ligatures:normal;font-variant-caps:normal;font-variant-numeric:normal;font-variant-east-asian:normal;text-align:center;text-anchor:middle;fill:#ffffff;fill-opacity:1;stroke-width:0.721544"
           id="path12030" />
        <path
           d="m 97.24588,85.762679 q -0.475368,-0.285221 -0.982427,-0.507059 -0.427831,-0.190147 -0.966582,-0.348603 -0.522904,-0.174302 -1.029964,-0.174302 -0.411985,0 -0.665515,0.126765 -0.237684,0.126765 -0.237684,0.427831 0,0.221838 0.142611,0.364449 0.14261,0.14261 0.411985,0.269375 0.269375,0.110919 0.64967,0.221838 0.39614,0.11092 0.887353,0.269376 0.776435,0.237684 1.394413,0.522904 0.633824,0.285221 1.077501,0.681361 0.443677,0.380295 0.681361,0.934891 0.237684,0.554596 0.237684,1.346876 0,1.014118 -0.380295,1.711325 -0.364448,0.68136 -0.982427,1.093346 -0.602133,0.411986 -1.378567,0.602133 -0.760589,0.174301 -1.537023,0.174301 -0.617979,0 -1.267648,-0.09507 -0.64967,-0.09507 -1.299339,-0.269375 -0.633824,-0.174302 -1.235957,-0.411986 -0.586287,-0.237684 -1.093347,-0.53875 l 1.331031,-2.709598 q 0.554596,0.348603 1.156729,0.617978 0.507059,0.237684 1.140883,0.427831 0.649669,0.190148 1.315185,0.190148 0.507059,0 0.697206,-0.126765 0.205993,-0.142611 0.205993,-0.364449 0,-0.237684 -0.205993,-0.39614 -0.190147,-0.174302 -0.53875,-0.301066 -0.348604,-0.126765 -0.808126,-0.25353 -0.443677,-0.126765 -0.950736,-0.301066 -0.744743,-0.25353 -1.283494,-0.538751 -0.53875,-0.301066 -0.887353,-0.665515 -0.348603,-0.380294 -0.522905,-0.855662 -0.158456,-0.475368 -0.158456,-1.093347 0,-0.93489 0.332758,-1.647942 0.348603,-0.713052 0.93489,-1.18842 0.586287,-0.475368 1.33103,-0.713052 0.760589,-0.25353 1.600406,-0.25353 0.617978,0 1.204266,0.126765 0.586287,0.110919 1.125037,0.301066 0.554596,0.174302 1.029964,0.39614 0.475368,0.205993 0.855663,0.39614 z"
           style="font-style:normal;font-variant:normal;font-weight:900;font-stretch:normal;font-size:15.8456px;font-family:Raleway;-inkscape-font-specification:'Raleway, Heavy';font-variant-ligatures:normal;font-variant-caps:normal;font-variant-numeric:normal;font-variant-east-asian:normal;text-align:center;text-anchor:middle;fill:#ffffff;fill-opacity:1;stroke-width:0.721544"
           id="path12032" />
        <path
           d="m 102.83933,82.0865 h 2.82052 l 3.89801,11.250376 h -3.13743 l -0.68136,-2.202539 h -2.99481 l -0.66552,2.202539 h -3.153274 z m 2.40853,6.987909 -0.99827,-3.486032 -1.04581,3.486032 z"
           style="font-style:normal;font-variant:normal;font-weight:900;font-stretch:normal;font-size:15.8456px;font-family:Raleway;-inkscape-font-specification:'Raleway, Heavy';font-variant-ligatures:normal;font-variant-caps:normal;font-variant-numeric:normal;font-variant-east-asian:normal;text-align:center;text-anchor:middle;fill:#ffffff;fill-opacity:1;stroke-width:0.721544"
           id="path12034" />
        <path
           d="m 118.2254,84.780252 h -3.23251 v 8.556624 H 111.903 v -8.556624 h -3.24835 V 82.0865 h 9.57075 z"
           style="font-style:normal;font-variant:normal;font-weight:900;font-stretch:normal;font-size:15.8456px;font-family:Raleway;-inkscape-font-specification:'Raleway, Heavy';font-variant-ligatures:normal;font-variant-caps:normal;font-variant-numeric:normal;font-variant-east-asian:normal;text-align:center;text-anchor:middle;fill:#ffffff;fill-opacity:1;stroke-width:0.721544"
           id="path12036" />
        <path
           d="m 118.55811,87.616614 q 0,-1.029964 0.38029,-2.028237 0.39614,-0.998272 1.14088,-1.790552 0.74475,-0.79228 1.8064,-1.283494 1.06166,-0.491214 2.42438,-0.491214 1.6321,0 2.82052,0.681361 1.20426,0.665515 1.79055,1.774707 l -2.361,1.679634 q -0.15845,-0.411986 -0.42783,-0.681361 -0.25353,-0.269375 -0.57044,-0.427831 -0.31691,-0.158456 -0.66551,-0.221838 -0.33276,-0.06338 -0.64967,-0.06338 -0.66552,0 -1.15673,0.269375 -0.47537,0.25353 -0.79228,0.681361 -0.30107,0.411986 -0.45952,0.950736 -0.14261,0.522905 -0.14261,1.04581 0,0.586287 0.1743,1.125037 0.1743,0.538751 0.50706,0.950736 0.33275,0.411986 0.80812,0.665516 0.49122,0.237684 1.09335,0.237684 0.31691,0 0.64967,-0.06338 0.33276,-0.07923 0.63382,-0.237684 0.31691,-0.174301 0.5546,-0.427831 0.25353,-0.269375 0.39614,-0.64967 l 2.51945,1.505332 q -0.25353,0.617979 -0.77644,1.109193 -0.50706,0.491213 -1.17257,0.823971 -0.64967,0.332757 -1.41026,0.507059 -0.74474,0.174302 -1.45779,0.174302 -1.25181,0 -2.29762,-0.491214 -1.02996,-0.507059 -1.79055,-1.33103 -0.74474,-0.823972 -1.15673,-1.869781 -0.41198,-1.04581 -0.41198,-2.123311 z"
           style="font-style:normal;font-variant:normal;font-weight:900;font-stretch:normal;font-size:15.8456px;font-family:Raleway;-inkscape-font-specification:'Raleway, Heavy';font-variant-ligatures:normal;font-variant-caps:normal;font-variant-numeric:normal;font-variant-east-asian:normal;text-align:center;text-anchor:middle;fill:#ffffff;fill-opacity:1;stroke-width:0.721544"
           id="path12038" />
      </g>
      <g
         id="g9441"
         transform="matrix(1.1869752,0,0,1.1869752,-682.8488,358.79363)"
         style="fill:#ffffff"
         inkscape:export-xdpi="150"
         inkscape:export-ydpi="150">
        <path
           d="m 659.62395,-238.95488 h -0.043 c 1.0125,-1.12797 1.6347,-2.61346 1.6347,-4.24521 0,-3.5116 -2.8562,-6.36783 -6.3678,-6.36783 v 2.1226 c 2.3408,0 4.2452,1.90438 4.2452,4.24523 0,2.34083 -1.9044,4.24521 -4.2452,4.24521 h -9.0211 c -0.8792,0 -1.592,0.71273 -1.592,1.59195 0,0.29319 0.2375,0.53066 0.5307,0.53066 h 15.9195 c 0.2932,0 0.5307,-0.23747 0.5307,-0.53066 0,-0.87922 -0.7128,-1.59195 -1.592,-1.59195 z"
           id="path9437"
           style="fill:#ffffff;fill-opacity:0.4;stroke-width:0.0331657"
           sodipodi:nodetypes="ccsccssssssssc" />
        <path
           d="m 649.54155,-243.20008 h 0.398 v 0.53064 c 0,0.29319 0.2374,0.53066 0.5306,0.53066 h 1.3266 c 0.2932,0 0.5307,-0.23747 0.5307,-0.53066 v -0.53064 h 0.398 c 0.586,0 1.0613,-0.47528 1.0613,-1.06131 v -7.42912 c 0,-0.58604 -0.4753,-1.06131 -1.0613,-1.06131 v -0.53065 c 0,-0.29319 -0.2375,-0.53066 -0.5307,-0.53066 h -2.1226 c -0.2932,0 -0.5306,0.23747 -0.5306,0.53066 v 0.53065 c -0.5861,0 -1.0613,0.47527 -1.0613,1.06131 v 7.42912 c 0,0.58603 0.4752,1.06131 1.0613,1.06131 z m -1.8573,3.1839 h 6.8985 c 0.1465,0 0.2653,-0.11873 0.2653,-0.26533 v -0.53064 c 0,-0.1466 -0.1188,-0.26533 -0.2653,-0.26533 h -6.8985 c -0.1466,0 -0.2653,0.11873 -0.2653,0.26533 v 0.53064 c 0,0.1466 0.1187,0.26533 0.2653,0.26533 z"
           id="path9439"
           style="fill:#ffffff;fill-opacity:1;stroke-width:0.0331657"
           sodipodi:nodetypes="scsssscssscsssscssssssssssss" />
      </g>
    </g>
  </g>
</svg>
