<?xml version="1.0" encoding="UTF-8" standalone="no"?>
<svg
   xmlns:dc="http://purl.org/dc/elements/1.1/"
   xmlns:cc="http://creativecommons.org/ns#"
   xmlns:rdf="http://www.w3.org/1999/02/22-rdf-syntax-ns#"
   xmlns:svg="http://www.w3.org/2000/svg"
   xmlns="http://www.w3.org/2000/svg"
   xmlns:sodipodi="http://sodipodi.sourceforge.net/DTD/sodipodi-0.dtd"
   xmlns:inkscape="http://www.inkscape.org/namespaces/inkscape"
   width="300"
   height="150"
   viewBox="0 0 79.374998 39.687501"
   version="1.1"
   id="svg10887"
   inkscape:version="1.0.2-2 (e86c870879, 2021-01-15)"
   sodipodi:docname="ico_cards-9.svg">
  <defs
     id="defs10881" />
  <sodipodi:namedview
     id="base"
     pagecolor="#ffffff"
     bordercolor="#666666"
     borderopacity="1.0"
     inkscape:pageopacity="0.0"
     inkscape:pageshadow="2"
     inkscape:zoom="1.4"
     inkscape:cx="121.2368"
     inkscape:cy="60.911434"
     inkscape:document-units="mm"
     inkscape:current-layer="layer2"
     inkscape:document-rotation="0"
     showgrid="false"
     units="px"
     inkscape:window-width="1600"
     inkscape:window-height="837"
     inkscape:window-x="1358"
     inkscape:window-y="-8"
     inkscape:window-maximized="1" />
  <metadata
     id="metadata10884">
    <rdf:RDF>
      <cc:Work
         rdf:about="">
        <dc:format>image/svg+xml</dc:format>
        <dc:type
           rdf:resource="http://purl.org/dc/dcmitype/StillImage" />
        <dc:title></dc:title>
      </cc:Work>
    </rdf:RDF>
  </metadata>
  <g
     inkscape:groupmode="layer"
     id="layer2"
     inkscape:label="LOGO 2"
     style="display:inline">
    <g
       id="g12962"
       style="fill:#ffffff"
       transform="matrix(1.0278235,0,0,1.0278235,-11.655508,-42.88075)">
      <g
         aria-label="ESCOLA DE"
         id="text9407"
         style="font-style:normal;font-variant:normal;font-weight:normal;font-stretch:normal;font-size:9.75629px;line-height:1.25;font-family:Raleway;-inkscape-font-specification:'Raleway, Normal';font-variant-ligatures:normal;font-variant-caps:normal;font-variant-numeric:normal;font-variant-east-asian:normal;fill:#ffffff;fill-opacity:1;stroke:none;stroke-width:0.641843">
        <path
           d="m 28.230869,55.931933 v 0.60489 h -4.653751 v -6.926966 h 4.565944 v 0.60489 h -3.883004 v 2.49761 h 3.385433 v 0.575622 h -3.385433 v 2.643954 z"
           style="font-style:normal;font-variant:normal;font-weight:normal;font-stretch:normal;font-size:9.75629px;font-family:Raleway;-inkscape-font-specification:'Raleway, Normal';font-variant-ligatures:normal;font-variant-caps:normal;font-variant-numeric:normal;font-variant-east-asian:normal;text-align:center;text-anchor:middle;fill:#ffffff;fill-opacity:1;stroke-width:0.641843"
           id="path12981" />
        <path
           d="m 33.421195,50.907444 q -0.292689,-0.331714 -0.780503,-0.536596 -0.487815,-0.204882 -1.112217,-0.204882 -0.917092,0 -1.336612,0.351226 -0.41952,0.34147 -0.41952,0.936604 0,0.312201 0.107319,0.517083 0.117075,0.195126 0.351226,0.341471 0.234151,0.146344 0.595134,0.253663 0.370739,0.107319 0.86831,0.214638 0.556108,0.117076 0.995141,0.26342 0.44879,0.146345 0.760991,0.370739 0.312201,0.214639 0.478058,0.52684 0.165857,0.312201 0.165857,0.780503 0,0.478058 -0.185369,0.829285 -0.18537,0.351226 -0.517084,0.585377 -0.331714,0.234151 -0.790259,0.351227 -0.458546,0.107319 -1.004898,0.107319 -1.609788,0 -2.780543,-1.004898 l 0.34147,-0.556108 q 0.18537,0.195125 0.439033,0.370739 0.26342,0.175613 0.575621,0.312201 0.321958,0.126832 0.682941,0.204882 0.360983,0.06829 0.76099,0.06829 0.829285,0 1.287831,-0.292689 0.468302,-0.302445 0.468302,-0.907335 0,-0.321957 -0.136588,-0.536596 -0.126832,-0.224394 -0.390252,-0.380495 -0.26342,-0.165857 -0.653671,-0.282932 -0.390252,-0.117076 -0.907335,-0.234151 -0.546353,-0.126832 -0.956117,-0.26342 -0.409764,-0.136588 -0.692697,-0.34147 -0.282932,-0.204883 -0.429276,-0.487815 -0.136588,-0.292689 -0.136588,-0.712209 0,-0.478058 0.175613,-0.848797 0.185369,-0.380496 0.517083,-0.624403 0.331714,-0.253664 0.780503,-0.380495 0.44879,-0.136588 0.995142,-0.136588 0.692697,0 1.229293,0.214638 0.546352,0.204882 0.985385,0.585377 z"
           style="font-style:normal;font-variant:normal;font-weight:normal;font-stretch:normal;font-size:9.75629px;font-family:Raleway;-inkscape-font-specification:'Raleway, Normal';font-variant-ligatures:normal;font-variant-caps:normal;font-variant-numeric:normal;font-variant-east-asian:normal;text-align:center;text-anchor:middle;fill:#ffffff;fill-opacity:1;stroke-width:0.641843"
           id="path12983" />
        <path
           d="m 34.835842,53.024559 q 0,-0.624403 0.214639,-1.239049 0.224394,-0.624403 0.643915,-1.112217 0.41952,-0.487815 1.034167,-0.79026 0.614646,-0.312201 1.395149,-0.312201 0.926848,0 1.580519,0.41952 0.663428,0.419521 0.975629,1.092705 l -0.536596,0.331714 Q 39.977407,51.073301 39.7335,50.83915 39.499349,50.604999 39.226173,50.458654 38.952997,50.31231 38.660308,50.253772 q -0.292689,-0.06829 -0.575621,-0.06829 -0.624403,0 -1.102461,0.253664 -0.478058,0.253663 -0.809772,0.663427 -0.321957,0.409765 -0.487814,0.926848 -0.165857,0.507327 -0.165857,1.034167 0,0.575621 0.195125,1.102461 0.204883,0.526839 0.546353,0.936604 0.351226,0.400007 0.819528,0.643915 0.478058,0.234151 1.034167,0.234151 0.292689,0 0.595134,-0.06829 0.312201,-0.07805 0.595133,-0.234151 0.292689,-0.165857 0.536596,-0.400008 0.243908,-0.243907 0.409764,-0.585378 l 0.565865,0.292689 q -0.165857,0.390252 -0.468302,0.692697 -0.302445,0.292688 -0.673184,0.497571 -0.370739,0.204882 -0.790259,0.312201 -0.409764,0.107319 -0.809772,0.107319 -0.712209,0 -1.307343,-0.312201 -0.595134,-0.312202 -1.024411,-0.809772 -0.429276,-0.507327 -0.673184,-1.141486 -0.234151,-0.643916 -0.234151,-1.307343 z"
           style="font-style:normal;font-variant:normal;font-weight:normal;font-stretch:normal;font-size:9.75629px;font-family:Raleway;-inkscape-font-specification:'Raleway, Normal';font-variant-ligatures:normal;font-variant-caps:normal;font-variant-numeric:normal;font-variant-east-asian:normal;text-align:center;text-anchor:middle;fill:#ffffff;fill-opacity:1;stroke-width:0.641843"
           id="path12985" />
        <path
           d="m 44.70918,56.585605 q -0.721966,0 -1.326856,-0.292689 -0.595134,-0.302445 -1.02441,-0.79026 -0.429277,-0.49757 -0.663428,-1.131729 -0.234151,-0.634159 -0.234151,-1.297587 0,-0.692696 0.243907,-1.326855 0.253664,-0.634159 0.692697,-1.121974 0.439033,-0.487814 1.034167,-0.770747 0.595133,-0.292688 1.28783,-0.292688 0.721965,0 1.317099,0.312201 0.60489,0.302445 1.024411,0.800016 0.429276,0.497571 0.663427,1.131729 0.234151,0.624403 0.234151,1.278074 0,0.692697 -0.253663,1.326856 -0.243907,0.634159 -0.682941,1.121973 -0.429276,0.478059 -1.02441,0.770747 -0.595134,0.282933 -1.28783,0.282933 z M 42.143275,53.07334 q 0,0.565865 0.18537,1.092705 0.185369,0.517083 0.526839,0.926847 0.341471,0.400008 0.809773,0.643915 0.468302,0.234151 1.043923,0.234151 0.585377,0 1.063435,-0.253663 0.478059,-0.253664 0.809772,-0.663428 0.331714,-0.409764 0.507328,-0.926847 0.185369,-0.517084 0.185369,-1.05368 0,-0.565865 -0.195126,-1.082948 -0.185369,-0.52684 -0.526839,-0.926848 -0.341471,-0.400008 -0.809773,-0.634159 -0.468301,-0.243907 -1.034166,-0.243907 -0.585378,0 -1.063436,0.253664 -0.478058,0.243907 -0.809772,0.653671 -0.331714,0.409764 -0.517083,0.926848 -0.175614,0.517083 -0.175614,1.053679 z"
           style="font-style:normal;font-variant:normal;font-weight:normal;font-stretch:normal;font-size:9.75629px;font-family:Raleway;-inkscape-font-specification:'Raleway, Normal';font-variant-ligatures:normal;font-variant-caps:normal;font-variant-numeric:normal;font-variant-east-asian:normal;text-align:center;text-anchor:middle;fill:#ffffff;fill-opacity:1;stroke-width:0.641843"
           id="path12987" />
        <path
           d="m 49.24585,56.536823 v -6.926966 h 0.68294 v 6.322076 h 4.000079 v 0.60489 z"
           style="font-style:normal;font-variant:normal;font-weight:normal;font-stretch:normal;font-size:9.75629px;font-family:Raleway;-inkscape-font-specification:'Raleway, Normal';font-variant-ligatures:normal;font-variant-caps:normal;font-variant-numeric:normal;font-variant-east-asian:normal;text-align:center;text-anchor:middle;fill:#ffffff;fill-opacity:1;stroke-width:0.641843"
           id="path12989" />
        <path
           d="m 57.080134,49.609857 h 0.575621 l 2.878106,6.926966 H 59.811896 L 58.914317,54.370927 H 55.80206 l -0.887822,2.165896 h -0.731722 z m 1.678082,4.224474 -1.395149,-3.424458 -1.414663,3.424458 z"
           style="font-style:normal;font-variant:normal;font-weight:normal;font-stretch:normal;font-size:9.75629px;font-family:Raleway;-inkscape-font-specification:'Raleway, Normal';font-variant-ligatures:normal;font-variant-caps:normal;font-variant-numeric:normal;font-variant-east-asian:normal;text-align:center;text-anchor:middle;fill:#ffffff;fill-opacity:1;stroke-width:0.641843"
           id="path12991" />
        <path
           d="m 63.71439,56.536823 v -6.926966 h 2.351266 q 0.829285,0 1.443931,0.273176 0.624403,0.273176 1.034167,0.741478 0.41952,0.468302 0.624402,1.102461 0.214639,0.624403 0.214639,1.336612 0,0.790259 -0.234151,1.434175 -0.234151,0.634158 -0.673184,1.092704 -0.429277,0.448789 -1.043923,0.702453 -0.60489,0.243907 -1.365881,0.243907 z m 4.985464,-3.473239 q 0,-0.624403 -0.175613,-1.141486 -0.175613,-0.52684 -0.517083,-0.907335 -0.331714,-0.380495 -0.819529,-0.585378 -0.487814,-0.214638 -1.121973,-0.214638 H 64.39733 v 5.717186 h 1.668326 q 0.643915,0 1.13173,-0.214638 0.49757,-0.224395 0.829284,-0.60489 0.331714,-0.390252 0.497571,-0.907335 0.175613,-0.52684 0.175613,-1.141486 z"
           style="font-style:normal;font-variant:normal;font-weight:normal;font-stretch:normal;font-size:9.75629px;font-family:Raleway;-inkscape-font-specification:'Raleway, Normal';font-variant-ligatures:normal;font-variant-caps:normal;font-variant-numeric:normal;font-variant-east-asian:normal;text-align:center;text-anchor:middle;fill:#ffffff;fill-opacity:1;stroke-width:0.641843"
           id="path12993" />
        <path
           d="m 75.343868,55.931933 v 0.60489 h -4.653751 v -6.926966 h 4.565944 v 0.60489 h -3.883004 v 2.49761 h 3.385433 v 0.575622 h -3.385433 v 2.643954 z"
           style="font-style:normal;font-variant:normal;font-weight:normal;font-stretch:normal;font-size:9.75629px;font-family:Raleway;-inkscape-font-specification:'Raleway, Normal';font-variant-ligatures:normal;font-variant-caps:normal;font-variant-numeric:normal;font-variant-east-asian:normal;text-align:center;text-anchor:middle;fill:#ffffff;fill-opacity:1;stroke-width:0.641843"
           id="path12995" />
      </g>
      <g
         aria-label="TALENTOS"
         transform="scale(0.96003573,1.0416279)"
         id="text9415"
         style="font-style:normal;font-variant:normal;font-weight:900;font-stretch:normal;font-size:15.2124px;line-height:1.25;font-family:Raleway;-inkscape-font-specification:'Raleway, Heavy';font-variant-ligatures:normal;font-variant-caps:normal;font-variant-numeric:normal;font-variant-east-asian:normal;fill:#ffffff;fill-opacity:1;stroke:none;stroke-width:0.692708">
        <path
           d="m 22.44171,60.912333 h -3.103329 v 8.214696 H 16.371962 V 60.912333 H 13.25342 v -2.586108 h 9.18829 z"
           style="font-style:normal;font-variant:normal;font-weight:900;font-stretch:normal;font-size:15.2124px;font-family:Raleway;-inkscape-font-specification:'Raleway, Heavy';font-variant-ligatures:normal;font-variant-caps:normal;font-variant-numeric:normal;font-variant-east-asian:normal;text-align:center;text-anchor:middle;fill:#ffffff;fill-opacity:1;stroke-width:0.692708"
           id="path12964" />
        <path
           d="m 25.332038,58.326225 h 2.707807 l 3.74225,10.800804 H 28.77004 l -0.654133,-2.114523 h -2.875144 l -0.638921,2.114523 h -3.027267 z m 2.312284,6.708669 -0.958381,-3.346728 -1.004018,3.346728 z"
           style="font-style:normal;font-variant:normal;font-weight:900;font-stretch:normal;font-size:15.2124px;font-family:Raleway;-inkscape-font-specification:'Raleway, Heavy';font-variant-ligatures:normal;font-variant-caps:normal;font-variant-numeric:normal;font-variant-east-asian:normal;text-align:center;text-anchor:middle;fill:#ffffff;fill-opacity:1;stroke-width:0.692708"
           id="path12966" />
        <path
           d="M 32.679624,69.127029 V 58.326225 h 2.966418 v 8.214696 h 4.898393 v 2.586108 z"
           style="font-style:normal;font-variant:normal;font-weight:900;font-stretch:normal;font-size:15.2124px;font-family:Raleway;-inkscape-font-specification:'Raleway, Heavy';font-variant-ligatures:normal;font-variant-caps:normal;font-variant-numeric:normal;font-variant-east-asian:normal;text-align:center;text-anchor:middle;fill:#ffffff;fill-opacity:1;stroke-width:0.692708"
           id="path12968" />
        <path
           d="m 49.276339,66.540921 v 2.586108 H 41.578865 V 58.326225 h 7.560563 v 2.586108 h -4.594145 v 1.52124 h 3.924799 v 2.403559 h -3.924799 v 1.703789 z"
           style="font-style:normal;font-variant:normal;font-weight:900;font-stretch:normal;font-size:15.2124px;font-family:Raleway;-inkscape-font-specification:'Raleway, Heavy';font-variant-ligatures:normal;font-variant-caps:normal;font-variant-numeric:normal;font-variant-east-asian:normal;text-align:center;text-anchor:middle;fill:#ffffff;fill-opacity:1;stroke-width:0.692708"
           id="path12970" />
        <path
           d="m 53.627057,63.817902 v 5.309127 H 50.660639 V 58.326225 h 2.312284 l 4.335535,5.491677 v -5.491677 h 2.966418 v 10.800804 h -2.357922 z"
           style="font-style:normal;font-variant:normal;font-weight:900;font-stretch:normal;font-size:15.2124px;font-family:Raleway;-inkscape-font-specification:'Raleway, Heavy';font-variant-ligatures:normal;font-variant-caps:normal;font-variant-numeric:normal;font-variant-east-asian:normal;text-align:center;text-anchor:middle;fill:#ffffff;fill-opacity:1;stroke-width:0.692708"
           id="path12972" />
        <path
           d="m 70.543242,60.912333 h -3.103329 v 8.214696 h -2.966419 v -8.214696 h -3.118542 v -2.586108 h 9.18829 z"
           style="font-style:normal;font-variant:normal;font-weight:900;font-stretch:normal;font-size:15.2124px;font-family:Raleway;-inkscape-font-specification:'Raleway, Heavy';font-variant-ligatures:normal;font-variant-caps:normal;font-variant-numeric:normal;font-variant-east-asian:normal;text-align:center;text-anchor:middle;fill:#ffffff;fill-opacity:1;stroke-width:0.692708"
           id="path12974" />
        <path
           d="m 76.32391,69.218304 q -1.232204,0 -2.236223,-0.471585 -1.004018,-0.471584 -1.719001,-1.232204 -0.714983,-0.775832 -1.110505,-1.764638 -0.395523,-0.988807 -0.395523,-2.038462 0,-1.064868 0.410735,-2.053674 0.410735,-0.988806 1.14093,-1.734214 0.745408,-0.76062 1.749426,-1.201779 1.019231,-0.456372 2.221011,-0.456372 1.232204,0 2.236223,0.471584 1.004018,0.471584 1.719001,1.247417 0.714983,0.775832 1.095293,1.764638 0.395522,0.988806 0.395522,2.023249 0,1.064868 -0.410735,2.053675 -0.410735,0.973593 -1.14093,1.734213 -0.730195,0.745408 -1.749426,1.20178 -1.004018,0.456372 -2.205798,0.456372 z M 73.874714,63.74184 q 0,0.547646 0.152124,1.064868 0.152124,0.502009 0.456372,0.897531 0.304248,0.395523 0.76062,0.638921 0.471584,0.243399 1.110505,0.243399 0.638921,0 1.110505,-0.243399 0.471585,-0.258611 0.76062,-0.654133 0.304248,-0.410735 0.44116,-0.927957 0.152124,-0.517221 0.152124,-1.049655 0,-0.547647 -0.152124,-1.049656 -0.152124,-0.517221 -0.471585,-0.897531 -0.304248,-0.395523 -0.775832,-0.623709 -0.456372,-0.243398 -1.080081,-0.243398 -0.63892,0 -1.110505,0.243398 -0.456372,0.243399 -0.76062,0.654133 -0.304248,0.395523 -0.456372,0.912744 -0.136911,0.50201 -0.136911,1.034444 z"
           style="font-style:normal;font-variant:normal;font-weight:900;font-stretch:normal;font-size:15.2124px;font-family:Raleway;-inkscape-font-specification:'Raleway, Heavy';font-variant-ligatures:normal;font-variant-caps:normal;font-variant-numeric:normal;font-variant-east-asian:normal;text-align:center;text-anchor:middle;fill:#ffffff;fill-opacity:1;stroke-width:0.692708"
           id="path12976" />
        <path
           d="m 89.54347,61.855502 q -0.456372,-0.273823 -0.943169,-0.486797 -0.410735,-0.182549 -0.927956,-0.334673 -0.502009,-0.167336 -0.988806,-0.167336 -0.395523,0 -0.638921,0.121699 -0.228186,0.121699 -0.228186,0.410735 0,0.212974 0.136912,0.349885 0.136911,0.136912 0.395522,0.258611 0.258611,0.106487 0.623708,0.212974 0.38031,0.106486 0.851895,0.25861 0.745408,0.228186 1.338691,0.50201 0.608496,0.273823 1.034443,0.654133 0.425948,0.365097 0.654134,0.897531 0.228186,0.532435 0.228186,1.293055 0,0.973593 -0.365098,1.642939 -0.349885,0.654133 -0.943169,1.049655 -0.578071,0.395523 -1.323479,0.578072 -0.730195,0.167336 -1.475603,0.167336 -0.593283,0 -1.216992,-0.09127 -0.623708,-0.09128 -1.247416,-0.258611 -0.608496,-0.167337 -1.186568,-0.395523 -0.562858,-0.228186 -1.049655,-0.517221 l 1.277841,-2.601321 q 0.532434,0.334673 1.110506,0.593284 0.486796,0.228186 1.095292,0.410735 0.623709,0.182549 1.26263,0.182549 0.486796,0 0.669345,-0.1217 0.197761,-0.136911 0.197761,-0.349885 0,-0.228186 -0.197761,-0.38031 -0.182549,-0.167336 -0.517221,-0.289035 -0.334673,-0.1217 -0.775833,-0.243399 -0.425947,-0.121699 -0.912744,-0.289036 -0.714983,-0.243398 -1.232204,-0.517221 -0.517222,-0.289036 -0.851895,-0.638921 -0.334672,-0.365098 -0.502009,-0.82147 -0.152124,-0.456372 -0.152124,-1.049655 0,-0.897532 0.319461,-1.58209 0.334672,-0.684558 0.897531,-1.14093 0.562859,-0.456372 1.277842,-0.684558 0.730195,-0.243398 1.536452,-0.243398 0.593284,0 1.156143,0.121699 0.562858,0.106487 1.08008,0.289036 0.532434,0.167336 0.988806,0.38031 0.456372,0.197761 0.82147,0.38031 z"
           style="font-style:normal;font-variant:normal;font-weight:900;font-stretch:normal;font-size:15.2124px;font-family:Raleway;-inkscape-font-specification:'Raleway, Heavy';font-variant-ligatures:normal;font-variant-caps:normal;font-variant-numeric:normal;font-variant-east-asian:normal;text-align:center;text-anchor:middle;fill:#ffffff;fill-opacity:1;stroke-width:0.692708"
           id="path12978" />
      </g>
    </g>
  </g>
</svg>
