<?xml version="1.0" encoding="UTF-8" standalone="no"?>
<svg
   xmlns:dc="http://purl.org/dc/elements/1.1/"
   xmlns:cc="http://creativecommons.org/ns#"
   xmlns:rdf="http://www.w3.org/1999/02/22-rdf-syntax-ns#"
   xmlns:svg="http://www.w3.org/2000/svg"
   xmlns="http://www.w3.org/2000/svg"
   xmlns:sodipodi="http://sodipodi.sourceforge.net/DTD/sodipodi-0.dtd"
   xmlns:inkscape="http://www.inkscape.org/namespaces/inkscape"
   width="300"
   height="150"
   viewBox="0 0 79.374998 39.687501"
   version="1.1"
   id="svg10887"
   inkscape:version="1.0.2-2 (e86c870879, 2021-01-15)"
   sodipodi:docname="ico_cards-2.svg">
  <defs
     id="defs10881" />
  <sodipodi:namedview
     id="base"
     pagecolor="#ffffff"
     bordercolor="#666666"
     borderopacity="1.0"
     inkscape:pageopacity="0.0"
     inkscape:pageshadow="2"
     inkscape:zoom="0.98994949"
     inkscape:cx="138.49242"
     inkscape:cy="35.348124"
     inkscape:document-units="mm"
     inkscape:current-layer="layer2"
     inkscape:document-rotation="0"
     showgrid="false"
     units="px"
     inkscape:window-width="1600"
     inkscape:window-height="837"
     inkscape:window-x="1358"
     inkscape:window-y="-8"
     inkscape:window-maximized="1" />
  <metadata
     id="metadata10884">
    <rdf:RDF>
      <cc:Work
         rdf:about="">
        <dc:format>image/svg+xml</dc:format>
        <dc:type
           rdf:resource="http://purl.org/dc/dcmitype/StillImage" />
        <dc:title></dc:title>
      </cc:Work>
    </rdf:RDF>
  </metadata>
  <g
     inkscape:groupmode="layer"
     id="layer2"
     inkscape:label="LOGO 2"
     style="display:inline">
    <g
       id="g11817"
       style="fill:#ffffff"
       transform="matrix(1.0537537,0,0,1.0537537,12.759213,-324.06938)">
      <g
         aria-label="SATC"
         id="text9771"
         style="font-style:normal;font-variant:normal;font-weight:900;font-stretch:normal;font-size:15.8456px;line-height:1.25;font-family:Raleway;-inkscape-font-specification:'Raleway, Heavy';font-variant-ligatures:normal;font-variant-caps:normal;font-variant-numeric:normal;font-variant-east-asian:normal;fill:#ffffff;fill-opacity:0.987805;stroke:none;stroke-width:0.721544">
        <path
           d="m 13.551996,333.40932 q -0.475368,-0.28522 -0.982428,-0.50706 -0.427831,-0.19014 -0.966581,-0.3486 -0.522905,-0.1743 -1.029964,-0.1743 -0.411986,0 -0.6655154,0.12676 -0.237684,0.12677 -0.237684,0.42784 0,0.22183 0.1426104,0.36444 0.1426104,0.14261 0.411986,0.26938 0.269375,0.11092 0.649669,0.22184 0.39614,0.11092 0.887354,0.26937 0.776434,0.23769 1.394413,0.52291 0.633824,0.28522 1.0775,0.68136 0.443677,0.38029 0.681361,0.93489 0.237684,0.5546 0.237684,1.34688 0,1.01411 -0.380294,1.71132 -0.364449,0.68136 -0.982427,1.09335 -0.602133,0.41198 -1.378568,0.60213 -0.760588,0.1743 -1.537023,0.1743 -0.617978,0 -1.2676478,-0.0951 -0.6496696,-0.0951 -1.2993392,-0.26938 -0.633824,-0.1743 -1.2359568,-0.41198 -0.5862872,-0.23769 -1.0933464,-0.53875 l 1.3310304,-2.7096 q 0.554596,0.3486 1.1567288,0.61798 0.5070592,0.23768 1.1408832,0.42783 0.6496698,0.19015 1.3151848,0.19015 0.507059,0 0.697206,-0.12677 0.205993,-0.14261 0.205993,-0.36445 0,-0.23768 -0.205993,-0.39614 -0.190147,-0.1743 -0.53875,-0.30106 -0.348603,-0.12677 -0.808126,-0.25353 -0.4436764,-0.12677 -0.9507356,-0.30107 -0.7447432,-0.25353 -1.2834936,-0.53875 -0.5387504,-0.30107 -0.8873536,-0.66552 -0.3486032,-0.38029 -0.5229048,-0.85566 -0.158456,-0.47537 -0.158456,-1.09335 0,-0.93489 0.3327576,-1.64794 0.3486032,-0.71305 0.9348904,-1.18842 0.5862872,-0.47537 1.3310304,-0.71305 0.7605888,-0.25353 1.6004052,-0.25353 0.617979,0 1.204266,0.12677 0.586287,0.11091 1.125038,0.30106 0.554596,0.1743 1.029964,0.39614 0.475368,0.20599 0.855662,0.39614 z"
           style="font-style:normal;font-variant:normal;font-weight:900;font-stretch:normal;font-size:15.8456px;font-family:Raleway;-inkscape-font-specification:'Raleway, Heavy';font-variant-ligatures:normal;font-variant-caps:normal;font-variant-numeric:normal;font-variant-east-asian:normal;text-align:center;text-anchor:middle;fill:#ffffff;fill-opacity:0.987805;stroke-width:0.721544"
           id="path11834" />
        <path
           d="m 19.145446,329.73314 h 2.820517 l 3.898018,11.25038 h -3.137429 l -0.681361,-2.20254 h -2.994818 l -0.665515,2.20254 h -3.153275 z m 2.408532,6.98791 -0.998273,-3.48603 -1.04581,3.48603 z"
           style="font-style:normal;font-variant:normal;font-weight:900;font-stretch:normal;font-size:15.8456px;font-family:Raleway;-inkscape-font-specification:'Raleway, Heavy';font-variant-ligatures:normal;font-variant-caps:normal;font-variant-numeric:normal;font-variant-east-asian:normal;text-align:center;text-anchor:middle;fill:#ffffff;fill-opacity:0.987805;stroke-width:0.721544"
           id="path11836" />
        <path
           d="M 34.531512,332.4269 H 31.29901 v 8.55662 H 28.209118 V 332.4269 H 24.96077 v -2.69376 h 9.570742 z"
           style="font-style:normal;font-variant:normal;font-weight:900;font-stretch:normal;font-size:15.8456px;font-family:Raleway;-inkscape-font-specification:'Raleway, Heavy';font-variant-ligatures:normal;font-variant-caps:normal;font-variant-numeric:normal;font-variant-east-asian:normal;text-align:center;text-anchor:middle;fill:#ffffff;fill-opacity:0.987805;stroke-width:0.721544"
           id="path11838" />
        <path
           d="m 34.864224,335.26326 q 0,-1.02997 0.380294,-2.02824 0.39614,-0.99827 1.140883,-1.79055 0.744743,-0.79228 1.806399,-1.28349 1.061655,-0.49122 2.424376,-0.49122 1.632097,0 2.820517,0.68136 1.204266,0.66552 1.790553,1.77471 l -2.360994,1.67963 q -0.158456,-0.41198 -0.427831,-0.68136 -0.25353,-0.26937 -0.570442,-0.42783 -0.316912,-0.15845 -0.665515,-0.22184 -0.332758,-0.0634 -0.64967,-0.0634 -0.665515,0 -1.156729,0.26938 -0.475368,0.25353 -0.79228,0.68136 -0.301066,0.41198 -0.459522,0.95073 -0.142611,0.52291 -0.142611,1.04581 0,0.58629 0.174302,1.12504 0.174302,0.53875 0.507059,0.95074 0.332758,0.41198 0.808126,0.66551 0.491213,0.23769 1.093346,0.23769 0.316912,0 0.64967,-0.0634 0.332757,-0.0792 0.633824,-0.23768 0.316912,-0.1743 0.554596,-0.42783 0.25353,-0.26938 0.39614,-0.64967 l 2.51945,1.50533 q -0.253529,0.61798 -0.776434,1.10919 -0.507059,0.49122 -1.172574,0.82397 -0.64967,0.33276 -1.410259,0.50706 -0.744743,0.1743 -1.457795,0.1743 -1.251803,0 -2.297612,-0.49121 -1.029964,-0.50706 -1.790553,-1.33103 -0.744743,-0.82397 -1.156729,-1.86978 -0.411985,-1.04581 -0.411985,-2.12331 z"
           style="font-style:normal;font-variant:normal;font-weight:900;font-stretch:normal;font-size:15.8456px;font-family:Raleway;-inkscape-font-specification:'Raleway, Heavy';font-variant-ligatures:normal;font-variant-caps:normal;font-variant-numeric:normal;font-variant-east-asian:normal;text-align:center;text-anchor:middle;fill:#ffffff;fill-opacity:0.987805;stroke-width:0.721544"
           id="path11840" />
      </g>
      <g
         aria-label="COLÉGIO"
         id="text9365"
         style="font-style:normal;font-variant:normal;font-weight:900;font-stretch:normal;font-size:15.8456px;line-height:1.25;font-family:Raleway;-inkscape-font-specification:'Raleway, Heavy';font-variant-ligatures:normal;font-variant-caps:normal;font-variant-numeric:normal;font-variant-east-asian:normal;fill:#ffffff;fill-opacity:1;stroke:none;stroke-width:0.721544">
        <path
           d="m -9.1468684,321.50484 q 0,-1.02997 0.3802944,-2.02824 0.39614,-0.99827 1.1408832,-1.79055 0.7447432,-0.79228 1.8063985,-1.2835 1.0616552,-0.49121 2.4243768,-0.49121 1.6320968,0 2.8205168,0.68136 1.20426561,0.66552 1.7905528,1.77471 l -2.3609944,1.67963 q -0.158456,-0.41198 -0.4278312,-0.68136 -0.2535296,-0.26938 -0.5704416,-0.42783 -0.316912,-0.15846 -0.6655152,-0.22184 -0.3327576,-0.0634 -0.6496696,-0.0634 -0.6655152,0 -1.1567288,0.26937 -0.475368,0.25353 -0.79228,0.68136 -0.3010664,0.41199 -0.4595224,0.95074 -0.1426104,0.5229 -0.1426104,1.04581 0,0.58629 0.1743016,1.12504 0.1743016,0.53875 0.5070592,0.95073 0.3327576,0.41199 0.8081256,0.66552 0.4912136,0.23768 1.0933464,0.23768 0.316912,0 0.6496696,-0.0634 0.3327576,-0.0792 0.633824,-0.23768 0.316912,-0.17431 0.554596,-0.42784 0.2535296,-0.26937 0.39614,-0.64966 l 2.5194504,1.50533 q -0.2535296,0.61798 -0.77643439,1.10919 -0.50705921,0.49121 -1.17257441,0.82397 -0.6496696,0.33276 -1.4102584,0.50706 -0.7447432,0.1743 -1.4577952,0.1743 -1.2518024,0 -2.297612,-0.49121 -1.0299641,-0.50706 -1.7905529,-1.33103 -0.7447432,-0.82397 -1.1567288,-1.86978 -0.4119856,-1.04581 -0.4119856,-2.12331 z"
           style="font-style:normal;font-variant:normal;font-weight:900;font-stretch:normal;font-size:15.8456px;font-family:Raleway;-inkscape-font-specification:'Raleway, Heavy';font-variant-ligatures:normal;font-variant-caps:normal;font-variant-numeric:normal;font-variant-east-asian:normal;text-align:center;text-anchor:middle;fill:#ffffff;fill-opacity:1;stroke-width:0.721544"
           id="path11819" />
        <path
           d="m 7.3166845,327.32017 q -1.2834936,0 -2.3293032,-0.49121 -1.0458096,-0.49122 -1.7905528,-1.2835 -0.7447432,-0.80812 -1.1567288,-1.83809 -0.4119856,-1.02996 -0.4119856,-2.12331 0,-1.10919 0.4278312,-2.13915 0.4278312,-1.02997 1.18842,-1.8064 0.7764344,-0.79228 1.822244,-1.2518 1.0616552,-0.47537 2.3134576,-0.47537 1.2834936,0 2.3293032,0.49121 1.0458099,0.49122 1.7905529,1.29934 0.744743,0.80813 1.140883,1.83809 0.411986,1.02997 0.411986,2.10747 0,1.10919 -0.427831,2.13915 -0.427832,1.01412 -1.18842,1.8064 -0.760589,0.77644 -1.8222445,1.2518 -1.0458096,0.47537 -2.297612,0.47537 z m -2.5511416,-5.70441 q 0,0.57044 0.158456,1.10919 0.158456,0.5229 0.475368,0.93489 0.316912,0.41198 0.79228,0.66551 0.4912136,0.25353 1.1567288,0.25353 0.6655152,0 1.1567288,-0.25353 0.4912136,-0.26937 0.79228,-0.68136 0.316912,-0.42783 0.4595224,-0.96658 0.158456,-0.53875 0.158456,-1.09335 0,-0.57044 -0.158456,-1.09334 -0.158456,-0.53875 -0.4912136,-0.93489 -0.316912,-0.41199 -0.8081256,-0.64967 -0.475368,-0.25353 -1.1250376,-0.25353 -0.6655152,0 -1.1567288,0.25353 -0.475368,0.25353 -0.79228,0.68136 -0.316912,0.41198 -0.475368,0.95073 -0.1426104,0.52291 -0.1426104,1.07751 z"
           style="font-style:normal;font-variant:normal;font-weight:900;font-stretch:normal;font-size:15.8456px;font-family:Raleway;-inkscape-font-specification:'Raleway, Heavy';font-variant-ligatures:normal;font-variant-caps:normal;font-variant-numeric:normal;font-variant-east-asian:normal;text-align:center;text-anchor:middle;fill:#ffffff;fill-opacity:1;stroke-width:0.721544"
           id="path11821" />
        <path
           d="m 14.367968,327.2251 v -11.25038 h 3.089892 v 8.55663 h 5.102284 v 2.69375 z"
           style="font-style:normal;font-variant:normal;font-weight:900;font-stretch:normal;font-size:15.8456px;font-family:Raleway;-inkscape-font-specification:'Raleway, Heavy';font-variant-ligatures:normal;font-variant-caps:normal;font-variant-numeric:normal;font-variant-east-asian:normal;text-align:center;text-anchor:middle;fill:#ffffff;fill-opacity:1;stroke-width:0.721544"
           id="path11823" />
        <path
           d="m 31.655503,324.53135 v 2.69375 h -8.017874 v -11.25038 h 7.875263 v 2.69375 h -4.785371 v 1.58456 h 4.088165 v 2.50361 h -4.088165 v 1.77471 z m -3.058201,-9.032 -1.901472,-0.50706 0.79228,-2.25007 h 2.677906 z"
           style="font-style:normal;font-variant:normal;font-weight:900;font-stretch:normal;font-size:15.8456px;font-family:Raleway;-inkscape-font-specification:'Raleway, Heavy';font-variant-ligatures:normal;font-variant-caps:normal;font-variant-numeric:normal;font-variant-east-asian:normal;text-align:center;text-anchor:middle;fill:#ffffff;fill-opacity:1;stroke-width:0.721544"
           id="path11825" />
        <path
           d="m 40.560678,326.29021 q -1.204266,1.01412 -2.772981,1.01412 -1.093346,0 -2.091619,-0.3803 -0.998273,-0.39614 -1.743016,-1.14088 -0.744743,-0.74475 -1.18842,-1.82225 -0.443677,-1.0775 -0.443677,-2.45606 0,-1.18842 0.443677,-2.20254 0.443677,-1.02997 1.220111,-1.77471 0.776435,-0.76059 1.822244,-1.18842 1.061656,-0.44368 2.281767,-0.44368 0.760589,0 1.457795,0.17431 0.697207,0.15845 1.283494,0.49121 0.602133,0.31691 1.077501,0.77643 0.475368,0.44368 0.776434,1.01412 l -2.297612,1.75886 q -0.332758,-0.66551 -0.998273,-1.06165 -0.665515,-0.41199 -1.410258,-0.41199 -0.554596,0 -1.014119,0.22184 -0.459522,0.22184 -0.79228,0.61798 -0.332757,0.39614 -0.522905,0.95074 -0.190147,0.53875 -0.190147,1.18842 0,0.66551 0.190147,1.20426 0.190148,0.53875 0.522905,0.93489 0.348603,0.3803 0.823971,0.60213 0.475368,0.206 1.061656,0.206 1.346876,0 2.37684,-1.1092 h -1.949009 v -2.21838 h 4.626915 v 5.98964 h -2.551141 z"
           style="font-style:normal;font-variant:normal;font-weight:900;font-stretch:normal;font-size:15.8456px;font-family:Raleway;-inkscape-font-specification:'Raleway, Heavy';font-variant-ligatures:normal;font-variant-caps:normal;font-variant-numeric:normal;font-variant-east-asian:normal;text-align:center;text-anchor:middle;fill:#ffffff;fill-opacity:1;stroke-width:0.721544"
           id="path11827" />
        <path
           d="m 44.632971,327.2251 v -11.25038 h 3.089892 v 11.25038 z"
           style="font-style:normal;font-variant:normal;font-weight:900;font-stretch:normal;font-size:15.8456px;font-family:Raleway;-inkscape-font-specification:'Raleway, Heavy';font-variant-ligatures:normal;font-variant-caps:normal;font-variant-numeric:normal;font-variant-east-asian:normal;text-align:center;text-anchor:middle;fill:#ffffff;fill-opacity:1;stroke-width:0.721544"
           id="path11829" />
        <path
           d="m 54.726608,327.32017 q -1.283494,0 -2.329303,-0.49121 -1.04581,-0.49122 -1.790553,-1.2835 -0.744743,-0.80812 -1.156729,-1.83809 -0.411985,-1.02996 -0.411985,-2.12331 0,-1.10919 0.427831,-2.13915 0.427831,-1.02997 1.18842,-1.8064 0.776434,-0.79228 1.822244,-1.2518 1.061655,-0.47537 2.313457,-0.47537 1.283494,0 2.329304,0.49121 1.045809,0.49122 1.790553,1.29934 0.744743,0.80813 1.140883,1.83809 0.411985,1.02997 0.411985,2.10747 0,1.10919 -0.427831,2.13915 -0.427831,1.01412 -1.18842,1.8064 -0.760589,0.77644 -1.822244,1.2518 -1.04581,0.47537 -2.297612,0.47537 z m -2.551142,-5.70441 q 0,0.57044 0.158456,1.10919 0.158456,0.5229 0.475368,0.93489 0.316912,0.41198 0.79228,0.66551 0.491214,0.25353 1.156729,0.25353 0.665515,0 1.156729,-0.25353 0.491214,-0.26937 0.79228,-0.68136 0.316912,-0.42783 0.459523,-0.96658 0.158456,-0.53875 0.158456,-1.09335 0,-0.57044 -0.158456,-1.09334 -0.158456,-0.53875 -0.491214,-0.93489 -0.316912,-0.41199 -0.808126,-0.64967 -0.475368,-0.25353 -1.125037,-0.25353 -0.665516,0 -1.156729,0.25353 -0.475368,0.25353 -0.79228,0.68136 -0.316912,0.41198 -0.475368,0.95073 -0.142611,0.52291 -0.142611,1.07751 z"
           style="font-style:normal;font-variant:normal;font-weight:900;font-stretch:normal;font-size:15.8456px;font-family:Raleway;-inkscape-font-specification:'Raleway, Heavy';font-variant-ligatures:normal;font-variant-caps:normal;font-variant-numeric:normal;font-variant-east-asian:normal;text-align:center;text-anchor:middle;fill:#ffffff;fill-opacity:1;stroke-width:0.721544"
           id="path11831" />
      </g>
    </g>
  </g>
</svg>
