<?xml version="1.0" encoding="UTF-8" standalone="no"?>
<svg
   xmlns:dc="http://purl.org/dc/elements/1.1/"
   xmlns:cc="http://creativecommons.org/ns#"
   xmlns:rdf="http://www.w3.org/1999/02/22-rdf-syntax-ns#"
   xmlns:svg="http://www.w3.org/2000/svg"
   xmlns="http://www.w3.org/2000/svg"
   xmlns:sodipodi="http://sodipodi.sourceforge.net/DTD/sodipodi-0.dtd"
   xmlns:inkscape="http://www.inkscape.org/namespaces/inkscape"
   width="300"
   height="150"
   viewBox="0 0 79.374998 39.687501"
   version="1.1"
   id="svg10887"
   inkscape:version="1.0.2-2 (e86c870879, 2021-01-15)"
   sodipodi:docname="ico_cards-5.svg">
  <defs
     id="defs10881" />
  <sodipodi:namedview
     id="base"
     pagecolor="#ffffff"
     bordercolor="#666666"
     borderopacity="1.0"
     inkscape:pageopacity="0.0"
     inkscape:pageshadow="2"
     inkscape:zoom="1.979899"
     inkscape:cx="77.598756"
     inkscape:cy="49.804036"
     inkscape:document-units="mm"
     inkscape:current-layer="g12024"
     inkscape:document-rotation="0"
     showgrid="false"
     units="px"
     inkscape:window-width="1600"
     inkscape:window-height="837"
     inkscape:window-x="1358"
     inkscape:window-y="-8"
     inkscape:window-maximized="1" />
  <metadata
     id="metadata10884">
    <rdf:RDF>
      <cc:Work
         rdf:about="">
        <dc:format>image/svg+xml</dc:format>
        <dc:type
           rdf:resource="http://purl.org/dc/dcmitype/StillImage" />
        <dc:title></dc:title>
      </cc:Work>
    </rdf:RDF>
  </metadata>
  <g
     inkscape:groupmode="layer"
     id="layer2"
     inkscape:label="LOGO 2"
     style="display:inline">
    <g
       id="g12024"
       transform="translate(-54.517612,-55.330164)">
      <g
         id="g12708"
         transform="translate(37.041668)">
        <path
           id="path9375-7"
           style="display:inline;fill:#ffffff;fill-opacity:1;stroke-width:0.0526934"
           d="m 56.654954,55.429898 c -3.441847,4.617719 1.5005,8.336175 1.928565,8.645466 a 0.76799722,0.76799722 0 0 1 0.686263,-0.409794 0.76799722,0.76799722 0 0 1 0.62115,0.326595 c -1.27e-4,-4.49e-4 -3.96e-4,-0.0042 -5.29e-4,-0.0047 0,0 3.330151,-6.291796 -3.235461,-8.557617 z m -3.585311,6.900353 c -0.77082,0.01027 -1.641473,0.18285 -2.622062,0.577226 0.481482,5.895818 6.839169,5.298035 7.706507,5.189347 0.08732,-0.50993 0.156989,-1.018764 0.210322,-1.522904 -0.396913,-1.098414 -1.845407,-4.289618 -5.294767,-4.243669 z m 11.933122,0.03204 c -2.973626,0.0403 -4.631696,2.555296 -5.014681,3.21169 -0.05244,0.903878 -0.155163,1.830512 -0.312642,2.762105 0.410097,0.07599 7.187978,1.230681 7.402648,-5.618261 -0.750879,-0.259351 -1.442639,-0.364109 -2.075325,-0.355534 z m -13.46171,6.638871 c -1.070993,0.02734 -2.313227,0.285982 -3.749126,0.877466 2.18855,5.603731 6.068186,5.203952 8.282182,4.415234 0.383612,-0.695322 0.719337,-1.431089 1.007691,-2.194181 -0.801659,-1.345997 -2.46263,-3.177082 -5.540747,-3.098519 z m 12.277286,0.906921 c -2.752344,7.68e-4 -4.82786,2.040359 -5.173844,2.400371 -0.237803,0.660667 -0.50833,1.308101 -0.814421,1.935799 0.425265,0.257255 6.970506,4.079358 9.779765,-2.890263 -1.318982,-1.064076 -2.612801,-1.44624 -3.7915,-1.445907 z" />
        <path
           style="color:#000000;font-style:normal;font-variant:normal;font-weight:normal;font-stretch:normal;font-size:medium;line-height:normal;font-family:sans-serif;font-variant-ligatures:normal;font-variant-position:normal;font-variant-caps:normal;font-variant-numeric:normal;font-variant-alternates:normal;font-variant-east-asian:normal;font-feature-settings:normal;font-variation-settings:normal;text-indent:0;text-align:start;text-decoration:none;text-decoration-line:none;text-decoration-style:solid;text-decoration-color:#000000;letter-spacing:normal;word-spacing:normal;text-transform:none;writing-mode:lr-tb;direction:ltr;text-orientation:mixed;dominant-baseline:auto;baseline-shift:baseline;text-anchor:start;white-space:normal;shape-padding:0;shape-margin:0;inline-size:0;clip-rule:nonzero;display:inline;overflow:visible;visibility:visible;isolation:auto;mix-blend-mode:normal;color-interpolation:sRGB;color-interpolation-filters:linearRGB;solid-color:#000000;solid-opacity:1;vector-effect:none;fill:#ffffff;fill-opacity:0.508064;fill-rule:nonzero;stroke:none;stroke-width:1.28024;stroke-linecap:round;stroke-linejoin:miter;stroke-miterlimit:4;stroke-dasharray:none;stroke-dashoffset:0;stroke-opacity:1;color-rendering:auto;image-rendering:auto;shape-rendering:auto;text-rendering:auto;enable-background:accumulate;stop-color:#000000"
           d="m 59.269973,63.665362 a 0.76799724,0.76799724 0 0 0 -0.775147,0.760143 c -0.04161,3.304916 -0.834551,7.133118 -2.560482,10.121904 -1.725931,2.988786 -4.296949,5.131807 -8.116521,5.37102 a 0.76799724,0.76799724 0 0 0 -0.717639,0.815142 0.76799724,0.76799724 0 0 0 0.812658,0.717639 c 4.361268,-0.273127 7.446482,-2.836809 9.351749,-6.136156 1.90528,-3.299347 2.721114,-7.341208 2.765525,-10.872048 a 0.76799724,0.76799724 0 0 0 -0.760143,-0.777644 z"
           id="path9377-2-2" />
      </g>
      <g
         aria-label="NMA"
         id="text9383"
         style="font-style:normal;font-variant:normal;font-weight:900;font-stretch:normal;font-size:15.8456px;line-height:1.25;font-family:Raleway;-inkscape-font-specification:'Raleway, Heavy';font-variant-ligatures:normal;font-variant-caps:normal;font-variant-numeric:normal;font-variant-east-asian:normal;fill:#ffffff;fill-opacity:1;stroke:none;stroke-width:0.721544">
        <path
           d="m 80.397531,89.529975 v 5.530114 H 77.307639 V 83.809713 h 2.408532 l 4.515996,5.720262 v -5.720262 h 3.089892 v 11.250376 h -2.456068 z"
           style="font-style:normal;font-variant:normal;font-weight:900;font-stretch:normal;font-size:15.8456px;font-family:Raleway;-inkscape-font-specification:'Raleway, Heavy';font-variant-ligatures:normal;font-variant-caps:normal;font-variant-numeric:normal;font-variant-east-asian:normal;text-align:center;text-anchor:middle;fill:#ffffff;fill-opacity:1;stroke-width:0.721544"
           id="path12079" />
        <path
           d="m 97.764304,95.060089 v -5.926254 l -1.885626,4.167392 h -1.647943 l -1.885626,-4.167392 v 5.926254 H 89.255217 V 83.809713 h 3.375113 l 2.424377,5.29243 2.440222,-5.29243 h 3.359271 v 11.250376 z"
           style="font-style:normal;font-variant:normal;font-weight:900;font-stretch:normal;font-size:15.8456px;font-family:Raleway;-inkscape-font-specification:'Raleway, Heavy';font-variant-ligatures:normal;font-variant-caps:normal;font-variant-numeric:normal;font-variant-east-asian:normal;text-align:center;text-anchor:middle;fill:#ffffff;fill-opacity:1;stroke-width:0.721544"
           id="path12081" />
        <path
           d="m 105.70292,83.809713 h 2.82052 l 3.89801,11.250376 h -3.13742 l -0.68136,-2.202538 h -2.99482 l -0.66552,2.202538 h -3.15327 z m 2.40853,6.98791 -0.99827,-3.486032 -1.04581,3.486032 z"
           style="font-style:normal;font-variant:normal;font-weight:900;font-stretch:normal;font-size:15.8456px;font-family:Raleway;-inkscape-font-specification:'Raleway, Heavy';font-variant-ligatures:normal;font-variant-caps:normal;font-variant-numeric:normal;font-variant-east-asian:normal;text-align:center;text-anchor:middle;fill:#ffffff;fill-opacity:1;stroke-width:0.721544"
           id="path12083" />
      </g>
    </g>
  </g>
</svg>
