<?xml version="1.0" encoding="UTF-8" standalone="no"?>
<svg
   xmlns:dc="http://purl.org/dc/elements/1.1/"
   xmlns:cc="http://creativecommons.org/ns#"
   xmlns:rdf="http://www.w3.org/1999/02/22-rdf-syntax-ns#"
   xmlns:svg="http://www.w3.org/2000/svg"
   xmlns="http://www.w3.org/2000/svg"
   xmlns:sodipodi="http://sodipodi.sourceforge.net/DTD/sodipodi-0.dtd"
   xmlns:inkscape="http://www.inkscape.org/namespaces/inkscape"
   width="300"
   height="150"
   viewBox="0 0 79.374998 39.687501"
   version="1.1"
   id="svg10887"
   inkscape:version="1.0.2-2 (e86c870879, 2021-01-15)"
   sodipodi:docname="ico_empresa_2.svg">
  <defs
     id="defs10881" />
  <sodipodi:namedview
     id="base"
     pagecolor="#ffffff"
     bordercolor="#666666"
     borderopacity="1.0"
     inkscape:pageopacity="0.0"
     inkscape:pageshadow="2"
     inkscape:zoom="1.4"
     inkscape:cx="63.573433"
     inkscape:cy="25.265949"
     inkscape:document-units="mm"
     inkscape:current-layer="g11817"
     inkscape:document-rotation="0"
     showgrid="false"
     units="px"
     inkscape:window-width="1600"
     inkscape:window-height="837"
     inkscape:window-x="1358"
     inkscape:window-y="-8"
     inkscape:window-maximized="1" />
  <metadata
     id="metadata10884">
    <rdf:RDF>
      <cc:Work
         rdf:about="">
        <dc:format>image/svg+xml</dc:format>
        <dc:type
           rdf:resource="http://purl.org/dc/dcmitype/StillImage" />
        <dc:title></dc:title>
      </cc:Work>
    </rdf:RDF>
  </metadata>
  <g
     inkscape:groupmode="layer"
     id="layer2"
     inkscape:label="LOGO 2"
     style="display:inline">
    <g
       id="g11817"
       style="fill:#ff00ff"
       transform="matrix(1.0537537,0,0,1.0537537,12.759213,-324.06938)">
      <g
         id="g17025"
         transform="matrix(1.0571936,0,0,1.0571936,-2729.59,-640.57861)"
         style="fill:#ffffff">
        <g
           aria-label="CURSOS"
           id="text16768"
           style="font-style:normal;font-variant:normal;font-weight:normal;font-stretch:normal;font-size:9.75629px;line-height:1.25;font-family:Raleway;-inkscape-font-specification:'Raleway, Normal';font-variant-ligatures:normal;font-variant-caps:normal;font-variant-numeric:normal;font-variant-east-asian:normal;fill:#ffffff;fill-opacity:1;stroke:none;stroke-width:0.641843">
          <path
             d="m 2585.5181,906.63764 q 0,-0.6244 0.2146,-1.23905 0.2244,-0.6244 0.6439,-1.11222 0.4196,-0.48781 1.0342,-0.79026 0.6147,-0.3122 1.3952,-0.3122 0.9268,0 1.5805,0.41952 0.6634,0.41952 0.9756,1.09271 l -0.5366,0.33171 q -0.1658,-0.34147 -0.4098,-0.57562 -0.2341,-0.23415 -0.5073,-0.3805 -0.2732,-0.14634 -0.5658,-0.20488 -0.2927,-0.0683 -0.5757,-0.0683 -0.6244,0 -1.1024,0.25366 -0.4781,0.25366 -0.8098,0.66343 -0.322,0.40976 -0.4878,0.92685 -0.1659,0.50732 -0.1659,1.03416 0,0.57562 0.1952,1.10246 0.2048,0.52684 0.5463,0.93661 0.3512,0.40001 0.8195,0.64391 0.4781,0.23415 1.0342,0.23415 0.2927,0 0.5951,-0.0683 0.3122,-0.078 0.5952,-0.23415 0.2927,-0.16586 0.5366,-0.40001 0.2439,-0.24391 0.4097,-0.58538 l 0.5659,0.29269 q -0.1659,0.39025 -0.4683,0.6927 -0.3024,0.29269 -0.6732,0.49757 -0.3707,0.20488 -0.7902,0.3122 -0.4098,0.10732 -0.8098,0.10732 -0.7122,0 -1.3074,-0.3122 -0.5951,-0.3122 -1.0244,-0.80977 -0.4292,-0.50733 -0.6732,-1.14149 -0.2341,-0.64391 -0.2341,-1.30734 z"
             style="font-style:normal;font-variant:normal;font-weight:normal;font-stretch:normal;font-size:9.75629px;font-family:Raleway;-inkscape-font-specification:'Raleway, Normal';font-variant-ligatures:normal;font-variant-caps:normal;font-variant-numeric:normal;font-variant-east-asian:normal;text-align:center;text-anchor:middle;fill:#ffffff;fill-opacity:1;stroke-width:0.641843"
             id="path17125" />
          <path
             d="m 2595.4793,909.58404 q 0.6536,0 1.0829,-0.24391 0.439,-0.25366 0.6927,-0.65367 0.2634,-0.40977 0.361,-0.92685 0.1073,-0.51708 0.1073,-1.04392 v -3.49275 h 0.6829 v 3.49275 q 0,0.70245 -0.1561,1.33661 -0.1561,0.6244 -0.5073,1.10246 -0.3415,0.47806 -0.8976,0.76099 -0.5561,0.28293 -1.3561,0.28293 -0.8195,0 -1.3854,-0.29268 -0.5561,-0.30245 -0.8976,-0.79026 -0.3414,-0.48782 -0.4878,-1.11222 -0.1463,-0.6244 -0.1463,-1.28783 v -3.49275 h 0.6732 v 3.49275 q 0,0.54635 0.1073,1.06343 0.1073,0.51709 0.361,0.9171 0.2634,0.4 0.6927,0.64391 0.4292,0.24391 1.0732,0.24391 z"
             style="font-style:normal;font-variant:normal;font-weight:normal;font-stretch:normal;font-size:9.75629px;font-family:Raleway;-inkscape-font-specification:'Raleway, Normal';font-variant-ligatures:normal;font-variant-caps:normal;font-variant-numeric:normal;font-variant-east-asian:normal;text-align:center;text-anchor:middle;fill:#ffffff;fill-opacity:1;stroke-width:0.641843"
             id="path17127" />
          <path
             d="m 2600.0354,910.1499 v -6.92696 h 2.9269 q 0.4488,0 0.8195,0.19512 0.3805,0.18537 0.6537,0.49757 0.2732,0.30245 0.4195,0.6927 0.1561,0.39025 0.1561,0.79026 0,0.38049 -0.117,0.73172 -0.1074,0.34147 -0.3122,0.6244 -0.1952,0.27318 -0.4781,0.46831 -0.2829,0.18536 -0.6342,0.25366 l 1.6976,2.67322 h -0.7707 l -1.6293,-2.55615 h -2.0488 v 2.55615 z m 0.683,-3.16104 h 2.2634 q 0.3025,0 0.5464,-0.12683 0.2536,-0.13659 0.4293,-0.36098 0.1756,-0.22439 0.2731,-0.50733 0.098,-0.28293 0.098,-0.59513 0,-0.3122 -0.1171,-0.59513 -0.1073,-0.29269 -0.3024,-0.50733 -0.1854,-0.21464 -0.4488,-0.34147 -0.2537,-0.12683 -0.5366,-0.12683 h -2.2049 z"
             style="font-style:normal;font-variant:normal;font-weight:normal;font-stretch:normal;font-size:9.75629px;font-family:Raleway;-inkscape-font-specification:'Raleway, Normal';font-variant-ligatures:normal;font-variant-caps:normal;font-variant-numeric:normal;font-variant-east-asian:normal;text-align:center;text-anchor:middle;fill:#ffffff;fill-opacity:1;stroke-width:0.641843"
             id="path17129" />
          <path
             d="m 2610.4552,904.52052 q -0.2927,-0.33171 -0.7806,-0.53659 -0.4878,-0.20489 -1.1122,-0.20489 -0.9171,0 -1.3366,0.35123 -0.4195,0.34147 -0.4195,0.93661 0,0.3122 0.1073,0.51708 0.1171,0.19512 0.3512,0.34147 0.2342,0.14634 0.5952,0.25366 0.3707,0.10732 0.8683,0.21464 0.5561,0.11708 0.9951,0.26342 0.4488,0.14634 0.761,0.37074 0.3122,0.21464 0.4781,0.52684 0.1658,0.3122 0.1658,0.7805 0,0.47806 -0.1853,0.82929 -0.1854,0.35122 -0.5171,0.58537 -0.3317,0.23416 -0.7903,0.35123 -0.4585,0.10732 -1.0049,0.10732 -1.6098,0 -2.7805,-1.0049 l 0.3415,-0.55611 q 0.1853,0.19513 0.439,0.37074 0.2634,0.17562 0.5756,0.3122 0.322,0.12684 0.6829,0.20489 0.361,0.0683 0.761,0.0683 0.8293,0 1.2879,-0.29269 0.4683,-0.30244 0.4683,-0.90733 0,-0.32196 -0.1366,-0.5366 -0.1268,-0.22439 -0.3903,-0.38049 -0.2634,-0.16586 -0.6536,-0.28294 -0.3903,-0.11707 -0.9074,-0.23415 -0.5463,-0.12683 -0.9561,-0.26342 -0.4098,-0.13659 -0.6927,-0.34147 -0.2829,-0.20488 -0.4293,-0.48781 -0.1366,-0.29269 -0.1366,-0.71221 0,-0.47806 0.1757,-0.8488 0.1853,-0.38049 0.517,-0.6244 0.3318,-0.25367 0.7805,-0.3805 0.4488,-0.13659 0.9952,-0.13659 0.6927,0 1.2293,0.21464 0.5463,0.20489 0.9854,0.58538 z"
             style="font-style:normal;font-variant:normal;font-weight:normal;font-stretch:normal;font-size:9.75629px;font-family:Raleway;-inkscape-font-specification:'Raleway, Normal';font-variant-ligatures:normal;font-variant-caps:normal;font-variant-numeric:normal;font-variant-east-asian:normal;text-align:center;text-anchor:middle;fill:#ffffff;fill-opacity:1;stroke-width:0.641843"
             id="path17131" />
          <path
             d="m 2615.1186,910.19868 q -0.7219,0 -1.3268,-0.29268 -0.5951,-0.30245 -1.0244,-0.79026 -0.4293,-0.49758 -0.6635,-1.13173 -0.2341,-0.63416 -0.2341,-1.29759 0,-0.6927 0.2439,-1.32686 0.2537,-0.63416 0.6927,-1.12197 0.439,-0.48781 1.0342,-0.77075 0.5951,-0.29269 1.2878,-0.29269 0.722,0 1.3171,0.31221 0.6049,0.30244 1.0244,0.80001 0.4293,0.49757 0.6634,1.13173 0.2342,0.6244 0.2342,1.27808 0,0.69269 -0.2537,1.32685 -0.2439,0.63416 -0.6829,1.12197 -0.4293,0.47806 -1.0244,0.77075 -0.5952,0.28293 -1.2879,0.28293 z m -2.5659,-3.51226 q 0,0.56586 0.1854,1.0927 0.1854,0.51709 0.5268,0.92685 0.3415,0.40001 0.8098,0.64392 0.4683,0.23415 1.0439,0.23415 0.5854,0 1.0635,-0.25367 0.478,-0.25366 0.8098,-0.66342 0.3317,-0.40977 0.5073,-0.92685 0.1853,-0.51708 0.1853,-1.05368 0,-0.56587 -0.1951,-1.08295 -0.1853,-0.52684 -0.5268,-0.92685 -0.3415,-0.4 -0.8098,-0.63416 -0.4683,-0.2439 -1.0342,-0.2439 -0.5853,0 -1.0634,0.25366 -0.4781,0.24391 -0.8098,0.65367 -0.3317,0.40977 -0.517,0.92685 -0.1757,0.51708 -0.1757,1.05368 z"
             style="font-style:normal;font-variant:normal;font-weight:normal;font-stretch:normal;font-size:9.75629px;font-family:Raleway;-inkscape-font-specification:'Raleway, Normal';font-variant-ligatures:normal;font-variant-caps:normal;font-variant-numeric:normal;font-variant-east-asian:normal;text-align:center;text-anchor:middle;fill:#ffffff;fill-opacity:1;stroke-width:0.641843"
             id="path17133" />
          <path
             d="m 2623.7042,904.52052 q -0.2927,-0.33171 -0.7805,-0.53659 -0.4878,-0.20489 -1.1122,-0.20489 -0.9171,0 -1.3367,0.35123 -0.4195,0.34147 -0.4195,0.93661 0,0.3122 0.1073,0.51708 0.1171,0.19512 0.3513,0.34147 0.2341,0.14634 0.5951,0.25366 0.3707,0.10732 0.8683,0.21464 0.5561,0.11708 0.9951,0.26342 0.4488,0.14634 0.761,0.37074 0.3122,0.21464 0.4781,0.52684 0.1659,0.3122 0.1659,0.7805 0,0.47806 -0.1854,0.82929 -0.1854,0.35122 -0.5171,0.58537 -0.3317,0.23416 -0.7903,0.35123 -0.4585,0.10732 -1.0049,0.10732 -1.6097,0 -2.7805,-1.0049 l 0.3415,-0.55611 q 0.1853,0.19513 0.439,0.37074 0.2634,0.17562 0.5756,0.3122 0.322,0.12684 0.683,0.20489 0.3609,0.0683 0.761,0.0683 0.8292,0 1.2878,-0.29269 0.4683,-0.30244 0.4683,-0.90733 0,-0.32196 -0.1366,-0.5366 -0.1268,-0.22439 -0.3903,-0.38049 -0.2634,-0.16586 -0.6536,-0.28294 -0.3903,-0.11707 -0.9074,-0.23415 -0.5463,-0.12683 -0.9561,-0.26342 -0.4097,-0.13659 -0.6927,-0.34147 -0.2829,-0.20488 -0.4292,-0.48781 -0.1366,-0.29269 -0.1366,-0.71221 0,-0.47806 0.1756,-0.8488 0.1853,-0.38049 0.5171,-0.6244 0.3317,-0.25367 0.7805,-0.3805 0.4488,-0.13659 0.9951,-0.13659 0.6927,0 1.2293,0.21464 0.5464,0.20489 0.9854,0.58538 z"
             style="font-style:normal;font-variant:normal;font-weight:normal;font-stretch:normal;font-size:9.75629px;font-family:Raleway;-inkscape-font-specification:'Raleway, Normal';font-variant-ligatures:normal;font-variant-caps:normal;font-variant-numeric:normal;font-variant-east-asian:normal;text-align:center;text-anchor:middle;fill:#ffffff;fill-opacity:1;stroke-width:0.641843"
             id="path17135" />
        </g>
        <g
           aria-label="LIVRES"
           transform="scale(0.96003573,1.0416279)"
           id="text16772"
           style="font-style:normal;font-variant:normal;font-weight:900;font-stretch:normal;font-size:15.2124px;line-height:1.25;font-family:Raleway;-inkscape-font-specification:'Raleway, Heavy';font-variant-ligatures:normal;font-variant-caps:normal;font-variant-numeric:normal;font-variant-east-asian:normal;fill:#ffffff;fill-opacity:1;stroke:none;stroke-width:0.692708">
          <path
             d="m 2688.9283,888.6261 v -10.80081 h 2.9664 v 8.2147 h 4.8984 v 2.58611 z"
             style="font-style:normal;font-variant:normal;font-weight:900;font-stretch:normal;font-size:15.2124px;font-family:Raleway;-inkscape-font-specification:'Raleway, Heavy';font-variant-ligatures:normal;font-variant-caps:normal;font-variant-numeric:normal;font-variant-east-asian:normal;text-align:center;text-anchor:middle;fill:#ffffff;fill-opacity:1;stroke-width:0.692708"
             id="path17138" />
          <path
             d="m 2697.8276,888.6261 v -10.80081 h 2.9664 v 10.80081 z"
             style="font-style:normal;font-variant:normal;font-weight:900;font-stretch:normal;font-size:15.2124px;font-family:Raleway;-inkscape-font-specification:'Raleway, Heavy';font-variant-ligatures:normal;font-variant-caps:normal;font-variant-numeric:normal;font-variant-east-asian:normal;text-align:center;text-anchor:middle;fill:#ffffff;fill-opacity:1;stroke-width:0.692708"
             id="path17140" />
          <path
             d="m 2704.734,877.82529 2.1145,7.07377 2.0841,-7.07377 h 3.1185 l -3.9704,10.80081 h -2.4644 l -4.0161,-10.80081 z"
             style="font-style:normal;font-variant:normal;font-weight:900;font-stretch:normal;font-size:15.2124px;font-family:Raleway;-inkscape-font-specification:'Raleway, Heavy';font-variant-ligatures:normal;font-variant-caps:normal;font-variant-numeric:normal;font-variant-east-asian:normal;text-align:center;text-anchor:middle;fill:#ffffff;fill-opacity:1;stroke-width:0.692708"
             id="path17142" />
          <path
             d="m 2712.8726,888.6261 v -10.80081 h 4.9592 q 0.7911,0 1.4604,0.33468 0.6694,0.31946 1.141,0.85189 0.4868,0.51722 0.7606,1.20178 0.2738,0.66935 0.2738,1.3539 0,0.94317 -0.4107,1.76464 -0.4108,0.80626 -1.141,1.32348 l 2.2819,3.97044 h -3.3467 l -1.9016,-3.3163 h -1.1105 v 3.3163 z m 2.9664,-5.90241 h 1.8711 q 0.2739,0 0.502,-0.30425 0.2434,-0.30425 0.2434,-0.8519 0,-0.56285 -0.2738,-0.85189 -0.2738,-0.30425 -0.5476,-0.30425 h -1.7951 z"
             style="font-style:normal;font-variant:normal;font-weight:900;font-stretch:normal;font-size:15.2124px;font-family:Raleway;-inkscape-font-specification:'Raleway, Heavy';font-variant-ligatures:normal;font-variant-caps:normal;font-variant-numeric:normal;font-variant-east-asian:normal;text-align:center;text-anchor:middle;fill:#ffffff;fill-opacity:1;stroke-width:0.692708"
             id="path17144" />
          <path
             d="m 2730.8384,886.03999 v 2.58611 h -7.6975 v -10.80081 h 7.5606 v 2.58611 h -4.5941 v 1.52124 h 3.9248 v 2.40356 h -3.9248 v 1.70379 z"
             style="font-style:normal;font-variant:normal;font-weight:900;font-stretch:normal;font-size:15.2124px;font-family:Raleway;-inkscape-font-specification:'Raleway, Heavy';font-variant-ligatures:normal;font-variant-caps:normal;font-variant-numeric:normal;font-variant-east-asian:normal;text-align:center;text-anchor:middle;fill:#ffffff;fill-opacity:1;stroke-width:0.692708"
             id="path17146" />
          <path
             d="m 2738.7641,881.35457 q -0.4564,-0.27382 -0.9432,-0.4868 -0.4107,-0.18254 -0.928,-0.33467 -0.502,-0.16733 -0.9888,-0.16733 -0.3955,0 -0.6389,0.12169 -0.2282,0.1217 -0.2282,0.41074 0,0.21297 0.1369,0.34988 0.1369,0.13692 0.3956,0.25862 0.2586,0.10648 0.6237,0.21297 0.3803,0.10649 0.8519,0.25861 0.7454,0.22819 1.3386,0.50201 0.6085,0.27382 1.0345,0.65413 0.4259,0.3651 0.6541,0.89753 0.2282,0.53244 0.2282,1.29306 0,0.97359 -0.3651,1.64294 -0.3499,0.65413 -0.9432,1.04965 -0.578,0.39553 -1.3234,0.57807 -0.7302,0.16734 -1.4756,0.16734 -0.5933,0 -1.217,-0.0913 -0.6237,-0.0913 -1.2474,-0.25861 -0.6085,-0.16734 -1.1866,-0.39553 -0.5629,-0.22818 -1.0497,-0.51722 l 1.2779,-2.60132 q 0.5324,0.33467 1.1105,0.59328 0.4868,0.22819 1.0953,0.41074 0.6237,0.18255 1.2626,0.18255 0.4868,0 0.6693,-0.1217 0.1978,-0.13691 0.1978,-0.34989 0,-0.22818 -0.1978,-0.38031 -0.1825,-0.16733 -0.5172,-0.28903 -0.3347,-0.1217 -0.7758,-0.2434 -0.426,-0.1217 -0.9128,-0.28904 -0.7149,-0.24339 -1.2322,-0.51722 -0.5172,-0.28903 -0.8519,-0.63892 -0.3346,-0.3651 -0.502,-0.82147 -0.1521,-0.45637 -0.1521,-1.04965 0,-0.89754 0.3195,-1.58209 0.3346,-0.68456 0.8975,-1.14093 0.5629,-0.45638 1.2778,-0.68456 0.7302,-0.2434 1.5365,-0.2434 0.5933,0 1.1561,0.1217 0.5629,0.10649 1.0801,0.28903 0.5325,0.16734 0.9888,0.38031 0.4564,0.19777 0.8215,0.38031 z"
             style="font-style:normal;font-variant:normal;font-weight:900;font-stretch:normal;font-size:15.2124px;font-family:Raleway;-inkscape-font-specification:'Raleway, Heavy';font-variant-ligatures:normal;font-variant-caps:normal;font-variant-numeric:normal;font-variant-east-asian:normal;text-align:center;text-anchor:middle;fill:#ffffff;fill-opacity:1;stroke-width:0.692708"
             id="path17148" />
        </g>
      </g>
    </g>
  </g>
</svg>
