<?xml version="1.0" encoding="UTF-8" standalone="no"?>
<svg
   xmlns:dc="http://purl.org/dc/elements/1.1/"
   xmlns:cc="http://creativecommons.org/ns#"
   xmlns:rdf="http://www.w3.org/1999/02/22-rdf-syntax-ns#"
   xmlns:svg="http://www.w3.org/2000/svg"
   xmlns="http://www.w3.org/2000/svg"
   xmlns:sodipodi="http://sodipodi.sourceforge.net/DTD/sodipodi-0.dtd"
   xmlns:inkscape="http://www.inkscape.org/namespaces/inkscape"
   width="300"
   height="150"
   viewBox="0 0 79.374998 39.687501"
   version="1.1"
   id="svg10887"
   inkscape:version="1.0.2-2 (e86c870879, 2021-01-15)"
   sodipodi:docname="ico_cards-8.svg">
  <defs
     id="defs10881" />
  <sodipodi:namedview
     id="base"
     pagecolor="#ffffff"
     bordercolor="#666666"
     borderopacity="1.0"
     inkscape:pageopacity="0.0"
     inkscape:pageshadow="2"
     inkscape:zoom="1.4"
     inkscape:cx="121.2368"
     inkscape:cy="60.911434"
     inkscape:document-units="mm"
     inkscape:current-layer="layer2"
     inkscape:document-rotation="0"
     showgrid="false"
     units="px"
     inkscape:window-width="1600"
     inkscape:window-height="837"
     inkscape:window-x="1358"
     inkscape:window-y="-8"
     inkscape:window-maximized="1" />
  <metadata
     id="metadata10884">
    <rdf:RDF>
      <cc:Work
         rdf:about="">
        <dc:format>image/svg+xml</dc:format>
        <dc:type
           rdf:resource="http://purl.org/dc/dcmitype/StillImage" />
        <dc:title></dc:title>
      </cc:Work>
    </rdf:RDF>
  </metadata>
  <g
     inkscape:groupmode="layer"
     id="layer2"
     inkscape:label="LOGO 2"
     style="display:inline">
    <g
       id="g12024"
       transform="translate(-54.517612,-55.330164)"
       style="fill:#ffffff">
      <g
         id="g9698"
         transform="matrix(1.1061058,0,0,1.1061058,-3005.0841,-317.05434)"
         inkscape:export-xdpi="150"
         inkscape:export-ydpi="150"
         style="fill:#ffffff">
        <g
           aria-label="UDI"
           transform="scale(0.96812779,1.0329215)"
           id="text9682"
           style="font-style:normal;font-variant:normal;font-weight:normal;font-stretch:normal;font-size:12.7857px;line-height:1.25;font-family:Raleway;-inkscape-font-specification:'Raleway, Normal';font-variant-ligatures:normal;font-variant-caps:normal;font-variant-numeric:normal;font-variant-east-asian:normal;fill:#ffffff;fill-opacity:1;stroke:none;stroke-width:0.582206">
          <path
             d="m 2866.5058,354.92835 q 0.8566,0 1.4192,-0.31964 0.5753,-0.33243 0.9078,-0.85664 0.3452,-0.537 0.473,-1.21464 0.1407,-0.67765 0.1407,-1.36807 v -4.57729 h 0.895 v 4.57729 q 0,0.92057 -0.2046,1.75164 -0.2046,0.81828 -0.6648,1.44478 -0.4475,0.6265 -1.1763,0.99729 -0.7288,0.37078 -1.7772,0.37078 -1.074,0 -1.8156,-0.38357 -0.7288,-0.39636 -1.1763,-1.03564 -0.4475,-0.63929 -0.6393,-1.45757 -0.1918,-0.81829 -0.1918,-1.68771 v -4.57729 h 0.8822 v 4.57729 q 0,0.71599 0.1407,1.39364 0.1406,0.67764 0.4731,1.20185 0.3452,0.52422 0.9077,0.84386 0.5626,0.31964 1.4065,0.31964 z"
             style="font-style:normal;font-variant:normal;font-weight:normal;font-stretch:normal;font-size:12.7857px;font-family:Raleway;-inkscape-font-specification:'Raleway, Normal';font-variant-ligatures:normal;font-variant-caps:normal;font-variant-numeric:normal;font-variant-east-asian:normal;text-align:center;text-anchor:middle;fill:#ffffff;fill-opacity:1;stroke-width:0.582206"
             id="path12875" />
          <path
             d="m 2872.4767,355.66992 v -9.07785 h 3.0813 q 1.0868,0 1.8923,0.358 0.8183,0.358 1.3553,0.97172 0.5498,0.61371 0.8183,1.44478 0.2813,0.81829 0.2813,1.75164 0,1.03564 -0.3069,1.8795 -0.3068,0.83107 -0.8822,1.432 -0.5626,0.58814 -1.3681,0.92057 -0.7927,0.31964 -1.79,0.31964 z m 6.5335,-4.55171 q 0,-0.81828 -0.2302,-1.49592 -0.2301,-0.69043 -0.6776,-1.18907 -0.4347,-0.49865 -1.074,-0.76715 -0.6393,-0.28128 -1.4704,-0.28128 h -2.1863 v 7.49242 h 2.1863 q 0.8439,0 1.4832,-0.28129 0.652,-0.29407 1.0868,-0.79271 0.4347,-0.51143 0.652,-1.18907 0.2302,-0.69043 0.2302,-1.49593 z"
             style="font-style:normal;font-variant:normal;font-weight:normal;font-stretch:normal;font-size:12.7857px;font-family:Raleway;-inkscape-font-specification:'Raleway, Normal';font-variant-ligatures:normal;font-variant-caps:normal;font-variant-numeric:normal;font-variant-east-asian:normal;text-align:center;text-anchor:middle;fill:#ffffff;fill-opacity:1;stroke-width:0.582206"
             id="path12877" />
          <path
             d="m 2881.6184,355.66992 v -9.07785 h 0.895 v 9.07785 z"
             style="font-style:normal;font-variant:normal;font-weight:normal;font-stretch:normal;font-size:12.7857px;font-family:Raleway;-inkscape-font-specification:'Raleway, Normal';font-variant-ligatures:normal;font-variant-caps:normal;font-variant-numeric:normal;font-variant-east-asian:normal;text-align:center;text-anchor:middle;fill:#ffffff;fill-opacity:1;stroke-width:0.582206"
             id="path12879" />
        </g>
        <g
           id="g9692"
           transform="matrix(1.2664086,0,0,1.2664086,-736.61185,-102.59759)"
           style="fill:#ffffff">
          <g
             aria-label="UNIDADES DE"
             id="text9686"
             style="font-style:normal;font-variant:normal;font-weight:normal;font-stretch:normal;font-size:4.39639px;line-height:1.25;font-family:Raleway;-inkscape-font-specification:'Raleway, Normal';font-variant-ligatures:normal;font-variant-caps:normal;font-variant-numeric:normal;font-variant-east-asian:normal;fill:#ffffff;fill-opacity:1;stroke:none;stroke-width:0.289228">
            <path
               d="m 2789.2499,366.15269 q 0.2946,0 0.488,-0.10991 0.1979,-0.1143 0.3122,-0.29455 0.1187,-0.18465 0.1626,-0.41766 0.048,-0.23301 0.048,-0.47041 v -1.57391 h 0.3078 v 1.57391 q 0,0.31654 -0.07,0.6023 -0.07,0.28137 -0.2286,0.49679 -0.1539,0.21543 -0.4045,0.34292 -0.2506,0.1275 -0.6111,0.1275 -0.3693,0 -0.6243,-0.1319 -0.2505,-0.13628 -0.4044,-0.3561 -0.1539,-0.21982 -0.2198,-0.50119 -0.066,-0.28137 -0.066,-0.58032 v -1.57391 h 0.3034 v 1.57391 q 0,0.24619 0.048,0.4792 0.048,0.23301 0.1627,0.41326 0.1187,0.18025 0.3121,0.29016 0.1935,0.10991 0.4836,0.10991 z"
               style="font-style:normal;font-variant:normal;font-weight:normal;font-stretch:normal;font-size:4.39639px;font-family:Raleway;-inkscape-font-specification:'Raleway, Normal';font-variant-ligatures:normal;font-variant-caps:normal;font-variant-numeric:normal;font-variant-east-asian:normal;text-align:center;text-anchor:middle;fill:#ffffff;fill-opacity:1;stroke-width:0.289228"
               id="path12882" />
            <path
               d="m 2791.6108,363.85778 v 2.5499 h -0.3078 v -3.12143 h 0.2375 l 2.0663,2.59826 v -2.59387 h 0.3077 v 3.11704 h -0.2682 z"
               style="font-style:normal;font-variant:normal;font-weight:normal;font-stretch:normal;font-size:4.39639px;font-family:Raleway;-inkscape-font-specification:'Raleway, Normal';font-variant-ligatures:normal;font-variant-caps:normal;font-variant-numeric:normal;font-variant-east-asian:normal;text-align:center;text-anchor:middle;fill:#ffffff;fill-opacity:1;stroke-width:0.289228"
               id="path12884" />
            <path
               d="m 2794.6971,366.40768 v -3.12143 h 0.3077 v 3.12143 z"
               style="font-style:normal;font-variant:normal;font-weight:normal;font-stretch:normal;font-size:4.39639px;font-family:Raleway;-inkscape-font-specification:'Raleway, Normal';font-variant-ligatures:normal;font-variant-caps:normal;font-variant-numeric:normal;font-variant-east-asian:normal;text-align:center;text-anchor:middle;fill:#ffffff;fill-opacity:1;stroke-width:0.289228"
               id="path12886" />
            <path
               d="m 2795.7874,366.40768 v -3.12143 h 1.0595 q 0.3737,0 0.6507,0.1231 0.2813,0.1231 0.466,0.33412 0.189,0.21103 0.2813,0.49679 0.097,0.28137 0.097,0.60231 0,0.35611 -0.1056,0.64627 -0.1055,0.28576 -0.3033,0.49239 -0.1934,0.20224 -0.4704,0.31654 -0.2726,0.10991 -0.6155,0.10991 z m 2.2465,-1.56511 q 0,-0.28137 -0.079,-0.51438 -0.079,-0.2374 -0.233,-0.40886 -0.1495,-0.17146 -0.3693,-0.26379 -0.2198,-0.0967 -0.5056,-0.0967 h -0.7518 v 2.57629 h 0.7518 q 0.2902,0 0.51,-0.0967 0.2242,-0.10112 0.3737,-0.27258 0.1494,-0.17585 0.2242,-0.40886 0.079,-0.23741 0.079,-0.51438 z"
               style="font-style:normal;font-variant:normal;font-weight:normal;font-stretch:normal;font-size:4.39639px;font-family:Raleway;-inkscape-font-specification:'Raleway, Normal';font-variant-ligatures:normal;font-variant-caps:normal;font-variant-numeric:normal;font-variant-east-asian:normal;text-align:center;text-anchor:middle;fill:#ffffff;fill-opacity:1;stroke-width:0.289228"
               id="path12888" />
            <path
               d="m 2799.7881,363.28625 h 0.2593 l 1.297,3.12143 h -0.3253 l -0.4045,-0.97599 h -1.4025 l -0.4,0.97599 h -0.3298 z m 0.7561,1.90363 -0.6286,-1.54313 -0.6375,1.54313 z"
               style="font-style:normal;font-variant:normal;font-weight:normal;font-stretch:normal;font-size:4.39639px;font-family:Raleway;-inkscape-font-specification:'Raleway, Normal';font-variant-ligatures:normal;font-variant-caps:normal;font-variant-numeric:normal;font-variant-east-asian:normal;text-align:center;text-anchor:middle;fill:#ffffff;fill-opacity:1;stroke-width:0.289228"
               id="path12890" />
            <path
               d="m 2801.7928,366.40768 v -3.12143 h 1.0595 q 0.3737,0 0.6507,0.1231 0.2814,0.1231 0.466,0.33412 0.1891,0.21103 0.2814,0.49679 0.097,0.28137 0.097,0.60231 0,0.35611 -0.1055,0.64627 -0.1055,0.28576 -0.3034,0.49239 -0.1934,0.20224 -0.4704,0.31654 -0.2725,0.10991 -0.6155,0.10991 z m 2.2466,-1.56511 q 0,-0.28137 -0.079,-0.51438 -0.079,-0.2374 -0.233,-0.40886 -0.1495,-0.17146 -0.3693,-0.26379 -0.2198,-0.0967 -0.5056,-0.0967 h -0.7517 v 2.57629 h 0.7517 q 0.2902,0 0.51,-0.0967 0.2242,-0.10112 0.3737,-0.27258 0.1495,-0.17585 0.2242,-0.40886 0.079,-0.23741 0.079,-0.51438 z"
               style="font-style:normal;font-variant:normal;font-weight:normal;font-stretch:normal;font-size:4.39639px;font-family:Raleway;-inkscape-font-specification:'Raleway, Normal';font-variant-ligatures:normal;font-variant-caps:normal;font-variant-numeric:normal;font-variant-east-asian:normal;text-align:center;text-anchor:middle;fill:#ffffff;fill-opacity:1;stroke-width:0.289228"
               id="path12892" />
            <path
               d="m 2807.0333,366.13511 v 0.27257 h -2.0971 v -3.12143 h 2.0575 v 0.27257 h -1.7497 v 1.12548 h 1.5255 v 0.25939 h -1.5255 v 1.19142 z"
               style="font-style:normal;font-variant:normal;font-weight:normal;font-stretch:normal;font-size:4.39639px;font-family:Raleway;-inkscape-font-specification:'Raleway, Normal';font-variant-ligatures:normal;font-variant-caps:normal;font-variant-numeric:normal;font-variant-east-asian:normal;text-align:center;text-anchor:middle;fill:#ffffff;fill-opacity:1;stroke-width:0.289228"
               id="path12894" />
            <path
               d="m 2809.3722,363.87097 q -0.1319,-0.14948 -0.3517,-0.2418 -0.2199,-0.0923 -0.5012,-0.0923 -0.4133,0 -0.6023,0.15827 -0.1891,0.15388 -0.1891,0.42206 0,0.14068 0.048,0.233 0.053,0.0879 0.1582,0.15388 0.1056,0.0659 0.2682,0.1143 0.1671,0.0484 0.3913,0.0967 0.2506,0.0528 0.4484,0.11871 0.2023,0.0659 0.343,0.16706 0.1406,0.0967 0.2154,0.2374 0.075,0.14069 0.075,0.35172 0,0.21542 -0.083,0.37369 -0.084,0.15827 -0.233,0.26378 -0.1495,0.10552 -0.3561,0.15827 -0.2067,0.0484 -0.4529,0.0484 -0.7254,0 -1.2529,-0.45283 l 0.1538,-0.25059 q 0.084,0.0879 0.1979,0.16706 0.1187,0.0791 0.2594,0.14069 0.1451,0.0572 0.3077,0.0923 0.1627,0.0308 0.3429,0.0308 0.3737,0 0.5804,-0.1319 0.211,-0.13628 0.211,-0.40886 0,-0.14508 -0.062,-0.2418 -0.057,-0.10112 -0.1758,-0.17146 -0.1187,-0.0747 -0.2946,-0.1275 -0.1758,-0.0528 -0.4088,-0.10551 -0.2462,-0.0572 -0.4309,-0.1187 -0.1846,-0.0615 -0.3121,-0.15387 -0.1275,-0.0923 -0.1935,-0.21982 -0.062,-0.1319 -0.062,-0.32094 0,-0.21542 0.079,-0.38249 0.084,-0.17146 0.233,-0.28137 0.1495,-0.1143 0.3517,-0.17146 0.2023,-0.0615 0.4485,-0.0615 0.3121,0 0.5539,0.0967 0.2462,0.0923 0.444,0.26378 z"
               style="font-style:normal;font-variant:normal;font-weight:normal;font-stretch:normal;font-size:4.39639px;font-family:Raleway;-inkscape-font-specification:'Raleway, Normal';font-variant-ligatures:normal;font-variant-caps:normal;font-variant-numeric:normal;font-variant-east-asian:normal;text-align:center;text-anchor:middle;fill:#ffffff;fill-opacity:1;stroke-width:0.289228"
               id="path12896" />
            <path
               d="m 2811.3373,366.40768 v -3.12143 h 1.0596 q 0.3737,0 0.6506,0.1231 0.2814,0.1231 0.4661,0.33412 0.189,0.21103 0.2813,0.49679 0.097,0.28137 0.097,0.60231 0,0.35611 -0.1055,0.64627 -0.1055,0.28576 -0.3033,0.49239 -0.1935,0.20224 -0.4704,0.31654 -0.2726,0.10991 -0.6155,0.10991 z m 2.2466,-1.56511 q 0,-0.28137 -0.079,-0.51438 -0.079,-0.2374 -0.233,-0.40886 -0.1495,-0.17146 -0.3693,-0.26379 -0.2199,-0.0967 -0.5056,-0.0967 h -0.7518 v 2.57629 h 0.7518 q 0.2901,0 0.51,-0.0967 0.2242,-0.10112 0.3736,-0.27258 0.1495,-0.17585 0.2243,-0.40886 0.079,-0.23741 0.079,-0.51438 z"
               style="font-style:normal;font-variant:normal;font-weight:normal;font-stretch:normal;font-size:4.39639px;font-family:Raleway;-inkscape-font-specification:'Raleway, Normal';font-variant-ligatures:normal;font-variant-caps:normal;font-variant-numeric:normal;font-variant-east-asian:normal;text-align:center;text-anchor:middle;fill:#ffffff;fill-opacity:1;stroke-width:0.289228"
               id="path12898" />
            <path
               d="m 2816.5778,366.13511 v 0.27257 h -2.097 v -3.12143 h 2.0575 v 0.27257 h -1.7498 v 1.12548 h 1.5256 v 0.25939 h -1.5256 v 1.19142 z"
               style="font-style:normal;font-variant:normal;font-weight:normal;font-stretch:normal;font-size:4.39639px;font-family:Raleway;-inkscape-font-specification:'Raleway, Normal';font-variant-ligatures:normal;font-variant-caps:normal;font-variant-numeric:normal;font-variant-east-asian:normal;text-align:center;text-anchor:middle;fill:#ffffff;fill-opacity:1;stroke-width:0.289228"
               id="path12900" />
          </g>
          <g
             aria-label="IDIOMAS SATC"
             id="text9690"
             style="font-style:normal;font-variant:normal;font-weight:normal;font-stretch:normal;font-size:4.39639px;line-height:1.25;font-family:Raleway;-inkscape-font-specification:'Raleway, Normal';font-variant-ligatures:normal;font-variant-caps:normal;font-variant-numeric:normal;font-variant-east-asian:normal;fill:#ffffff;fill-opacity:1;stroke:none;stroke-width:0.289228">
            <path
               d="m 2788.1069,370.80408 v -3.12144 h 0.3077 v 3.12144 z"
               style="font-style:normal;font-variant:normal;font-weight:normal;font-stretch:normal;font-size:4.39639px;font-family:Raleway;-inkscape-font-specification:'Raleway, Normal';font-variant-ligatures:normal;font-variant-caps:normal;font-variant-numeric:normal;font-variant-east-asian:normal;text-align:center;text-anchor:middle;fill:#ffffff;fill-opacity:1;stroke-width:0.289228"
               id="path12903" />
            <path
               d="m 2789.1972,370.80408 v -3.12144 h 1.0595 q 0.3737,0 0.6507,0.1231 0.2814,0.1231 0.466,0.33412 0.1891,0.21103 0.2814,0.4968 0.097,0.28137 0.097,0.6023 0,0.35611 -0.1055,0.64627 -0.1055,0.28577 -0.3034,0.4924 -0.1934,0.20223 -0.4704,0.31654 -0.2726,0.10991 -0.6155,0.10991 z m 2.2466,-1.56512 q 0,-0.28137 -0.079,-0.51438 -0.079,-0.2374 -0.233,-0.40886 -0.1495,-0.17146 -0.3693,-0.26378 -0.2198,-0.0967 -0.5056,-0.0967 h -0.7518 v 2.57628 h 0.7518 q 0.2902,0 0.51,-0.0967 0.2242,-0.10112 0.3737,-0.27258 0.1495,-0.17585 0.2242,-0.40886 0.079,-0.23741 0.079,-0.51438 z"
               style="font-style:normal;font-variant:normal;font-weight:normal;font-stretch:normal;font-size:4.39639px;font-family:Raleway;-inkscape-font-specification:'Raleway, Normal';font-variant-ligatures:normal;font-variant-caps:normal;font-variant-numeric:normal;font-variant-east-asian:normal;text-align:center;text-anchor:middle;fill:#ffffff;fill-opacity:1;stroke-width:0.289228"
               id="path12905" />
            <path
               d="m 2792.3406,370.80408 v -3.12144 h 0.3078 v 3.12144 z"
               style="font-style:normal;font-variant:normal;font-weight:normal;font-stretch:normal;font-size:4.39639px;font-family:Raleway;-inkscape-font-specification:'Raleway, Normal';font-variant-ligatures:normal;font-variant-caps:normal;font-variant-numeric:normal;font-variant-east-asian:normal;text-align:center;text-anchor:middle;fill:#ffffff;fill-opacity:1;stroke-width:0.289228"
               id="path12907" />
            <path
               d="m 2794.6883,370.82606 q -0.3254,0 -0.5979,-0.13189 -0.2682,-0.13629 -0.4617,-0.35611 -0.1934,-0.22422 -0.2989,-0.50998 -0.1055,-0.28577 -0.1055,-0.58472 0,-0.31214 0.1099,-0.59791 0.1143,-0.28577 0.3121,-0.50559 0.1979,-0.21981 0.4661,-0.34731 0.2681,-0.13189 0.5803,-0.13189 0.3253,0 0.5935,0.14068 0.2726,0.13629 0.4616,0.36051 0.1934,0.22421 0.299,0.50998 0.1055,0.28137 0.1055,0.57593 0,0.31214 -0.1143,0.5979 -0.1099,0.28577 -0.3078,0.50559 -0.1934,0.21542 -0.4616,0.34731 -0.2682,0.1275 -0.5803,0.1275 z m -1.1563,-1.5827 q 0,0.25499 0.084,0.49239 0.083,0.23301 0.2374,0.41766 0.1538,0.18025 0.3649,0.29016 0.211,0.10552 0.4704,0.10552 0.2638,0 0.4792,-0.11431 0.2154,-0.11431 0.3649,-0.29895 0.1495,-0.18465 0.2286,-0.41766 0.084,-0.23301 0.084,-0.47481 0,-0.25499 -0.088,-0.488 -0.084,-0.23741 -0.2374,-0.41766 -0.1539,-0.18025 -0.3649,-0.28576 -0.211,-0.10991 -0.466,-0.10991 -0.2638,0 -0.4792,0.1143 -0.2155,0.10991 -0.3649,0.29456 -0.1495,0.18465 -0.233,0.41766 -0.079,0.23301 -0.079,0.47481 z"
               style="font-style:normal;font-variant:normal;font-weight:normal;font-stretch:normal;font-size:4.39639px;font-family:Raleway;-inkscape-font-specification:'Raleway, Normal';font-variant-ligatures:normal;font-variant-caps:normal;font-variant-numeric:normal;font-variant-east-asian:normal;text-align:center;text-anchor:middle;fill:#ffffff;fill-opacity:1;stroke-width:0.289228"
               id="path12909" />
            <path
               d="m 2799.4979,370.80408 v -2.5631 l -1.1386,1.98277 h -0.1803 l -1.1387,-1.98277 v 2.5631 h -0.3077 v -3.12144 h 0.3165 l 1.2178,2.13665 1.2266,-2.13665 h 0.3122 v 3.12144 z"
               style="font-style:normal;font-variant:normal;font-weight:normal;font-stretch:normal;font-size:4.39639px;font-family:Raleway;-inkscape-font-specification:'Raleway, Normal';font-variant-ligatures:normal;font-variant-caps:normal;font-variant-numeric:normal;font-variant-east-asian:normal;text-align:center;text-anchor:middle;fill:#ffffff;fill-opacity:1;stroke-width:0.289228"
               id="path12911" />
            <path
               d="m 2801.5554,367.68264 h 0.2594 l 1.297,3.12144 h -0.3254 l -0.4044,-0.976 h -1.4025 l -0.4001,0.976 h -0.3297 z m 0.7562,1.90364 -0.6287,-1.54314 -0.6374,1.54314 z"
               style="font-style:normal;font-variant:normal;font-weight:normal;font-stretch:normal;font-size:4.39639px;font-family:Raleway;-inkscape-font-specification:'Raleway, Normal';font-variant-ligatures:normal;font-variant-caps:normal;font-variant-numeric:normal;font-variant-east-asian:normal;text-align:center;text-anchor:middle;fill:#ffffff;fill-opacity:1;stroke-width:0.289228"
               id="path12913" />
            <path
               d="m 2805.3363,368.26736 q -0.1319,-0.14948 -0.3517,-0.2418 -0.2198,-0.0923 -0.5012,-0.0923 -0.4132,0 -0.6023,0.15827 -0.189,0.15388 -0.189,0.42206 0,0.14068 0.048,0.23301 0.053,0.0879 0.1583,0.15387 0.1055,0.0659 0.2682,0.11431 0.167,0.0484 0.3913,0.0967 0.2505,0.0528 0.4484,0.1187 0.2022,0.0659 0.3429,0.16706 0.1407,0.0967 0.2154,0.23741 0.075,0.14068 0.075,0.35171 0,0.21542 -0.084,0.37369 -0.083,0.15827 -0.233,0.26379 -0.1495,0.10551 -0.3561,0.15827 -0.2066,0.0484 -0.4528,0.0484 -0.7254,0 -1.253,-0.45283 l 0.1539,-0.2506 q 0.083,0.0879 0.1978,0.16707 0.1187,0.0791 0.2594,0.14068 0.1451,0.0572 0.3078,0.0923 0.1626,0.0308 0.3429,0.0308 0.3737,0 0.5803,-0.13189 0.211,-0.13629 0.211,-0.40887 0,-0.14508 -0.061,-0.2418 -0.057,-0.10112 -0.1759,-0.17146 -0.1187,-0.0747 -0.2945,-0.12749 -0.1759,-0.0528 -0.4089,-0.10552 -0.2462,-0.0572 -0.4308,-0.1187 -0.1847,-0.0615 -0.3122,-0.15387 -0.1275,-0.0923 -0.1934,-0.21982 -0.062,-0.13189 -0.062,-0.32094 0,-0.21542 0.079,-0.38248 0.084,-0.17146 0.233,-0.28137 0.1494,-0.11431 0.3517,-0.17146 0.2022,-0.0616 0.4484,-0.0616 0.3122,0 0.554,0.0967 0.2462,0.0923 0.444,0.26378 z"
               style="font-style:normal;font-variant:normal;font-weight:normal;font-stretch:normal;font-size:4.39639px;font-family:Raleway;-inkscape-font-specification:'Raleway, Normal';font-variant-ligatures:normal;font-variant-caps:normal;font-variant-numeric:normal;font-variant-east-asian:normal;text-align:center;text-anchor:middle;fill:#ffffff;fill-opacity:1;stroke-width:0.289228"
               id="path12915" />
            <path
               d="m 2809.126,368.26736 q -0.1319,-0.14948 -0.3517,-0.2418 -0.2198,-0.0923 -0.5012,-0.0923 -0.4133,0 -0.6023,0.15827 -0.1891,0.15388 -0.1891,0.42206 0,0.14068 0.048,0.23301 0.053,0.0879 0.1583,0.15387 0.1055,0.0659 0.2682,0.11431 0.167,0.0484 0.3912,0.0967 0.2506,0.0528 0.4485,0.1187 0.2022,0.0659 0.3429,0.16706 0.1407,0.0967 0.2154,0.23741 0.075,0.14068 0.075,0.35171 0,0.21542 -0.083,0.37369 -0.084,0.15827 -0.233,0.26379 -0.1495,0.10551 -0.3561,0.15827 -0.2066,0.0484 -0.4528,0.0484 -0.7254,0 -1.253,-0.45283 l 0.1539,-0.2506 q 0.084,0.0879 0.1978,0.16707 0.1187,0.0791 0.2594,0.14068 0.1451,0.0572 0.3077,0.0923 0.1627,0.0308 0.343,0.0308 0.3737,0 0.5803,-0.13189 0.211,-0.13629 0.211,-0.40887 0,-0.14508 -0.061,-0.2418 -0.057,-0.10112 -0.1759,-0.17146 -0.1187,-0.0747 -0.2946,-0.12749 -0.1758,-0.0528 -0.4088,-0.10552 -0.2462,-0.0572 -0.4309,-0.1187 -0.1846,-0.0615 -0.3121,-0.15387 -0.1275,-0.0923 -0.1934,-0.21982 -0.062,-0.13189 -0.062,-0.32094 0,-0.21542 0.079,-0.38248 0.084,-0.17146 0.233,-0.28137 0.1495,-0.11431 0.3518,-0.17146 0.2022,-0.0616 0.4484,-0.0616 0.3121,0 0.5539,0.0967 0.2462,0.0923 0.4441,0.26378 z"
               style="font-style:normal;font-variant:normal;font-weight:normal;font-stretch:normal;font-size:4.39639px;font-family:Raleway;-inkscape-font-specification:'Raleway, Normal';font-variant-ligatures:normal;font-variant-caps:normal;font-variant-numeric:normal;font-variant-east-asian:normal;text-align:center;text-anchor:middle;fill:#ffffff;fill-opacity:1;stroke-width:0.289228"
               id="path12917" />
            <path
               d="m 2810.8845,367.68264 h 0.2594 l 1.297,3.12144 h -0.3254 l -0.4044,-0.976 h -1.4025 l -0.4001,0.976 h -0.3297 z m 0.7562,1.90364 -0.6287,-1.54314 -0.6374,1.54314 z"
               style="font-style:normal;font-variant:normal;font-weight:normal;font-stretch:normal;font-size:4.39639px;font-family:Raleway;-inkscape-font-specification:'Raleway, Normal';font-variant-ligatures:normal;font-variant-caps:normal;font-variant-numeric:normal;font-variant-east-asian:normal;text-align:center;text-anchor:middle;fill:#ffffff;fill-opacity:1;stroke-width:0.289228"
               id="path12919" />
            <path
               d="m 2814.7973,367.95522 h -1.1123 v 2.84886 h -0.3077 v -2.84886 h -1.1123 v -0.27258 h 2.5323 z"
               style="font-style:normal;font-variant:normal;font-weight:normal;font-stretch:normal;font-size:4.39639px;font-family:Raleway;-inkscape-font-specification:'Raleway, Normal';font-variant-ligatures:normal;font-variant-caps:normal;font-variant-numeric:normal;font-variant-east-asian:normal;text-align:center;text-anchor:middle;fill:#ffffff;fill-opacity:1;stroke-width:0.289228"
               id="path12921" />
            <path
               d="m 2814.9116,369.22138 q 0,-0.28137 0.097,-0.55834 0.1011,-0.28137 0.2902,-0.50119 0.189,-0.21982 0.466,-0.35611 0.277,-0.14069 0.6287,-0.14069 0.4176,0 0.7122,0.18905 0.299,0.18904 0.4396,0.4924 l -0.2418,0.14947 q -0.075,-0.15387 -0.1846,-0.25938 -0.1055,-0.10552 -0.2286,-0.17146 -0.1231,-0.0659 -0.255,-0.0923 -0.1319,-0.0308 -0.2594,-0.0308 -0.2814,0 -0.4968,0.1143 -0.2154,0.11431 -0.3649,0.29896 -0.1451,0.18465 -0.2198,0.41765 -0.075,0.22862 -0.075,0.46602 0,0.25939 0.088,0.49679 0.092,0.23741 0.2462,0.42206 0.1583,0.18025 0.3693,0.29016 0.2154,0.10551 0.466,0.10551 0.1319,0 0.2682,-0.0308 0.1407,-0.0352 0.2682,-0.10552 0.1318,-0.0747 0.2418,-0.18025 0.1099,-0.10991 0.1846,-0.26378 l 0.255,0.13189 q -0.075,0.17586 -0.211,0.31214 -0.1363,0.1319 -0.3034,0.22422 -0.167,0.0923 -0.3561,0.14069 -0.1846,0.0484 -0.3649,0.0484 -0.3209,0 -0.5891,-0.14069 -0.2682,-0.14068 -0.4616,-0.3649 -0.1935,-0.22861 -0.3034,-0.51438 -0.1055,-0.29016 -0.1055,-0.58911 z"
               style="font-style:normal;font-variant:normal;font-weight:normal;font-stretch:normal;font-size:4.39639px;font-family:Raleway;-inkscape-font-specification:'Raleway, Normal';font-variant-ligatures:normal;font-variant-caps:normal;font-variant-numeric:normal;font-variant-east-asian:normal;text-align:center;text-anchor:middle;fill:#ffffff;fill-opacity:1;stroke-width:0.289228"
               id="path12923" />
          </g>
        </g>
        <g
           aria-label="IDIOMAS"
           id="text9696"
           style="font-style:normal;font-variant:normal;font-weight:900;font-stretch:normal;font-size:15.8456px;line-height:1.25;font-family:Raleway;-inkscape-font-specification:'Raleway, Heavy';font-variant-ligatures:normal;font-variant-caps:normal;font-variant-numeric:normal;font-variant-east-asian:normal;fill:#ffffff;fill-opacity:1;stroke:none;stroke-width:0.721544">
          <path
             d="m 2769.1837,353.5061 v -11.25037 h 3.0899 v 11.25037 z"
             style="font-style:normal;font-variant:normal;font-weight:900;font-stretch:normal;font-size:15.8456px;font-family:Raleway;-inkscape-font-specification:'Raleway, Heavy';font-variant-ligatures:normal;font-variant-caps:normal;font-variant-numeric:normal;font-variant-east-asian:normal;text-align:center;text-anchor:middle;fill:#ffffff;fill-opacity:1;stroke-width:0.721544"
             id="path12860" />
          <path
             d="m 2774.2068,353.5061 v -11.25037 h 4.3258 q 1.3944,0 2.4561,0.44367 1.0616,0.44368 1.7747,1.20427 0.713,0.76059 1.0775,1.79055 0.3644,1.01412 0.3644,2.17085 0,1.28349 -0.412,2.3293 -0.3961,1.02997 -1.1408,1.77471 -0.7448,0.7289 -1.7906,1.14088 -1.0458,0.39614 -2.3293,0.39614 z m 6.8611,-5.64103 q 0,-0.64967 -0.1743,-1.18842 -0.1743,-0.53875 -0.5071,-0.91904 -0.3169,-0.3803 -0.7922,-0.58629 -0.4754,-0.22184 -1.0617,-0.22184 h -1.2359 v 5.86287 h 1.2359 q 0.6021,0 1.0775,-0.22184 0.4754,-0.22184 0.7923,-0.61798 0.3327,-0.39614 0.4912,-0.93489 0.1743,-0.53875 0.1743,-1.17257 z"
             style="font-style:normal;font-variant:normal;font-weight:900;font-stretch:normal;font-size:15.8456px;font-family:Raleway;-inkscape-font-specification:'Raleway, Heavy';font-variant-ligatures:normal;font-variant-caps:normal;font-variant-numeric:normal;font-variant-east-asian:normal;text-align:center;text-anchor:middle;fill:#ffffff;fill-opacity:1;stroke-width:0.721544"
             id="path12862" />
          <path
             d="m 2785.5522,353.5061 v -11.25037 h 3.0899 v 11.25037 z"
             style="font-style:normal;font-variant:normal;font-weight:900;font-stretch:normal;font-size:15.8456px;font-family:Raleway;-inkscape-font-specification:'Raleway, Heavy';font-variant-ligatures:normal;font-variant-caps:normal;font-variant-numeric:normal;font-variant-east-asian:normal;text-align:center;text-anchor:middle;fill:#ffffff;fill-opacity:1;stroke-width:0.721544"
             id="path12864" />
          <path
             d="m 2795.6458,353.60118 q -1.2835,0 -2.3293,-0.49122 -1.0458,-0.49121 -1.7905,-1.28349 -0.7448,-0.80813 -1.1567,-1.83809 -0.412,-1.02996 -0.412,-2.12331 0,-1.10919 0.4278,-2.13916 0.4278,-1.02996 1.1884,-1.80639 0.7765,-0.79228 1.8223,-1.25181 1.0616,-0.47536 2.3134,-0.47536 1.2835,0 2.3293,0.49121 1.0458,0.49121 1.7906,1.29934 0.7447,0.80812 1.1409,1.83809 0.412,1.02996 0.412,2.10746 0,1.10919 -0.4279,2.13916 -0.4278,1.01412 -1.1884,1.8064 -0.7606,0.77643 -1.8222,1.2518 -1.0459,0.47537 -2.2977,0.47537 z m -2.5511,-5.70442 q 0,0.57044 0.1585,1.10919 0.1584,0.52291 0.4753,0.93489 0.3169,0.41199 0.7923,0.66552 0.4912,0.25353 1.1567,0.25353 0.6655,0 1.1568,-0.25353 0.4912,-0.26938 0.7922,-0.68136 0.317,-0.42783 0.4596,-0.96658 0.1584,-0.53875 0.1584,-1.09335 0,-0.57044 -0.1584,-1.09335 -0.1585,-0.53875 -0.4912,-0.93489 -0.317,-0.41198 -0.8082,-0.64967 -0.4753,-0.25353 -1.125,-0.25353 -0.6655,0 -1.1567,0.25353 -0.4754,0.25353 -0.7923,0.68136 -0.3169,0.41199 -0.4754,0.95074 -0.1426,0.52291 -0.1426,1.0775 z"
             style="font-style:normal;font-variant:normal;font-weight:900;font-stretch:normal;font-size:15.8456px;font-family:Raleway;-inkscape-font-specification:'Raleway, Heavy';font-variant-ligatures:normal;font-variant-caps:normal;font-variant-numeric:normal;font-variant-east-asian:normal;text-align:center;text-anchor:middle;fill:#ffffff;fill-opacity:1;stroke-width:0.721544"
             id="path12866" />
          <path
             d="m 2811.2062,353.5061 v -5.92625 l -1.8856,4.16739 h -1.648 l -1.8856,-4.16739 v 5.92625 h -3.0899 v -11.25037 h 3.3751 l 2.4244,5.29243 2.4402,-5.29243 h 3.3593 v 11.25037 z"
             style="font-style:normal;font-variant:normal;font-weight:900;font-stretch:normal;font-size:15.8456px;font-family:Raleway;-inkscape-font-specification:'Raleway, Heavy';font-variant-ligatures:normal;font-variant-caps:normal;font-variant-numeric:normal;font-variant-east-asian:normal;text-align:center;text-anchor:middle;fill:#ffffff;fill-opacity:1;stroke-width:0.721544"
             id="path12868" />
          <path
             d="m 2819.1448,342.25573 h 2.8205 l 3.8981,11.25037 h -3.1375 l -0.6813,-2.20253 h -2.9948 l -0.6656,2.20253 h -3.1532 z m 2.4086,6.98791 -0.9983,-3.48603 -1.0458,3.48603 z"
             style="font-style:normal;font-variant:normal;font-weight:900;font-stretch:normal;font-size:15.8456px;font-family:Raleway;-inkscape-font-specification:'Raleway, Heavy';font-variant-ligatures:normal;font-variant-caps:normal;font-variant-numeric:normal;font-variant-east-asian:normal;text-align:center;text-anchor:middle;fill:#ffffff;fill-opacity:1;stroke-width:0.721544"
             id="path12870" />
          <path
             d="m 2833.4851,345.93191 q -0.4754,-0.28522 -0.9825,-0.50706 -0.4278,-0.19015 -0.9665,-0.34861 -0.5229,-0.1743 -1.03,-0.1743 -0.412,0 -0.6655,0.12677 -0.2377,0.12676 -0.2377,0.42783 0,0.22184 0.1426,0.36445 0.1426,0.14261 0.412,0.26937 0.2694,0.11092 0.6497,0.22184 0.3961,0.11092 0.8873,0.26938 0.7765,0.23768 1.3944,0.5229 0.6339,0.28522 1.0775,0.68136 0.4437,0.3803 0.6814,0.93489 0.2377,0.5546 0.2377,1.34688 0,1.01412 -0.3803,1.71132 -0.3645,0.68136 -0.9824,1.09335 -0.6022,0.41199 -1.3786,0.60213 -0.7606,0.1743 -1.537,0.1743 -0.618,0 -1.2677,-0.0951 -0.6497,-0.0951 -1.2993,-0.26937 -0.6338,-0.17431 -1.236,-0.41199 -0.5863,-0.23768 -1.0933,-0.53875 l 1.331,-2.7096 q 0.5546,0.3486 1.1567,0.61798 0.5071,0.23768 1.1409,0.42783 0.6497,0.19015 1.3152,0.19015 0.5071,0 0.6972,-0.12677 0.206,-0.14261 0.206,-0.36445 0,-0.23768 -0.206,-0.39614 -0.1901,-0.1743 -0.5387,-0.30106 -0.3486,-0.12677 -0.8082,-0.25353 -0.4436,-0.12677 -0.9507,-0.30107 -0.7447,-0.25353 -1.2835,-0.53875 -0.5387,-0.30106 -0.8873,-0.66551 -0.3487,-0.3803 -0.523,-0.85567 -0.1584,-0.47536 -0.1584,-1.09334 0,-0.93489 0.3327,-1.64794 0.3487,-0.71306 0.9349,-1.18842 0.5863,-0.47537 1.3311,-0.71306 0.7606,-0.25353 1.6004,-0.25353 0.618,0 1.2042,0.12677 0.5863,0.11092 1.1251,0.30107 0.5546,0.1743 1.0299,0.39614 0.4754,0.20599 0.8557,0.39614 z"
             style="font-style:normal;font-variant:normal;font-weight:900;font-stretch:normal;font-size:15.8456px;font-family:Raleway;-inkscape-font-specification:'Raleway, Heavy';font-variant-ligatures:normal;font-variant-caps:normal;font-variant-numeric:normal;font-variant-east-asian:normal;text-align:center;text-anchor:middle;fill:#ffffff;fill-opacity:1;stroke-width:0.721544"
             id="path12872" />
        </g>
      </g>
    </g>
  </g>
</svg>
