<?xml version="1.0" encoding="UTF-8" standalone="no"?>
<svg
   xmlns:dc="http://purl.org/dc/elements/1.1/"
   xmlns:cc="http://creativecommons.org/ns#"
   xmlns:rdf="http://www.w3.org/1999/02/22-rdf-syntax-ns#"
   xmlns:svg="http://www.w3.org/2000/svg"
   xmlns="http://www.w3.org/2000/svg"
   xmlns:sodipodi="http://sodipodi.sourceforge.net/DTD/sodipodi-0.dtd"
   xmlns:inkscape="http://www.inkscape.org/namespaces/inkscape"
   width="300"
   height="150"
   viewBox="0 0 79.374998 39.687501"
   version="1.1"
   id="svg10887"
   inkscape:version="1.0.2-2 (e86c870879, 2021-01-15)"
   sodipodi:docname="ico_siecesc.svg">
  <defs
     id="defs10881" />
  <sodipodi:namedview
     id="base"
     pagecolor="#ffffff"
     bordercolor="#666666"
     borderopacity="1.0"
     inkscape:pageopacity="0.0"
     inkscape:pageshadow="2"
     inkscape:zoom="0.98994949"
     inkscape:cx="138.49242"
     inkscape:cy="35.348124"
     inkscape:document-units="mm"
     inkscape:current-layer="g11817"
     inkscape:document-rotation="0"
     showgrid="false"
     units="px"
     inkscape:window-width="1600"
     inkscape:window-height="837"
     inkscape:window-x="1358"
     inkscape:window-y="-8"
     inkscape:window-maximized="1" />
  <metadata
     id="metadata10884">
    <rdf:RDF>
      <cc:Work
         rdf:about="">
        <dc:format>image/svg+xml</dc:format>
        <dc:type
           rdf:resource="http://purl.org/dc/dcmitype/StillImage" />
        <dc:title></dc:title>
      </cc:Work>
    </rdf:RDF>
  </metadata>
  <g
     inkscape:groupmode="layer"
     id="layer2"
     inkscape:label="LOGO 2"
     style="display:inline">
    <g
       id="g11817"
       style="fill:#ff00ff"
       transform="matrix(1.0537537,0,0,1.0537537,12.759213,-324.06938)">
      <g
         aria-label="SIECESC"
         transform="scale(0.96003573,1.0416279)"
         id="text10597"
         style="font-style:normal;font-variant:normal;font-weight:900;font-stretch:normal;font-size:17.8891px;line-height:1.25;font-family:Raleway;-inkscape-font-specification:'Raleway, Heavy';font-variant-ligatures:normal;font-variant-caps:normal;font-variant-numeric:normal;font-variant-east-asian:normal;fill:#ffffff;fill-opacity:1;stroke:none;stroke-width:0.814596">
        <path
           d="m -1.2765355,311.25547 q -0.536673,-0.32201 -1.1091242,-0.57245 -0.4830056,-0.21467 -1.091235,-0.39356 -0.5903403,-0.19678 -1.1627915,-0.19678 -0.4651165,0 -0.7513421,0.14311 -0.2683365,0.14311 -0.2683365,0.48301 0,0.25044 0.1610019,0.41144 0.1610019,0.16101 0.4651166,0.30412 0.3041147,0.12522 0.733453,0.25045 0.4472275,0.12522 1.0017896,0.30411 0.8765658,0.26834 1.5742407,0.59034 0.715564,0.32201 1.21645875,0.76923 0.50089477,0.42934 0.76923126,1.05546 0.26833649,0.62612 0.26833649,1.52057 0,1.14491 -0.42933838,1.93203 -0.41144928,0.76923 -1.10912412,1.23434 -0.6797858,0.46512 -1.5563517,0.67979 -0.8586767,0.19678 -1.7352426,0.19678 -0.6976748,0 -1.4311279,-0.10734 -0.7334531,-0.10733 -1.4669061,-0.30411 -0.715564,-0.19678 -1.3953498,-0.46512 -0.6618966,-0.26833 -1.2343478,-0.60823 l 1.5026843,-3.05903 q 0.6261185,0.39356 1.3059043,0.69767 0.5724511,0.26834 1.2880151,0.48301 0.7334531,0.21467 1.4847952,0.21467 0.5724512,0 0.7871204,-0.14311 0.2325583,-0.16101 0.2325583,-0.41145 0,-0.26834 -0.2325583,-0.44723 -0.2146692,-0.19678 -0.6082294,-0.33989 -0.3935602,-0.14312 -0.912344,-0.28623 -0.5008948,-0.14311 -1.073346,-0.33989 -0.8407876,-0.28623 -1.449017,-0.60823 -0.6082294,-0.3399 -1.0017896,-0.75134 -0.3935601,-0.42934 -0.5903402,-0.96602 -0.178891,-0.53667 -0.178891,-1.23434 0,-1.05546 0.3756711,-1.86047 0.3935601,-0.80501 1.0554568,-1.34168 0.6618967,-0.53668 1.5026843,-0.80501 0.8586768,-0.28623 1.806799,-0.28623 0.6976749,0 1.3595716,0.14312 0.6618966,0.12522 1.270126,0.33989 0.6261185,0.19678 1.16279146,0.44723 0.53667297,0.23255 0.96601135,0.44722 z"
           style="font-style:normal;font-variant:normal;font-weight:900;font-stretch:normal;font-size:17.8891px;font-family:Raleway;-inkscape-font-specification:'Raleway, Heavy';font-variant-ligatures:normal;font-variant-caps:normal;font-variant-numeric:normal;font-variant-east-asian:normal;text-align:center;text-anchor:middle;fill:#ffffff;fill-opacity:1;stroke-width:0.814596"
           id="path16892" />
        <path
           d="M 2.0687018,319.80646 V 307.1052 h 3.4883744 v 12.70126 z"
           style="font-style:normal;font-variant:normal;font-weight:900;font-stretch:normal;font-size:17.8891px;font-family:Raleway;-inkscape-font-specification:'Raleway, Heavy';font-variant-ligatures:normal;font-variant-caps:normal;font-variant-numeric:normal;font-variant-east-asian:normal;text-align:center;text-anchor:middle;fill:#ffffff;fill-opacity:1;stroke-width:0.814596"
           id="path16894" />
        <path
           d="m 16.791421,316.76531 v 3.04115 H 7.7395373 V 307.1052 H 16.63042 v 3.04114 h -5.402508 v 1.78891 h 4.615387 v 2.82648 h -4.615387 v 2.00358 z"
           style="font-style:normal;font-variant:normal;font-weight:900;font-stretch:normal;font-size:17.8891px;font-family:Raleway;-inkscape-font-specification:'Raleway, Heavy';font-variant-ligatures:normal;font-variant-caps:normal;font-variant-numeric:normal;font-variant-east-asian:normal;text-align:center;text-anchor:middle;fill:#ffffff;fill-opacity:1;stroke-width:0.814596"
           id="path16896" />
        <path
           d="m 17.524815,313.34849 q 0,-1.16279 0.429338,-2.2898 0.447227,-1.12702 1.288015,-2.02147 0.840788,-0.89446 2.039357,-1.44902 1.19857,-0.55456 2.737033,-0.55456 1.842577,0 3.184259,0.76923 1.359572,0.75134 2.021468,2.00358 l -2.665475,1.89625 q -0.178891,-0.46512 -0.483006,-0.76924 -0.286226,-0.30411 -0.644008,-0.483 -0.357782,-0.17889 -0.751342,-0.25045 -0.375671,-0.0716 -0.733453,-0.0716 -0.751342,0 -1.305904,0.30412 -0.536673,0.28623 -0.894455,0.76923 -0.339893,0.46512 -0.518784,1.07335 -0.161002,0.59034 -0.161002,1.18068 0,0.66189 0.19678,1.27012 0.19678,0.60823 0.572451,1.07335 0.375672,0.46512 0.912345,0.75134 0.554562,0.26834 1.234347,0.26834 0.357782,0 0.733453,-0.0716 0.375672,-0.0894 0.715564,-0.26833 0.357782,-0.19679 0.626119,-0.48301 0.286225,-0.30412 0.447227,-0.73345 l 2.844367,1.69946 q -0.286225,0.69768 -0.876566,1.25224 -0.572451,0.55456 -1.323793,0.93023 -0.733453,0.37567 -1.59213,0.57245 -0.840788,0.19678 -1.645797,0.19678 -1.413239,0 -2.593919,-0.55456 -1.162792,-0.57245 -2.021469,-1.50268 -0.840787,-0.93024 -1.305904,-2.11092 -0.465116,-1.18068 -0.465116,-2.39714 z"
           style="font-style:normal;font-variant:normal;font-weight:900;font-stretch:normal;font-size:17.8891px;font-family:Raleway;-inkscape-font-specification:'Raleway, Heavy';font-variant-ligatures:normal;font-variant-caps:normal;font-variant-numeric:normal;font-variant-east-asian:normal;text-align:center;text-anchor:middle;fill:#ffffff;fill-opacity:1;stroke-width:0.814596"
           id="path16898" />
        <path
           d="m 39.63574,316.76531 v 3.04115 H 30.583856 V 307.1052 h 8.890882 v 3.04114 H 34.07223 v 1.78891 h 4.615388 v 2.82648 H 34.07223 v 2.00358 z"
           style="font-style:normal;font-variant:normal;font-weight:900;font-stretch:normal;font-size:17.8891px;font-family:Raleway;-inkscape-font-specification:'Raleway, Heavy';font-variant-ligatures:normal;font-variant-caps:normal;font-variant-numeric:normal;font-variant-east-asian:normal;text-align:center;text-anchor:middle;fill:#ffffff;fill-opacity:1;stroke-width:0.814596"
           id="path16900" />
        <path
           d="m 48.955928,311.25547 q -0.536673,-0.32201 -1.109124,-0.57245 -0.483006,-0.21467 -1.091235,-0.39356 -0.59034,-0.19678 -1.162791,-0.19678 -0.465117,0 -0.751342,0.14311 -0.268337,0.14311 -0.268337,0.48301 0,0.25044 0.161002,0.41144 0.161002,0.16101 0.465117,0.30412 0.304114,0.12522 0.733453,0.25045 0.447227,0.12522 1.001789,0.30411 0.876566,0.26834 1.574241,0.59034 0.715564,0.32201 1.216459,0.76923 0.500894,0.42934 0.769231,1.05546 0.268336,0.62612 0.268336,1.52057 0,1.14491 -0.429338,1.93203 -0.411449,0.76923 -1.109124,1.23434 -0.679786,0.46512 -1.556352,0.67979 -0.858677,0.19678 -1.735242,0.19678 -0.697675,0 -1.431128,-0.10734 -0.733453,-0.10733 -1.466906,-0.30411 -0.715564,-0.19678 -1.39535,-0.46512 -0.661897,-0.26833 -1.234348,-0.60823 l 1.502684,-3.05903 q 0.626119,0.39356 1.305905,0.69767 0.572451,0.26834 1.288015,0.48301 0.733453,0.21467 1.484795,0.21467 0.572451,0 0.78712,-0.14311 0.232559,-0.16101 0.232559,-0.41145 0,-0.26834 -0.232559,-0.44723 -0.214669,-0.19678 -0.608229,-0.33989 -0.39356,-0.14312 -0.912344,-0.28623 -0.500895,-0.14311 -1.073346,-0.33989 -0.840788,-0.28623 -1.449017,-0.60823 -0.60823,-0.3399 -1.00179,-0.75134 -0.39356,-0.42934 -0.59034,-0.96602 -0.178891,-0.53667 -0.178891,-1.23434 0,-1.05546 0.375671,-1.86047 0.39356,-0.80501 1.055457,-1.34168 0.661897,-0.53668 1.502684,-0.80501 0.858677,-0.28623 1.806799,-0.28623 0.697675,0 1.359572,0.14312 0.661896,0.12522 1.270126,0.33989 0.626118,0.19678 1.162791,0.44723 0.536673,0.23255 0.966012,0.44722 z"
           style="font-style:normal;font-variant:normal;font-weight:900;font-stretch:normal;font-size:17.8891px;font-family:Raleway;-inkscape-font-specification:'Raleway, Heavy';font-variant-ligatures:normal;font-variant-caps:normal;font-variant-numeric:normal;font-variant-east-asian:normal;text-align:center;text-anchor:middle;fill:#ffffff;fill-opacity:1;stroke-width:0.814596"
           id="path16902" />
        <path
           d="m 51.603489,313.34849 q 0,-1.16279 0.429338,-2.2898 0.447228,-1.12702 1.288015,-2.02147 0.840788,-0.89446 2.039358,-1.44902 1.198569,-0.55456 2.737032,-0.55456 1.842577,0 3.18426,0.76923 1.359571,0.75134 2.021468,2.00358 l -2.665476,1.89625 q -0.178891,-0.46512 -0.483006,-0.76924 -0.286225,-0.30411 -0.644007,-0.483 -0.357782,-0.17889 -0.751342,-0.25045 -0.375672,-0.0716 -0.733454,-0.0716 -0.751342,0 -1.305904,0.30412 -0.536673,0.28623 -0.894455,0.76923 -0.339893,0.46512 -0.518784,1.07335 -0.161001,0.59034 -0.161001,1.18068 0,0.66189 0.19678,1.27012 0.19678,0.60823 0.572451,1.07335 0.375671,0.46512 0.912344,0.75134 0.554562,0.26834 1.234348,0.26834 0.357782,0 0.733453,-0.0716 0.375671,-0.0894 0.715564,-0.26833 0.357782,-0.19679 0.626118,-0.48301 0.286226,-0.30412 0.447228,-0.73345 l 2.844366,1.69946 q -0.286225,0.69768 -0.876565,1.25224 -0.572452,0.55456 -1.323794,0.93023 -0.733453,0.37567 -1.59213,0.57245 -0.840787,0.19678 -1.645797,0.19678 -1.413239,0 -2.593919,-0.55456 -1.162792,-0.57245 -2.021468,-1.50268 -0.840788,-0.93024 -1.305905,-2.11092 -0.465116,-1.18068 -0.465116,-2.39714 z"
           style="font-style:normal;font-variant:normal;font-weight:900;font-stretch:normal;font-size:17.8891px;font-family:Raleway;-inkscape-font-specification:'Raleway, Heavy';font-variant-ligatures:normal;font-variant-caps:normal;font-variant-numeric:normal;font-variant-east-asian:normal;text-align:center;text-anchor:middle;fill:#ffffff;fill-opacity:1;stroke-width:0.814596"
           id="path16904" />
      </g>
    </g>
  </g>
</svg>
