<?xml version="1.0" encoding="UTF-8" standalone="no"?>
<svg
   xmlns:dc="http://purl.org/dc/elements/1.1/"
   xmlns:cc="http://creativecommons.org/ns#"
   xmlns:rdf="http://www.w3.org/1999/02/22-rdf-syntax-ns#"
   xmlns:svg="http://www.w3.org/2000/svg"
   xmlns="http://www.w3.org/2000/svg"
   xmlns:sodipodi="http://sodipodi.sourceforge.net/DTD/sodipodi-0.dtd"
   xmlns:inkscape="http://www.inkscape.org/namespaces/inkscape"
   width="300"
   height="150"
   viewBox="0 0 79.374998 39.687501"
   version="1.1"
   id="svg10887"
   inkscape:version="1.0.2-2 (e86c870879, 2021-01-15)"
   sodipodi:docname="ico_empresa_3.svg">
  <defs
     id="defs10881" />
  <sodipodi:namedview
     id="base"
     pagecolor="#ffffff"
     bordercolor="#666666"
     borderopacity="1.0"
     inkscape:pageopacity="0.0"
     inkscape:pageshadow="2"
     inkscape:zoom="1.4"
     inkscape:cx="63.573433"
     inkscape:cy="25.265949"
     inkscape:document-units="mm"
     inkscape:current-layer="g11817"
     inkscape:document-rotation="0"
     showgrid="false"
     units="px"
     inkscape:window-width="1600"
     inkscape:window-height="837"
     inkscape:window-x="1358"
     inkscape:window-y="-8"
     inkscape:window-maximized="1" />
  <metadata
     id="metadata10884">
    <rdf:RDF>
      <cc:Work
         rdf:about="">
        <dc:format>image/svg+xml</dc:format>
        <dc:type
           rdf:resource="http://purl.org/dc/dcmitype/StillImage" />
        <dc:title></dc:title>
      </cc:Work>
    </rdf:RDF>
  </metadata>
  <g
     inkscape:groupmode="layer"
     id="layer2"
     inkscape:label="LOGO 2"
     style="display:inline">
    <g
       id="g11817"
       style="fill:#ff00ff"
       transform="matrix(1.0537537,0,0,1.0537537,12.759213,-324.06938)">
      <g
         id="g17019"
         transform="matrix(0.84134721,0,0,0.84134721,-2250.1737,-441.8178)"
         style="fill:#ffffff">
        <g
           aria-label="GRADUAÇÃO"
           transform="scale(0.96003573,1.0416279)"
           id="text17013"
           style="font-style:normal;font-variant:normal;font-weight:900;font-stretch:normal;font-size:14.4567px;line-height:1.25;font-family:Raleway;-inkscape-font-specification:'Raleway, Heavy';font-variant-ligatures:normal;font-variant-caps:normal;font-variant-numeric:normal;font-variant-east-asian:normal;fill:#ffffff;fill-opacity:1;stroke:none;stroke-width:0.658296">
          <path
             d="m 2780.0246,887.50826 q -1.0987,0.92523 -2.5299,0.92523 -0.9975,0 -1.9083,-0.34696 -0.9108,-0.36142 -1.5902,-1.04088 -0.6795,-0.67947 -1.0843,-1.66252 -0.4048,-0.98306 -0.4048,-2.24079 0,-1.08426 0.4048,-2.00948 0.4048,-0.93969 1.1132,-1.61915 0.7084,-0.69393 1.6625,-1.08426 0.9686,-0.40478 2.0818,-0.40478 0.6939,0 1.33,0.15902 0.6361,0.14457 1.171,0.44816 0.5493,0.28913 0.983,0.70838 0.4337,0.40478 0.7084,0.92522 l -2.0962,1.6047 q -0.3036,-0.60718 -0.9108,-0.9686 -0.6072,-0.37588 -1.2866,-0.37588 -0.506,0 -0.9253,0.2024 -0.4192,0.20239 -0.7228,0.56381 -0.3036,0.36142 -0.4771,0.8674 -0.1734,0.49153 -0.1734,1.08425 0,0.60719 0.1734,1.09871 0.1735,0.49153 0.4771,0.85295 0.3181,0.34696 0.7518,0.54935 0.4337,0.18794 0.9686,0.18794 1.2288,0 2.1685,-1.01197 h -1.7782 v -2.02394 h 4.2213 v 5.46464 h -2.3275 z"
             style="font-style:normal;font-variant:normal;font-weight:900;font-stretch:normal;font-size:14.4567px;font-family:Raleway;-inkscape-font-specification:'Raleway, Heavy';font-variant-ligatures:normal;font-variant-caps:normal;font-variant-numeric:normal;font-variant-east-asian:normal;text-align:center;text-anchor:middle;fill:#ffffff;fill-opacity:1;stroke-width:0.658296"
             id="path17063" />
          <path
             d="m 2783.74,888.36121 v -10.26426 h 4.7128 q 0.7518,0 1.3879,0.31805 0.6361,0.30359 1.0842,0.80957 0.4627,0.49153 0.7229,1.14208 0.2602,0.6361 0.2602,1.28665 0,0.89631 -0.3903,1.67697 -0.3904,0.76621 -1.0843,1.25774 l 2.1685,3.7732 h -3.1805 l -1.807,-3.15156 h -1.0554 v 3.15156 z m 2.819,-5.6092 h 1.7782 q 0.2602,0 0.4771,-0.28914 0.2313,-0.28913 0.2313,-0.80957 0,-0.5349 -0.2603,-0.80958 -0.2602,-0.28913 -0.5204,-0.28913 h -1.7059 z"
             style="font-style:normal;font-variant:normal;font-weight:900;font-stretch:normal;font-size:14.4567px;font-family:Raleway;-inkscape-font-specification:'Raleway, Heavy';font-variant-ligatures:normal;font-variant-caps:normal;font-variant-numeric:normal;font-variant-east-asian:normal;text-align:center;text-anchor:middle;fill:#ffffff;fill-opacity:1;stroke-width:0.658296"
             id="path17065" />
          <path
             d="m 2796.1583,878.09695 h 2.5732 l 3.5564,10.26426 h -2.8624 l -0.6217,-2.00949 h -2.7323 l -0.6072,2.00949 h -2.8768 z m 2.1974,6.3754 -0.9108,-3.18047 -0.9541,3.18047 z"
             style="font-style:normal;font-variant:normal;font-weight:900;font-stretch:normal;font-size:14.4567px;font-family:Raleway;-inkscape-font-specification:'Raleway, Heavy';font-variant-ligatures:normal;font-variant-caps:normal;font-variant-numeric:normal;font-variant-east-asian:normal;text-align:center;text-anchor:middle;fill:#ffffff;fill-opacity:1;stroke-width:0.658296"
             id="path17067" />
          <path
             d="m 2803.1408,888.36121 v -10.26426 h 3.9467 q 1.2722,0 2.2408,0.40479 0.9686,0.40478 1.6192,1.09871 0.6505,0.69392 0.983,1.6336 0.3325,0.92523 0.3325,1.98057 0,1.17099 -0.3759,2.12514 -0.3614,0.93968 -1.0408,1.61915 -0.6795,0.665 -1.6336,1.04088 -0.9542,0.36142 -2.1252,0.36142 z m 6.2598,-5.14659 q 0,-0.59272 -0.159,-1.08425 -0.1591,-0.49153 -0.4626,-0.83849 -0.2892,-0.34696 -0.7229,-0.5349 -0.4337,-0.20239 -0.9686,-0.20239 h -1.1276 v 5.34898 h 1.1276 q 0.5494,0 0.9831,-0.2024 0.4337,-0.20239 0.7228,-0.56381 0.3036,-0.36142 0.4482,-0.85294 0.159,-0.49153 0.159,-1.0698 z"
             style="font-style:normal;font-variant:normal;font-weight:900;font-stretch:normal;font-size:14.4567px;font-family:Raleway;-inkscape-font-specification:'Raleway, Heavy';font-variant-ligatures:normal;font-variant-caps:normal;font-variant-numeric:normal;font-variant-east-asian:normal;text-align:center;text-anchor:middle;fill:#ffffff;fill-opacity:1;stroke-width:0.658296"
             id="path17069" />
          <path
             d="m 2817.9734,885.94694 q 0.4915,0 0.8385,-0.21685 0.347,-0.21685 0.5638,-0.56381 0.2169,-0.36142 0.3181,-0.82404 0.1012,-0.46261 0.1012,-0.9686 v -5.27669 h 2.819 v 5.27669 q 0,1.0698 -0.2747,2.00949 -0.2746,0.92522 -0.8529,1.60469 -0.5783,0.67946 -1.4601,1.0698 -0.8674,0.39033 -2.0529,0.39033 -1.2288,0 -2.1107,-0.40479 -0.8674,-0.41925 -1.4312,-1.11317 -0.5638,-0.69392 -0.824,-1.60469 -0.2602,-0.92523 -0.2602,-1.95166 v -5.27669 h 2.819 v 5.27669 q 0,0.50599 0.1012,0.98306 0.1012,0.46261 0.3181,0.82403 0.2168,0.34696 0.5493,0.56381 0.347,0.2024 0.8385,0.2024 z"
             style="font-style:normal;font-variant:normal;font-weight:900;font-stretch:normal;font-size:14.4567px;font-family:Raleway;-inkscape-font-specification:'Raleway, Heavy';font-variant-ligatures:normal;font-variant-caps:normal;font-variant-numeric:normal;font-variant-east-asian:normal;text-align:center;text-anchor:middle;fill:#ffffff;fill-opacity:1;stroke-width:0.658296"
             id="path17071" />
          <path
             d="m 2826.5028,878.09695 h 2.5733 l 3.5564,10.26426 h -2.8625 l -0.6216,-2.00949 h -2.7323 l -0.6072,2.00949 h -2.8769 z m 2.1974,6.3754 -0.9107,-3.18047 -0.9542,3.18047 z"
             style="font-style:normal;font-variant:normal;font-weight:900;font-stretch:normal;font-size:14.4567px;font-family:Raleway;-inkscape-font-specification:'Raleway, Heavy';font-variant-ligatures:normal;font-variant-caps:normal;font-variant-numeric:normal;font-variant-east-asian:normal;text-align:center;text-anchor:middle;fill:#ffffff;fill-opacity:1;stroke-width:0.658296"
             id="path17073" />
          <path
             d="m 2836.1888,890.21166 q 0.159,0.1012 0.5349,0.18794 0.3759,0.1012 0.7662,0.1012 0.3325,0 0.5638,-0.1012 0.2458,-0.1012 0.2458,-0.34696 0,-0.24576 -0.2169,-0.34696 -0.2168,-0.0867 -0.5782,-0.0867 -0.3036,0 -0.6506,0.0434 -0.3325,0.0578 -0.4915,0.0867 l 0.6505,-1.34447 q -1.0119,-0.13011 -1.8504,-0.62164 -0.8241,-0.49153 -1.4168,-1.21436 -0.5927,-0.7373 -0.9252,-1.61916 -0.3181,-0.89631 -0.3181,-1.80708 0,-0.93969 0.347,-1.85046 0.3614,-0.91077 1.0409,-1.63361 0.6794,-0.72283 1.648,-1.17099 0.9686,-0.44816 2.2119,-0.44816 1.4891,0 2.5733,0.62164 1.0987,0.60718 1.6336,1.61915 l -2.154,1.53241 q -0.1446,-0.37587 -0.3904,-0.62164 -0.2313,-0.24576 -0.5204,-0.39033 -0.2891,-0.14457 -0.6072,-0.20239 -0.3036,-0.0578 -0.5927,-0.0578 -0.6072,0 -1.0553,0.24577 -0.4337,0.2313 -0.7229,0.62163 -0.2747,0.37588 -0.4192,0.86741 -0.1301,0.47707 -0.1301,0.95414 0,0.5349 0.159,1.02642 0.159,0.49153 0.4626,0.86741 0.3036,0.37587 0.7373,0.60718 0.4482,0.21685 0.9975,0.21685 0.2891,0 0.5927,-0.0578 0.3036,-0.0723 0.5783,-0.21685 0.2891,-0.15902 0.506,-0.39033 0.2313,-0.24577 0.3614,-0.59273 l 2.2986,1.37339 q -0.2168,0.52044 -0.6361,0.93969 -0.4192,0.41924 -0.9686,0.72283 -0.5349,0.30359 -1.1565,0.49153 -0.6217,0.17348 -1.2433,0.21685 l -0.2891,0.41924 q 0.087,-0.0144 0.1735,-0.0289 0.1012,0 0.2168,0 0.2602,0 0.506,0.0578 0.2458,0.0723 0.4337,0.20239 0.1879,0.13011 0.3036,0.34696 0.1156,0.21685 0.1156,0.52044 0,0.60718 -0.5349,1.04089 -0.5204,0.44815 -1.6625,0.44815 -0.5204,0 -0.9397,-0.10119 -0.4048,-0.0867 -0.6939,-0.2024 z"
             style="font-style:normal;font-variant:normal;font-weight:900;font-stretch:normal;font-size:14.4567px;font-family:Raleway;-inkscape-font-specification:'Raleway, Heavy';font-variant-ligatures:normal;font-variant-caps:normal;font-variant-numeric:normal;font-variant-east-asian:normal;text-align:center;text-anchor:middle;fill:#ffffff;fill-opacity:1;stroke-width:0.658296"
             id="path17075" />
          <path
             d="m 2845.5567,878.09695 h 2.5733 l 3.5564,10.26426 h -2.8625 l -0.6216,-2.00949 h -2.7323 l -0.6072,2.00949 h -2.8769 z m 2.1974,6.3754 -0.9107,-3.18047 -0.9542,3.18047 z m 0.014,-7.04041 q -0.3325,0 -0.5927,-0.1012 -0.2458,-0.11565 -0.4626,-0.24576 -0.2169,-0.13011 -0.4337,-0.23131 -0.2024,-0.11565 -0.4482,-0.11565 -0.2458,0 -0.3759,0.1012 -0.1301,0.10119 -0.2024,0.2313 -0.058,0.13011 -0.072,0.24577 -0.014,0.10119 -0.014,0.11565 h -1.4601 q 0,-0.18794 0.1012,-0.56381 0.1156,-0.39033 0.3614,-0.76621 0.2457,-0.37587 0.6216,-0.665 0.3759,-0.28914 0.9252,-0.28914 0.347,0 0.6072,0.11566 0.2602,0.11565 0.4771,0.26022 0.2168,0.13011 0.4192,0.24576 0.2024,0.11565 0.4482,0.11565 0.2313,0 0.3759,-0.10119 0.1445,-0.11566 0.2168,-0.24577 0.087,-0.14456 0.1012,-0.26022 0.029,-0.11565 0.029,-0.13011 h 1.4457 q 0,0.13011 -0.1157,0.50599 -0.1156,0.36141 -0.3614,0.7662 -0.2457,0.39033 -0.6361,0.70838 -0.3903,0.30359 -0.9541,0.30359 z"
             style="font-style:normal;font-variant:normal;font-weight:900;font-stretch:normal;font-size:14.4567px;font-family:Raleway;-inkscape-font-specification:'Raleway, Heavy';font-variant-ligatures:normal;font-variant-caps:normal;font-variant-numeric:normal;font-variant-east-asian:normal;text-align:center;text-anchor:middle;fill:#ffffff;fill-opacity:1;stroke-width:0.658296"
             id="path17077" />
          <path
             d="m 2856.7462,888.44795 q -1.171,0 -2.1252,-0.44816 -0.9541,-0.44816 -1.6336,-1.17099 -0.6794,-0.7373 -1.0553,-1.67698 -0.3759,-0.93969 -0.3759,-1.9372 0,-1.01197 0.3904,-1.95165 0.3903,-0.93969 1.0842,-1.64807 0.7084,-0.72283 1.6625,-1.14208 0.9686,-0.4337 2.1107,-0.4337 1.171,0 2.1251,0.44816 0.9542,0.44816 1.6336,1.18545 0.6795,0.73729 1.0409,1.67698 0.3759,0.93968 0.3759,1.92274 0,1.01197 -0.3903,1.95165 -0.3904,0.92523 -1.0843,1.64807 -0.6939,0.70837 -1.6625,1.14208 -0.9541,0.4337 -2.0962,0.4337 z m -2.3275,-5.20442 q 0,0.52045 0.1445,1.01197 0.1446,0.47707 0.4337,0.85295 0.2892,0.37587 0.7229,0.60718 0.4481,0.23131 1.0553,0.23131 0.6072,0 1.0553,-0.23131 0.4482,-0.24576 0.7229,-0.62164 0.2891,-0.39033 0.4192,-0.88186 0.1446,-0.49152 0.1446,-0.99751 0,-0.52044 -0.1446,-0.99751 -0.1446,-0.49153 -0.4481,-0.85295 -0.2892,-0.37587 -0.7373,-0.59272 -0.4337,-0.23131 -1.0265,-0.23131 -0.6071,0 -1.0553,0.23131 -0.4337,0.23131 -0.7228,0.62164 -0.2892,0.37587 -0.4337,0.8674 -0.1301,0.47707 -0.1301,0.98305 z"
             style="font-style:normal;font-variant:normal;font-weight:900;font-stretch:normal;font-size:14.4567px;font-family:Raleway;-inkscape-font-specification:'Raleway, Heavy';font-variant-ligatures:normal;font-variant-caps:normal;font-variant-numeric:normal;font-variant-east-asian:normal;text-align:center;text-anchor:middle;fill:#ffffff;fill-opacity:1;stroke-width:0.658296"
             id="path17079" />
        </g>
        <g
           aria-label="PÓS"
           transform="scale(0.96003573,1.0416279)"
           id="text16796"
           style="font-style:normal;font-variant:normal;font-weight:900;font-stretch:normal;font-size:14.4567px;line-height:1.25;font-family:Raleway;-inkscape-font-specification:'Raleway, Heavy';font-variant-ligatures:normal;font-variant-caps:normal;font-variant-numeric:normal;font-variant-east-asian:normal;fill:#ffffff;fill-opacity:1;stroke:none;stroke-width:0.658296">
          <path
             d="m 2803.6685,875.49084 v -10.26425 h 4.4237 q 0.7518,0 1.3879,0.31804 0.6361,0.3036 1.0842,0.80958 0.4627,0.49153 0.7229,1.14208 0.2602,0.63609 0.2602,1.28665 0,0.67946 -0.2458,1.33001 -0.2457,0.6361 -0.6939,1.14208 -0.4337,0.49153 -1.0698,0.79512 -0.6216,0.28913 -1.3734,0.28913 h -1.6769 v 3.15156 z m 2.8191,-5.60919 h 1.489 q 0.2602,0 0.4771,-0.23131 0.2313,-0.24577 0.2313,-0.8674 0,-0.6361 -0.2603,-0.86741 -0.2602,-0.2313 -0.5204,-0.2313 h -1.4167 z"
             style="font-style:normal;font-variant:normal;font-weight:900;font-stretch:normal;font-size:14.4567px;font-family:Raleway;-inkscape-font-specification:'Raleway, Heavy';font-variant-ligatures:normal;font-variant-caps:normal;font-variant-numeric:normal;font-variant-east-asian:normal;text-align:center;text-anchor:middle;fill:#ffffff;fill-opacity:1;stroke-width:0.658296"
             id="path17082" />
          <path
             d="m 2817.3012,875.57758 q -1.171,0 -2.1252,-0.44815 -0.9541,-0.44816 -1.6336,-1.171 -0.6795,-0.73729 -1.0553,-1.67697 -0.3759,-0.93969 -0.3759,-1.9372 0,-1.01197 0.3903,-1.95166 0.3904,-0.93968 1.0843,-1.64806 0.7084,-0.72283 1.6625,-1.14208 0.9686,-0.4337 2.1107,-0.4337 1.171,0 2.1251,0.44816 0.9542,0.44816 1.6336,1.18545 0.6795,0.73729 1.0409,1.67698 0.3759,0.93968 0.3759,1.92274 0,1.01197 -0.3904,1.95165 -0.3903,0.92523 -1.0842,1.64806 -0.6939,0.70838 -1.6625,1.14208 -0.9542,0.4337 -2.0962,0.4337 z m -2.3276,-5.20441 q 0,0.52044 0.1446,1.01197 0.1446,0.47707 0.4337,0.85295 0.2891,0.37587 0.7228,0.60718 0.4482,0.23131 1.0554,0.23131 0.6071,0 1.0553,-0.23131 0.4482,-0.24577 0.7228,-0.62164 0.2892,-0.39033 0.4193,-0.88186 0.1445,-0.49153 0.1445,-0.99751 0,-0.52044 -0.1445,-0.99751 -0.1446,-0.49153 -0.4482,-0.85295 -0.2891,-0.37587 -0.7373,-0.59272 -0.4337,-0.23131 -1.0264,-0.23131 -0.6072,0 -1.0553,0.23131 -0.4337,0.2313 -0.7229,0.62164 -0.2891,0.37587 -0.4337,0.8674 -0.1301,0.47707 -0.1301,0.98305 z m 3.3395,-5.58028 -1.7348,-0.46262 0.7229,-2.05285 h 2.4431 z"
             style="font-style:normal;font-variant:normal;font-weight:900;font-stretch:normal;font-size:14.4567px;font-family:Raleway;-inkscape-font-specification:'Raleway, Heavy';font-variant-ligatures:normal;font-variant-caps:normal;font-variant-numeric:normal;font-variant-east-asian:normal;text-align:center;text-anchor:middle;fill:#ffffff;fill-opacity:1;stroke-width:0.658296"
             id="path17084" />
          <path
             d="m 2829.864,868.58054 q -0.4337,-0.26022 -0.8963,-0.46261 -0.3903,-0.17348 -0.8819,-0.31805 -0.477,-0.15902 -0.9397,-0.15902 -0.3758,0 -0.6071,0.11565 -0.2169,0.11565 -0.2169,0.39033 0,0.20239 0.1301,0.33251 0.1301,0.13011 0.3759,0.24576 0.2458,0.1012 0.5927,0.20239 0.3614,0.1012 0.8096,0.24577 0.7084,0.21685 1.2722,0.47707 0.5783,0.26022 0.983,0.62164 0.4048,0.34696 0.6217,0.85294 0.2168,0.50599 0.2168,1.22882 0,0.92523 -0.3469,1.56132 -0.3325,0.62164 -0.8963,0.99752 -0.5494,0.37587 -1.2578,0.54935 -0.6939,0.15903 -1.4023,0.15903 -0.5638,0 -1.1565,-0.0867 -0.5927,-0.0867 -1.1855,-0.24576 -0.5782,-0.15902 -1.1276,-0.37587 -0.5349,-0.21685 -0.9975,-0.49153 l 1.2144,-2.4721 q 0.506,0.31805 1.0553,0.56381 0.4626,0.21685 1.0409,0.39034 0.5927,0.17348 1.1999,0.17348 0.4626,0 0.6361,-0.11566 0.1879,-0.13011 0.1879,-0.3325 0,-0.21685 -0.1879,-0.36142 -0.1735,-0.15902 -0.4915,-0.27468 -0.3181,-0.11565 -0.7373,-0.2313 -0.4048,-0.11566 -0.8674,-0.27468 -0.6795,-0.23131 -1.171,-0.49153 -0.4916,-0.27468 -0.8096,-0.60718 -0.318,-0.34696 -0.4771,-0.78066 -0.1445,-0.4337 -0.1445,-0.99751 0,-0.85295 0.3036,-1.5035 0.318,-0.65055 0.8529,-1.08425 0.5349,-0.4337 1.2144,-0.65056 0.6939,-0.2313 1.4601,-0.2313 0.5638,0 1.0987,0.11565 0.5349,0.1012 1.0264,0.27468 0.506,0.15902 0.9397,0.36142 0.4337,0.18793 0.7807,0.36141 z"
             style="font-style:normal;font-variant:normal;font-weight:900;font-stretch:normal;font-size:14.4567px;font-family:Raleway;-inkscape-font-specification:'Raleway, Heavy';font-variant-ligatures:normal;font-variant-caps:normal;font-variant-numeric:normal;font-variant-east-asian:normal;text-align:center;text-anchor:middle;fill:#ffffff;fill-opacity:1;stroke-width:0.658296"
             id="path17086" />
        </g>
      </g>
    </g>
  </g>
</svg>
