<?xml version="1.0" encoding="UTF-8" standalone="no"?>
<svg
   xmlns:dc="http://purl.org/dc/elements/1.1/"
   xmlns:cc="http://creativecommons.org/ns#"
   xmlns:rdf="http://www.w3.org/1999/02/22-rdf-syntax-ns#"
   xmlns:svg="http://www.w3.org/2000/svg"
   xmlns="http://www.w3.org/2000/svg"
   xmlns:sodipodi="http://sodipodi.sourceforge.net/DTD/sodipodi-0.dtd"
   xmlns:inkscape="http://www.inkscape.org/namespaces/inkscape"
   width="300"
   height="150"
   viewBox="0 0 79.374998 39.687501"
   version="1.1"
   id="svg10887"
   inkscape:version="1.0.2-2 (e86c870879, 2021-01-15)"
   sodipodi:docname="ico_cards-1.svg">
  <defs
     id="defs10881" />
  <sodipodi:namedview
     id="base"
     pagecolor="#ffffff"
     bordercolor="#666666"
     borderopacity="1.0"
     inkscape:pageopacity="0.0"
     inkscape:pageshadow="2"
     inkscape:zoom="0.98994949"
     inkscape:cx="138.49242"
     inkscape:cy="35.348124"
     inkscape:document-units="mm"
     inkscape:current-layer="layer1"
     inkscape:document-rotation="0"
     showgrid="false"
     units="px"
     inkscape:window-width="1600"
     inkscape:window-height="837"
     inkscape:window-x="1358"
     inkscape:window-y="-8"
     inkscape:window-maximized="1" />
  <metadata
     id="metadata10884">
    <rdf:RDF>
      <cc:Work
         rdf:about="">
        <dc:format>image/svg+xml</dc:format>
        <dc:type
           rdf:resource="http://purl.org/dc/dcmitype/StillImage" />
        <dc:title></dc:title>
      </cc:Work>
    </rdf:RDF>
  </metadata>
  <g
     inkscape:label="LOGO 1"
     inkscape:groupmode="layer"
     id="layer1"
     transform="translate(0,-257.31249)"
     sodipodi:insensitive="true"
     style="display:inline">
    <g
       id="g11215"
       style="fill:#ffffff">
      <g
         aria-label="SATC"
         id="text10943"
         style="font-style:normal;font-variant:normal;font-weight:900;font-stretch:normal;font-size:15.8456px;line-height:1.25;font-family:Raleway;-inkscape-font-specification:'Raleway, Heavy';font-variant-ligatures:normal;font-variant-caps:normal;font-variant-numeric:normal;font-variant-east-asian:normal;fill:#ffffff;fill-opacity:0.987805;stroke:none;stroke-width:0.721544">
        <path
           d="m 27.023727,264.49197 q -0.475368,-0.28523 -0.982427,-0.50706 -0.427832,-0.19015 -0.966582,-0.34861 -0.522905,-0.1743 -1.029964,-0.1743 -0.411986,0 -0.665515,0.12677 -0.237684,0.12676 -0.237684,0.42783 0,0.22184 0.14261,0.36445 0.142611,0.14261 0.411986,0.26937 0.269375,0.11092 0.649669,0.22184 0.39614,0.11092 0.887354,0.26937 0.776434,0.23769 1.394413,0.52291 0.633824,0.28522 1.077501,0.68136 0.443676,0.38029 0.68136,0.93489 0.237684,0.5546 0.237684,1.34688 0,1.01412 -0.380294,1.71132 -0.364449,0.68136 -0.982427,1.09335 -0.602133,0.41198 -1.378567,0.60213 -0.760589,0.1743 -1.537024,0.1743 -0.617978,0 -1.267648,-0.0951 -0.649669,-0.0951 -1.299339,-0.26938 -0.633824,-0.1743 -1.235957,-0.41198 -0.586287,-0.23769 -1.093346,-0.53875 l 1.33103,-2.7096 q 0.554596,0.3486 1.156729,0.61798 0.507059,0.23768 1.140883,0.42783 0.64967,0.19015 1.315185,0.19015 0.507059,0 0.697207,-0.12677 0.205992,-0.14261 0.205992,-0.36445 0,-0.23768 -0.205992,-0.39614 -0.190148,-0.1743 -0.538751,-0.30106 -0.348603,-0.12677 -0.808125,-0.25353 -0.443677,-0.12677 -0.950736,-0.30107 -0.744744,-0.25353 -1.283494,-0.53875 -0.53875,-0.30107 -0.887354,-0.66551 -0.348603,-0.3803 -0.522904,-0.85567 -0.158456,-0.47537 -0.158456,-1.09334 0,-0.93489 0.332757,-1.64795 0.348603,-0.71305 0.934891,-1.18842 0.586287,-0.47536 1.33103,-0.71305 0.760589,-0.25353 1.600406,-0.25353 0.617978,0 1.204265,0.12677 0.586287,0.11092 1.125038,0.30106 0.554596,0.17431 1.029964,0.39614 0.475368,0.206 0.855662,0.39614 z"
           style="font-style:normal;font-variant:normal;font-weight:900;font-stretch:normal;font-size:15.8456px;font-family:Raleway;-inkscape-font-specification:'Raleway, Heavy';font-variant-ligatures:normal;font-variant-caps:normal;font-variant-numeric:normal;font-variant-east-asian:normal;text-align:center;text-anchor:middle;fill:#ffffff;fill-opacity:0.987805;stroke-width:0.721544"
           id="path11098" />
        <path
           d="m 32.617178,260.81579 h 2.820516 l 3.898018,11.25037 h -3.137429 l -0.681361,-2.20254 h -2.994818 l -0.665515,2.20254 h -3.153275 z m 2.408531,6.98791 -0.998273,-3.48604 -1.04581,3.48604 z"
           style="font-style:normal;font-variant:normal;font-weight:900;font-stretch:normal;font-size:15.8456px;font-family:Raleway;-inkscape-font-specification:'Raleway, Heavy';font-variant-ligatures:normal;font-variant-caps:normal;font-variant-numeric:normal;font-variant-east-asian:normal;text-align:center;text-anchor:middle;fill:#ffffff;fill-opacity:0.987805;stroke-width:0.721544"
           id="path11100" />
        <path
           d="m 48.003244,263.50954 h -3.232503 v 8.55662 h -3.089892 v -8.55662 h -3.248348 v -2.69375 h 9.570743 z"
           style="font-style:normal;font-variant:normal;font-weight:900;font-stretch:normal;font-size:15.8456px;font-family:Raleway;-inkscape-font-specification:'Raleway, Heavy';font-variant-ligatures:normal;font-variant-caps:normal;font-variant-numeric:normal;font-variant-east-asian:normal;text-align:center;text-anchor:middle;fill:#ffffff;fill-opacity:0.987805;stroke-width:0.721544"
           id="path11102" />
        <path
           d="m 48.335955,266.3459 q 0,-1.02996 0.380294,-2.02824 0.39614,-0.99827 1.140883,-1.79055 0.744744,-0.79228 1.806399,-1.28349 1.061655,-0.49122 2.424377,-0.49122 1.632096,0 2.820516,0.68136 1.204266,0.66552 1.790553,1.77471 l -2.360994,1.67964 q -0.158456,-0.41199 -0.427831,-0.68137 -0.25353,-0.26937 -0.570442,-0.42783 -0.316912,-0.15845 -0.665515,-0.22184 -0.332758,-0.0634 -0.64967,-0.0634 -0.665515,0 -1.156729,0.26938 -0.475368,0.25353 -0.79228,0.68136 -0.301066,0.41198 -0.459522,0.95073 -0.14261,0.52291 -0.14261,1.04581 0,0.58629 0.174301,1.12504 0.174302,0.53875 0.507059,0.95074 0.332758,0.41198 0.808126,0.66551 0.491214,0.23769 1.093346,0.23769 0.316912,0 0.64967,-0.0634 0.332758,-0.0792 0.633824,-0.23768 0.316912,-0.1743 0.554596,-0.42783 0.25353,-0.26938 0.39614,-0.64967 l 2.519451,1.50533 q -0.25353,0.61798 -0.776435,1.10919 -0.507059,0.49122 -1.172574,0.82397 -0.64967,0.33276 -1.410259,0.50706 -0.744743,0.17431 -1.457795,0.17431 -1.251802,0 -2.297612,-0.49122 -1.029964,-0.50706 -1.790553,-1.33103 -0.744743,-0.82397 -1.156729,-1.86978 -0.411985,-1.04581 -0.411985,-2.12331 z"
           style="font-style:normal;font-variant:normal;font-weight:900;font-stretch:normal;font-size:15.8456px;font-family:Raleway;-inkscape-font-specification:'Raleway, Heavy';font-variant-ligatures:normal;font-variant-caps:normal;font-variant-numeric:normal;font-variant-east-asian:normal;text-align:center;text-anchor:middle;fill:#ffffff;fill-opacity:0.987805;stroke-width:0.721544"
           id="path11104" />
      </g>
      <g
         aria-label="ASSOCIAÇÃO BENEFICENTE "
         id="text10947"
         style="font-style:normal;font-variant:normal;font-weight:bold;font-stretch:normal;font-size:5.56763px;line-height:1.25;font-family:Raleway;-inkscape-font-specification:'Raleway, Bold';font-variant-ligatures:normal;font-variant-caps:normal;font-variant-numeric:normal;font-variant-east-asian:normal;text-align:start;text-anchor:start;fill:#ffffff;fill-opacity:1;stroke:none;stroke-width:0.366281">
        <path
           d="m 2.0520577,277.33455 h 0.6792508 l 1.50326,3.95302 H 3.4439651 L 3.0765015,280.3021 H 1.6957293 l -0.3618959,0.98547 H 0.54322998 Z m 0.8852531,2.42749 -0.5456277,-1.55337 -0.5678983,1.55337 z"
           style="font-style:normal;font-variant:normal;font-weight:bold;font-stretch:normal;font-size:5.56763px;font-family:Raleway;-inkscape-font-specification:'Raleway, Bold';font-variant-ligatures:normal;font-variant-caps:normal;font-variant-numeric:normal;font-variant-east-asian:normal;text-align:start;text-anchor:start;fill:#ffffff;fill-opacity:1;stroke-width:0.366281"
           id="path10967" />
        <path
           d="m 6.9626927,278.37013 q -0.038973,-0.039 -0.1447583,-0.10579 -0.1002174,-0.0668 -0.2505434,-0.12805 -0.1447584,-0.0668 -0.3173549,-0.11135 -0.1725965,-0.0445 -0.3507607,-0.0445 -0.3173549,0 -0.4732485,0.11692 -0.1558936,0.11692 -0.1558936,0.32849 0,0.12248 0.055676,0.206 0.061244,0.0779 0.1725965,0.13919 0.1113526,0.0612 0.2783815,0.11135 0.1725965,0.0501 0.3953017,0.10579 0.2895168,0.0779 0.5233572,0.16702 0.2394081,0.0891 0.4008694,0.22271 0.1670288,0.13362 0.2561109,0.32292 0.089082,0.18373 0.089082,0.45655 0,0.31735 -0.1224879,0.54563 -0.1169202,0.2227 -0.3229225,0.36189 -0.2004347,0.13919 -0.4676809,0.206 -0.2616786,0.0612 -0.5511953,0.0612 -0.4454104,0 -0.8796855,-0.13362 -0.4342752,-0.13363 -0.7794682,-0.3786 l 0.3396254,-0.66255 q 0.050109,0.0501 0.1781641,0.13362 0.1336232,0.078 0.3117873,0.16146 0.1781642,0.0779 0.3953017,0.13363 0.2171376,0.0557 0.4454104,0.0557 0.6347098,0 0.6347098,-0.40643 0,-0.12806 -0.072379,-0.21714 -0.072379,-0.0891 -0.2060023,-0.1559 -0.1336231,-0.0668 -0.3229225,-0.12248 -0.1892994,-0.0557 -0.4231399,-0.12249 -0.2839491,-0.0779 -0.495519,-0.16703 -0.2060023,-0.0947 -0.3451931,-0.21714 -0.1391907,-0.12805 -0.2115699,-0.28952 -0.066812,-0.16702 -0.066812,-0.3953 0,-0.30065 0.1113526,-0.53449 0.1113526,-0.23384 0.3062197,-0.38973 0.2004347,-0.1559 0.4621133,-0.23384 0.2616786,-0.0835 0.5623306,-0.0835 0.4175722,0 0.7683329,0.13362 0.3507607,0.12806 0.6124393,0.30622 z"
           style="font-style:normal;font-variant:normal;font-weight:bold;font-stretch:normal;font-size:5.56763px;font-family:Raleway;-inkscape-font-specification:'Raleway, Bold';font-variant-ligatures:normal;font-variant-caps:normal;font-variant-numeric:normal;font-variant-east-asian:normal;text-align:start;text-anchor:start;fill:#ffffff;fill-opacity:1;stroke-width:0.366281"
           id="path10969" />
        <path
           d="m 10.375644,278.37013 q -0.03897,-0.039 -0.144758,-0.10579 -0.100218,-0.0668 -0.2505437,-0.12805 -0.1447584,-0.0668 -0.3173549,-0.11135 -0.1725966,-0.0445 -0.3507607,-0.0445 -0.3173549,0 -0.4732486,0.11692 -0.1558936,0.11692 -0.1558936,0.32849 0,0.12248 0.055676,0.206 0.061244,0.0779 0.1725965,0.13919 0.1113526,0.0612 0.2783815,0.11135 0.1725965,0.0501 0.3953017,0.10579 0.2895168,0.0779 0.5233578,0.16702 0.239408,0.0891 0.400869,0.22271 0.167029,0.13362 0.256111,0.32292 0.08908,0.18373 0.08908,0.45655 0,0.31735 -0.122488,0.54563 -0.11692,0.2227 -0.322922,0.36189 -0.200435,0.13919 -0.4676815,0.206 -0.2616786,0.0612 -0.5511953,0.0612 -0.4454104,0 -0.8796855,-0.13362 -0.4342751,-0.13363 -0.7794682,-0.3786 l 0.3396254,-0.66255 q 0.050109,0.0501 0.1781642,0.13362 0.1336231,0.078 0.3117873,0.16146 0.1781641,0.0779 0.3953017,0.13363 0.2171375,0.0557 0.4454104,0.0557 0.6347105,0 0.6347105,-0.40643 0,-0.12806 -0.07238,-0.21714 -0.072379,-0.0891 -0.2060023,-0.1559 -0.1336232,-0.0668 -0.3229226,-0.12248 -0.1892994,-0.0557 -0.4231398,-0.12249 -0.2839492,-0.0779 -0.4955191,-0.16703 -0.2060023,-0.0947 -0.345193,-0.21714 -0.1391908,-0.12805 -0.21157,-0.28952 -0.066812,-0.16702 -0.066812,-0.3953 0,-0.30065 0.1113526,-0.53449 0.1113526,-0.23384 0.3062196,-0.38973 0.2004347,-0.1559 0.4621133,-0.23384 0.2616786,-0.0835 0.5623306,-0.0835 0.4175722,0 0.7683327,0.13362 0.350761,0.12806 0.612439,0.30622 z"
           style="font-style:normal;font-variant:normal;font-weight:bold;font-stretch:normal;font-size:5.56763px;font-family:Raleway;-inkscape-font-specification:'Raleway, Bold';font-variant-ligatures:normal;font-variant-caps:normal;font-variant-numeric:normal;font-variant-east-asian:normal;text-align:start;text-anchor:start;fill:#ffffff;fill-opacity:1;stroke-width:0.366281"
           id="path10971" />
        <path
           d="m 13.120479,281.31541 q -0.434275,0 -0.790603,-0.16703 -0.350761,-0.1726 -0.606872,-0.45098 -0.250543,-0.28395 -0.389734,-0.64585 -0.139191,-0.36189 -0.139191,-0.74049 0,-0.3953 0.144759,-0.7572 0.150326,-0.3619 0.406437,-0.64028 0.261678,-0.27838 0.618007,-0.43984 0.356328,-0.16703 0.7739,-0.16703 0.428708,0 0.779468,0.17817 0.356329,0.17259 0.606872,0.45654 0.250543,0.28395 0.389734,0.64585 0.139191,0.36189 0.139191,0.73492 0,0.39531 -0.144758,0.7572 -0.144759,0.35633 -0.40087,0.63471 -0.256111,0.27282 -0.612439,0.43984 -0.356328,0.16147 -0.773901,0.16147 z m -1.146931,-2.00435 q 0,0.25611 0.07795,0.49552 0.07795,0.23941 0.222706,0.42314 0.150326,0.18373 0.361896,0.29508 0.217137,0.11135 0.489951,0.11135 0.278382,0 0.489951,-0.11135 0.217138,-0.11692 0.361896,-0.30622 0.150326,-0.1893 0.222706,-0.42314 0.07795,-0.23941 0.07795,-0.48438 0,-0.25611 -0.08351,-0.49552 -0.07795,-0.23941 -0.228273,-0.42314 -0.144758,-0.18373 -0.361896,-0.28952 -0.21157,-0.11135 -0.478816,-0.11135 -0.278381,0 -0.495519,0.11692 -0.217138,0.11135 -0.361896,0.30065 -0.144758,0.18373 -0.222705,0.42314 -0.07238,0.23384 -0.07238,0.47882 z"
           style="font-style:normal;font-variant:normal;font-weight:bold;font-stretch:normal;font-size:5.56763px;font-family:Raleway;-inkscape-font-specification:'Raleway, Bold';font-variant-ligatures:normal;font-variant-caps:normal;font-variant-numeric:normal;font-variant-east-asian:normal;text-align:start;text-anchor:start;fill:#ffffff;fill-opacity:1;stroke-width:0.366281"
           id="path10973" />
        <path
           d="m 15.4032,279.28322 q 0,-0.3619 0.128056,-0.71266 0.133623,-0.35632 0.384166,-0.63471 0.250544,-0.27838 0.612439,-0.45097 0.361896,-0.1726 0.82401,-0.1726 0.545627,0 0.940929,0.23941 0.400869,0.23941 0.595736,0.62357 l -0.590168,0.40644 q -0.07795,-0.16703 -0.1893,-0.27838 -0.111352,-0.11692 -0.239408,-0.18373 -0.128055,-0.0668 -0.267246,-0.0947 -0.139191,-0.0334 -0.272814,-0.0334 -0.289517,0 -0.506654,0.11692 -0.21157,0.11692 -0.356328,0.30622 -0.139191,0.18373 -0.21157,0.42314 -0.07238,0.23384 -0.07238,0.46768 0,0.26168 0.08352,0.50666 0.08351,0.2394 0.23384,0.42314 0.155894,0.18373 0.367464,0.29508 0.217137,0.11135 0.473248,0.11135 0.133624,0 0.278382,-0.0334 0.144758,-0.0334 0.272814,-0.10579 0.133623,-0.0724 0.244975,-0.18373 0.111353,-0.11692 0.178165,-0.27838 l 0.629142,0.36189 q -0.09465,0.22271 -0.272814,0.39531 -0.172597,0.16702 -0.395302,0.28394 -0.217137,0.11693 -0.467681,0.17817 -0.250543,0.0612 -0.489951,0.0612 -0.42314,0 -0.773901,-0.17816 -0.35076,-0.17817 -0.606871,-0.46211 -0.250544,-0.28952 -0.395302,-0.65142 -0.139191,-0.36746 -0.139191,-0.74606 z"
           style="font-style:normal;font-variant:normal;font-weight:bold;font-stretch:normal;font-size:5.56763px;font-family:Raleway;-inkscape-font-specification:'Raleway, Bold';font-variant-ligatures:normal;font-variant-caps:normal;font-variant-numeric:normal;font-variant-east-asian:normal;text-align:start;text-anchor:start;fill:#ffffff;fill-opacity:1;stroke-width:0.366281"
           id="path10975" />
        <path
           d="m 19.461996,281.28757 v -3.95302 h 0.768333 v 3.95302 z"
           style="font-style:normal;font-variant:normal;font-weight:bold;font-stretch:normal;font-size:5.56763px;font-family:Raleway;-inkscape-font-specification:'Raleway, Bold';font-variant-ligatures:normal;font-variant-caps:normal;font-variant-numeric:normal;font-variant-east-asian:normal;text-align:start;text-anchor:start;fill:#ffffff;fill-opacity:1;stroke-width:0.366281"
           id="path10977" />
        <path
           d="m 22.178996,277.33455 h 0.67925 l 1.50326,3.95302 h -0.790603 l -0.367464,-0.98547 h -1.380772 l -0.361896,0.98547 h -0.790603 z m 0.885253,2.42749 -0.545628,-1.55337 -0.567898,1.55337 z"
           style="font-style:normal;font-variant:normal;font-weight:bold;font-stretch:normal;font-size:5.56763px;font-family:Raleway;-inkscape-font-specification:'Raleway, Bold';font-variant-ligatures:normal;font-variant-caps:normal;font-variant-numeric:normal;font-variant-east-asian:normal;text-align:start;text-anchor:start;fill:#ffffff;fill-opacity:1;stroke-width:0.366281"
           id="path10979" />
        <path
           d="m 25.825782,281.99466 q 0.06681,0.039 0.206002,0.0724 0.139191,0.0334 0.289517,0.0334 0.144758,0 0.228273,-0.0445 0.08351,-0.039 0.08351,-0.13919 0,-0.10022 -0.08351,-0.14476 -0.07795,-0.039 -0.206002,-0.039 -0.116921,0 -0.250544,0.0223 -0.128055,0.0278 -0.194867,0.0445 l 0.244976,-0.48995 q -0.384167,-0.0334 -0.707089,-0.22271 -0.322923,-0.1893 -0.551195,-0.46768 -0.228273,-0.28395 -0.356329,-0.62914 -0.128055,-0.35076 -0.128055,-0.70709 0,-0.3619 0.128055,-0.71266 0.133623,-0.35632 0.384167,-0.63471 0.250543,-0.27838 0.612439,-0.45097 0.361896,-0.1726 0.824009,-0.1726 0.545628,0 0.94093,0.23941 0.400869,0.23941 0.595736,0.62357 l -0.590169,0.40644 q -0.07795,-0.16703 -0.189299,-0.27838 -0.111353,-0.11692 -0.239408,-0.18373 -0.128056,-0.0668 -0.267246,-0.0947 -0.139191,-0.0334 -0.272814,-0.0334 -0.289517,0 -0.506655,0.11692 -0.21157,0.11692 -0.356328,0.30622 -0.139191,0.18373 -0.21157,0.42314 -0.07238,0.23384 -0.07238,0.46768 0,0.26168 0.08351,0.50666 0.08351,0.2394 0.233841,0.42314 0.155893,0.18373 0.367463,0.29508 0.217138,0.11135 0.473249,0.11135 0.133623,0 0.278381,-0.0334 0.144759,-0.0334 0.272814,-0.10579 0.133623,-0.0724 0.244976,-0.18373 0.111353,-0.11692 0.178164,-0.27838 l 0.629142,0.36189 q -0.08351,0.20601 -0.244975,0.36747 -0.155894,0.16146 -0.356329,0.27838 -0.194867,0.11692 -0.42314,0.18373 -0.228272,0.0668 -0.450978,0.0835 l -0.133623,0.206 q 0.03897,-0.0111 0.08351,-0.0167 0.05011,-0.006 0.09465,-0.006 0.194867,0 0.334058,0.0891 0.139191,0.0947 0.139191,0.30065 0,0.21157 -0.178164,0.35076 -0.172597,0.13919 -0.534493,0.13919 -0.183731,0 -0.334057,-0.0334 -0.150326,-0.0334 -0.261679,-0.0779 z"
           style="font-style:normal;font-variant:normal;font-weight:bold;font-stretch:normal;font-size:5.56763px;font-family:Raleway;-inkscape-font-specification:'Raleway, Bold';font-variant-ligatures:normal;font-variant-caps:normal;font-variant-numeric:normal;font-variant-east-asian:normal;text-align:start;text-anchor:start;fill:#ffffff;fill-opacity:1;stroke-width:0.366281"
           id="path10981" />
        <path
           d="m 29.528244,277.33455 h 0.679251 l 1.50326,3.95302 h -0.790603 l -0.367464,-0.98547 h -1.380772 l -0.361896,0.98547 h -0.790603 z m 0.885254,2.42749 -0.545628,-1.55337 -0.567898,1.55337 z m -0.194867,-2.8562 q -0.128056,0 -0.222706,-0.039 -0.09465,-0.039 -0.178164,-0.0835 -0.07795,-0.0501 -0.161461,-0.0891 -0.07795,-0.039 -0.167029,-0.039 -0.09465,0 -0.150326,0.039 -0.05011,0.039 -0.07795,0.0891 -0.02784,0.0501 -0.03341,0.0947 -0.0056,0.039 -0.0056,0.0446 H 28.81002 q 0,-0.0501 0.03341,-0.16703 0.03341,-0.12249 0.105785,-0.23941 0.07795,-0.12249 0.200435,-0.21157 0.128055,-0.0947 0.311787,-0.0947 0.128055,0 0.217137,0.0445 0.09465,0.039 0.172597,0.0891 0.08351,0.0445 0.161461,0.0891 0.08352,0.039 0.183732,0.039 0.100217,0 0.155894,-0.039 0.06124,-0.039 0.08908,-0.0891 0.03341,-0.0501 0.03897,-0.0947 0.01114,-0.0445 0.01114,-0.0557 h 0.412005 q 0,0.039 -0.03341,0.15589 -0.03341,0.11692 -0.11692,0.23941 -0.07795,0.12249 -0.21157,0.2227 -0.128055,0.0947 -0.322922,0.0947 z"
           style="font-style:normal;font-variant:normal;font-weight:bold;font-stretch:normal;font-size:5.56763px;font-family:Raleway;-inkscape-font-specification:'Raleway, Bold';font-variant-ligatures:normal;font-variant-caps:normal;font-variant-numeric:normal;font-variant-east-asian:normal;text-align:start;text-anchor:start;fill:#ffffff;fill-opacity:1;stroke-width:0.366281"
           id="path10983" />
        <path
           d="m 33.687253,281.31541 q -0.434275,0 -0.790604,-0.16703 -0.35076,-0.1726 -0.606871,-0.45098 -0.250544,-0.28395 -0.389734,-0.64585 -0.139191,-0.36189 -0.139191,-0.74049 0,-0.3953 0.144758,-0.7572 0.150326,-0.3619 0.406437,-0.64028 0.261679,-0.27838 0.618007,-0.43984 0.356328,-0.16703 0.773901,-0.16703 0.428707,0 0.779468,0.17817 0.356328,0.17259 0.606872,0.45654 0.250543,0.28395 0.389734,0.64585 0.13919,0.36189 0.13919,0.73492 0,0.39531 -0.144758,0.7572 -0.144758,0.35633 -0.400869,0.63471 -0.256111,0.27282 -0.61244,0.43984 -0.356328,0.16147 -0.7739,0.16147 z m -1.146932,-2.00435 q 0,0.25611 0.07795,0.49552 0.07795,0.23941 0.222705,0.42314 0.150326,0.18373 0.361896,0.29508 0.217138,0.11135 0.489951,0.11135 0.278382,0 0.489952,-0.11135 0.217137,-0.11692 0.361896,-0.30622 0.150326,-0.1893 0.222705,-0.42314 0.07795,-0.23941 0.07795,-0.48438 0,-0.25611 -0.08351,-0.49552 -0.07795,-0.23941 -0.228272,-0.42314 -0.144759,-0.18373 -0.361896,-0.28952 -0.21157,-0.11135 -0.478817,-0.11135 -0.278381,0 -0.495519,0.11692 -0.217137,0.11135 -0.361896,0.30065 -0.144758,0.18373 -0.222705,0.42314 -0.07238,0.23384 -0.07238,0.47882 z"
           style="font-style:normal;font-variant:normal;font-weight:bold;font-stretch:normal;font-size:5.56763px;font-family:Raleway;-inkscape-font-specification:'Raleway, Bold';font-variant-ligatures:normal;font-variant-caps:normal;font-variant-numeric:normal;font-variant-east-asian:normal;text-align:start;text-anchor:start;fill:#ffffff;fill-opacity:1;stroke-width:0.366281"
           id="path10985" />
        <path
           d="m 40.730294,280.26869 q 0,0.25054 -0.100217,0.43984 -0.100217,0.1893 -0.278381,0.31736 -0.172597,0.12805 -0.406437,0.19487 -0.228273,0.0668 -0.489952,0.0668 H 37.54561 v -3.95302 h 2.115699 q 0.206003,0 0.373032,0.0891 0.167029,0.0891 0.283949,0.23384 0.11692,0.13919 0.178164,0.32293 0.06681,0.17816 0.06681,0.36189 0,0.28952 -0.144758,0.54563 -0.144758,0.25054 -0.42314,0.37303 0.339626,0.10022 0.534493,0.3619 0.200434,0.25611 0.200434,0.64584 z m -0.7739,-0.14476 q 0,-0.10578 -0.03897,-0.20043 -0.03341,-0.10022 -0.09465,-0.1726 -0.06124,-0.0724 -0.144759,-0.11135 -0.08351,-0.0445 -0.183731,-0.0445 h -1.180338 v 1.04114 h 1.141364 q 0.105785,0 0.194867,-0.039 0.09465,-0.039 0.161461,-0.10578 0.06681,-0.0724 0.105785,-0.16703 0.03897,-0.0947 0.03897,-0.20044 z m -1.642451,-2.1324 v 0.99661 h 1.024444 q 0.194867,0 0.32849,-0.13363 0.139191,-0.13362 0.139191,-0.36746 0,-0.22827 -0.128056,-0.3619 -0.122488,-0.13362 -0.306219,-0.13362 z"
           style="font-style:normal;font-variant:normal;font-weight:bold;font-stretch:normal;font-size:5.56763px;font-family:Raleway;-inkscape-font-specification:'Raleway, Bold';font-variant-ligatures:normal;font-variant-caps:normal;font-variant-numeric:normal;font-variant-east-asian:normal;text-align:start;text-anchor:start;fill:#ffffff;fill-opacity:1;stroke-width:0.366281"
           id="path10987" />
        <path
           d="m 44.076432,280.61388 v 0.67369 H 41.33159 v -3.95302 h 2.694733 v 0.67368 h -1.9264 v 0.95207 h 1.664722 v 0.62357 h -1.664722 v 1.03001 z"
           style="font-style:normal;font-variant:normal;font-weight:bold;font-stretch:normal;font-size:5.56763px;font-family:Raleway;-inkscape-font-specification:'Raleway, Bold';font-variant-ligatures:normal;font-variant-caps:normal;font-variant-numeric:normal;font-variant-east-asian:normal;text-align:start;text-anchor:start;fill:#ffffff;fill-opacity:1;stroke-width:0.366281"
           id="path10989" />
        <path
           d="m 45.446069,278.7543 v 2.53327 h -0.768333 v -3.95302 h 0.595736 l 2.060023,2.59452 v -2.58895 h 0.768333 v 3.94745 h -0.623574 z"
           style="font-style:normal;font-variant:normal;font-weight:bold;font-stretch:normal;font-size:5.56763px;font-family:Raleway;-inkscape-font-specification:'Raleway, Bold';font-variant-ligatures:normal;font-variant-caps:normal;font-variant-numeric:normal;font-variant-east-asian:normal;text-align:start;text-anchor:start;fill:#ffffff;fill-opacity:1;stroke-width:0.366281"
           id="path10991" />
        <path
           d="m 51.67067,280.61388 v 0.67369 h -2.744841 v -3.95302 h 2.694732 v 0.67368 h -1.926399 v 0.95207 h 1.664721 v 0.62357 h -1.664721 v 1.03001 z"
           style="font-style:normal;font-variant:normal;font-weight:bold;font-stretch:normal;font-size:5.56763px;font-family:Raleway;-inkscape-font-specification:'Raleway, Bold';font-variant-ligatures:normal;font-variant-caps:normal;font-variant-numeric:normal;font-variant-east-asian:normal;text-align:start;text-anchor:start;fill:#ffffff;fill-opacity:1;stroke-width:0.366281"
           id="path10993" />
        <path
           d="m 52.271974,281.28757 v -3.95302 h 2.65576 v 0.67368 h -1.887427 v 1.01888 h 1.570072 v 0.62357 h -1.570072 v 1.63689 z"
           style="font-style:normal;font-variant:normal;font-weight:bold;font-stretch:normal;font-size:5.56763px;font-family:Raleway;-inkscape-font-specification:'Raleway, Bold';font-variant-ligatures:normal;font-variant-caps:normal;font-variant-numeric:normal;font-variant-east-asian:normal;text-align:start;text-anchor:start;fill:#ffffff;fill-opacity:1;stroke-width:0.366281"
           id="path10995" />
        <path
           d="m 55.46779,281.28757 v -3.95302 h 0.768333 v 3.95302 z"
           style="font-style:normal;font-variant:normal;font-weight:bold;font-stretch:normal;font-size:5.56763px;font-family:Raleway;-inkscape-font-specification:'Raleway, Bold';font-variant-ligatures:normal;font-variant-caps:normal;font-variant-numeric:normal;font-variant-east-asian:normal;text-align:start;text-anchor:start;fill:#ffffff;fill-opacity:1;stroke-width:0.366281"
           id="path10997" />
        <path
           d="m 56.820721,279.28322 q 0,-0.3619 0.128055,-0.71266 0.133623,-0.35632 0.384167,-0.63471 0.250543,-0.27838 0.612439,-0.45097 0.361896,-0.1726 0.824009,-0.1726 0.545628,0 0.94093,0.23941 0.400869,0.23941 0.595736,0.62357 l -0.590169,0.40644 q -0.07795,-0.16703 -0.189299,-0.27838 -0.111353,-0.11692 -0.239408,-0.18373 -0.128056,-0.0668 -0.267246,-0.0947 -0.139191,-0.0334 -0.272814,-0.0334 -0.289517,0 -0.506655,0.11692 -0.21157,0.11692 -0.356328,0.30622 -0.139191,0.18373 -0.21157,0.42314 -0.07238,0.23384 -0.07238,0.46768 0,0.26168 0.08351,0.50666 0.08351,0.2394 0.233841,0.42314 0.155893,0.18373 0.367463,0.29508 0.217138,0.11135 0.473249,0.11135 0.133623,0 0.278381,-0.0334 0.144759,-0.0334 0.272814,-0.10579 0.133623,-0.0724 0.244976,-0.18373 0.111353,-0.11692 0.178164,-0.27838 l 0.629142,0.36189 q -0.09465,0.22271 -0.272814,0.39531 -0.172596,0.16702 -0.395301,0.28394 -0.217138,0.11693 -0.467681,0.17817 -0.250544,0.0612 -0.489952,0.0612 -0.423139,0 -0.7739,-0.17816 -0.350761,-0.17817 -0.606872,-0.46211 -0.250543,-0.28952 -0.395302,-0.65142 -0.13919,-0.36746 -0.13919,-0.74606 z"
           style="font-style:normal;font-variant:normal;font-weight:bold;font-stretch:normal;font-size:5.56763px;font-family:Raleway;-inkscape-font-specification:'Raleway, Bold';font-variant-ligatures:normal;font-variant-caps:normal;font-variant-numeric:normal;font-variant-east-asian:normal;text-align:start;text-anchor:start;fill:#ffffff;fill-opacity:1;stroke-width:0.366281"
           id="path10999" />
        <path
           d="m 63.624356,280.61388 v 0.67369 h -2.744842 v -3.95302 h 2.694733 v 0.67368 h -1.9264 v 0.95207 h 1.664722 v 0.62357 h -1.664722 v 1.03001 z"
           style="font-style:normal;font-variant:normal;font-weight:bold;font-stretch:normal;font-size:5.56763px;font-family:Raleway;-inkscape-font-specification:'Raleway, Bold';font-variant-ligatures:normal;font-variant-caps:normal;font-variant-numeric:normal;font-variant-east-asian:normal;text-align:start;text-anchor:start;fill:#ffffff;fill-opacity:1;stroke-width:0.366281"
           id="path11001" />
        <path
           d="m 64.993993,278.7543 v 2.53327 H 64.22566 v -3.95302 h 0.595736 l 2.060023,2.59452 v -2.58895 h 0.768333 v 3.94745 h -0.623574 z"
           style="font-style:normal;font-variant:normal;font-weight:bold;font-stretch:normal;font-size:5.56763px;font-family:Raleway;-inkscape-font-specification:'Raleway, Bold';font-variant-ligatures:normal;font-variant-caps:normal;font-variant-numeric:normal;font-variant-east-asian:normal;text-align:start;text-anchor:start;fill:#ffffff;fill-opacity:1;stroke-width:0.366281"
           id="path11003" />
        <path
           d="m 71.430164,278.00823 h -1.263852 v 3.27934 h -0.762765 v -3.27934 h -1.263852 v -0.67368 h 3.290469 z"
           style="font-style:normal;font-variant:normal;font-weight:bold;font-stretch:normal;font-size:5.56763px;font-family:Raleway;-inkscape-font-specification:'Raleway, Bold';font-variant-ligatures:normal;font-variant-caps:normal;font-variant-numeric:normal;font-variant-east-asian:normal;text-align:start;text-anchor:start;fill:#ffffff;fill-opacity:1;stroke-width:0.366281"
           id="path11005" />
        <path
           d="m 74.664952,280.61388 v 0.67369 H 71.92011 v -3.95302 h 2.694733 v 0.67368 h -1.9264 v 0.95207 h 1.664722 v 0.62357 h -1.664722 v 1.03001 z"
           style="font-style:normal;font-variant:normal;font-weight:bold;font-stretch:normal;font-size:5.56763px;font-family:Raleway;-inkscape-font-specification:'Raleway, Bold';font-variant-ligatures:normal;font-variant-caps:normal;font-variant-numeric:normal;font-variant-east-asian:normal;text-align:start;text-anchor:start;fill:#ffffff;fill-opacity:1;stroke-width:0.366281"
           id="path11007" />
      </g>
      <g
         aria-label="DA INDÚSTRIA CARBONÍFERA "
         id="text10951"
         style="font-style:normal;font-variant:normal;font-weight:normal;font-stretch:normal;font-size:5.56763px;line-height:1.25;font-family:Raleway;-inkscape-font-specification:'Raleway, Normal';font-variant-ligatures:normal;font-variant-caps:normal;font-variant-numeric:normal;font-variant-east-asian:normal;text-align:start;text-anchor:start;fill:#ffffff;fill-opacity:1;stroke:none;stroke-width:0.366281">
        <path
           d="m 1.0109109,287.63757 v -3.95301 h 1.3417988 q 0.4732485,0 0.8240092,0.15589 0.3563283,0.15589 0.5901687,0.42314 0.2394081,0.26725 0.3563283,0.62914 0.1224879,0.35633 0.1224879,0.76277 0,0.45098 -0.1336231,0.81844 -0.1336231,0.36189 -0.3841665,0.62357 -0.2449757,0.25611 -0.5957364,0.40087 -0.345193,0.13919 -0.7794681,0.13919 z m 2.8450588,-1.98207 q 0,-0.35633 -0.1002173,-0.65142 Q 3.655535,284.70343 3.460668,284.48629 3.2713686,284.26916 2.9929871,284.15224 2.7146056,284.02975 2.3527097,284.02975 H 1.400645 v 3.26263 h 0.9520647 q 0.3674635,0 0.645845,-0.12249 0.2839491,-0.12805 0.4732486,-0.34519 0.1892994,-0.22271 0.2839491,-0.51779 0.1002173,-0.30065 0.1002173,-0.65141 z"
           style="font-style:normal;font-variant:normal;font-weight:normal;font-stretch:normal;font-size:5.56763px;font-family:Raleway;-inkscape-font-specification:'Raleway, Normal';font-variant-ligatures:normal;font-variant-caps:normal;font-variant-numeric:normal;font-variant-east-asian:normal;text-align:start;text-anchor:start;fill:#ffffff;fill-opacity:1;stroke-width:0.366281"
           id="path11010" />
        <path
           d="m 6.0774356,283.68456 h 0.3284902 l 1.6424508,3.95301 H 7.636372 L 7.12415,286.40156 H 5.3480761 l -0.5066543,1.23601 H 4.4238496 Z m 0.9576324,2.41078 -0.7961711,-1.95424 -0.8073063,1.95424 z"
           style="font-style:normal;font-variant:normal;font-weight:normal;font-stretch:normal;font-size:5.56763px;font-family:Raleway;-inkscape-font-specification:'Raleway, Normal';font-variant-ligatures:normal;font-variant-caps:normal;font-variant-numeric:normal;font-variant-east-asian:normal;text-align:start;text-anchor:start;fill:#ffffff;fill-opacity:1;stroke-width:0.366281"
           id="path11012" />
        <path
           d="m 9.8634108,287.63757 v -3.95301 h 0.3897342 v 3.95301 z"
           style="font-style:normal;font-variant:normal;font-weight:normal;font-stretch:normal;font-size:5.56763px;font-family:Raleway;-inkscape-font-specification:'Raleway, Normal';font-variant-ligatures:normal;font-variant-caps:normal;font-variant-numeric:normal;font-variant-east-asian:normal;text-align:start;text-anchor:start;fill:#ffffff;fill-opacity:1;stroke-width:0.366281"
           id="path11014" />
        <path
           d="m 11.633913,284.40835 v 3.22922 h -0.389734 v -3.95301 h 0.300652 l 2.616786,3.29047 v -3.28491 h 0.389734 v 3.94745 h -0.339626 z"
           style="font-style:normal;font-variant:normal;font-weight:normal;font-stretch:normal;font-size:5.56763px;font-family:Raleway;-inkscape-font-specification:'Raleway, Normal';font-variant-ligatures:normal;font-variant-caps:normal;font-variant-numeric:normal;font-variant-east-asian:normal;text-align:start;text-anchor:start;fill:#ffffff;fill-opacity:1;stroke-width:0.366281"
           id="path11016" />
        <path
           d="m 15.542386,287.63757 v -3.95301 h 1.341799 q 0.473248,0 0.824009,0.15589 0.356328,0.15589 0.590169,0.42314 0.239408,0.26725 0.356328,0.62914 0.122488,0.35633 0.122488,0.76277 0,0.45098 -0.133623,0.81844 -0.133623,0.36189 -0.384167,0.62357 -0.244975,0.25611 -0.595736,0.40087 -0.345193,0.13919 -0.779468,0.13919 z m 2.845059,-1.98207 q 0,-0.35633 -0.100218,-0.65142 -0.100217,-0.30065 -0.295084,-0.51779 -0.189299,-0.21713 -0.467681,-0.33405 -0.278381,-0.12249 -0.640277,-0.12249 H 15.93212 v 3.26263 h 0.952065 q 0.367463,0 0.645845,-0.12249 0.283949,-0.12805 0.473248,-0.34519 0.1893,-0.22271 0.283949,-0.51779 0.100218,-0.30065 0.100218,-0.65141 z"
           style="font-style:normal;font-variant:normal;font-weight:normal;font-stretch:normal;font-size:5.56763px;font-family:Raleway;-inkscape-font-specification:'Raleway, Normal';font-variant-ligatures:normal;font-variant-caps:normal;font-variant-numeric:normal;font-variant-east-asian:normal;text-align:start;text-anchor:start;fill:#ffffff;fill-opacity:1;stroke-width:0.366281"
           id="path11018" />
        <path
           d="m 21.171249,283.1445 -0.250543,-0.0947 0.32849,-0.51779 h 0.400869 z m -0.04454,4.17015 q 0.373031,0 0.618007,-0.13919 0.250543,-0.14476 0.395301,-0.37303 0.150326,-0.23384 0.206003,-0.52893 0.06124,-0.29508 0.06124,-0.59573 v -1.99321 h 0.389734 v 1.99321 q 0,0.40087 -0.08908,0.76276 -0.08908,0.35633 -0.289517,0.62915 -0.194867,0.27281 -0.512222,0.43427 -0.317355,0.16146 -0.773901,0.16146 -0.46768,0 -0.790603,-0.16703 -0.317355,-0.17259 -0.512222,-0.45098 -0.194867,-0.27838 -0.278381,-0.63471 -0.08351,-0.35632 -0.08351,-0.73492 v -1.99321 h 0.384167 v 1.99321 q 0,0.31178 0.06124,0.60687 0.06124,0.29508 0.206002,0.52336 0.150326,0.22827 0.395302,0.36746 0.244975,0.13919 0.61244,0.13919 z"
           style="font-style:normal;font-variant:normal;font-weight:normal;font-stretch:normal;font-size:5.56763px;font-family:Raleway;-inkscape-font-specification:'Raleway, Normal';font-variant-ligatures:normal;font-variant-caps:normal;font-variant-numeric:normal;font-variant-east-asian:normal;text-align:start;text-anchor:start;fill:#ffffff;fill-opacity:1;stroke-width:0.366281"
           id="path11020" />
        <path
           d="m 26.037353,284.42505 q -0.167029,-0.1893 -0.445411,-0.30622 -0.278381,-0.11692 -0.634709,-0.11692 -0.523358,0 -0.762766,0.20044 -0.239408,0.19486 -0.239408,0.53449 0,0.17816 0.06124,0.29508 0.06681,0.11136 0.200435,0.19487 0.133623,0.0835 0.339625,0.14476 0.21157,0.0612 0.495519,0.12249 0.317355,0.0668 0.567899,0.15032 0.256111,0.0835 0.434275,0.21157 0.178164,0.12249 0.272814,0.30065 0.09465,0.17817 0.09465,0.44541 0,0.27282 -0.105785,0.47325 -0.105785,0.20044 -0.295084,0.33406 -0.189299,0.13362 -0.450978,0.20044 -0.261679,0.0612 -0.573466,0.0612 -0.918659,0 -1.586774,-0.57347 l 0.194867,-0.31735 q 0.105785,0.11135 0.250543,0.21157 0.150326,0.10022 0.32849,0.17816 0.183732,0.0724 0.389734,0.11692 0.206003,0.039 0.434275,0.039 0.473249,0 0.734927,-0.16703 0.267247,-0.1726 0.267247,-0.51779 0,-0.18373 -0.07795,-0.30622 -0.07238,-0.12806 -0.222705,-0.21714 -0.150326,-0.0947 -0.373031,-0.16146 -0.222706,-0.0668 -0.51779,-0.13362 -0.311787,-0.0724 -0.545628,-0.15033 -0.23384,-0.0779 -0.395301,-0.19487 -0.161462,-0.11692 -0.244976,-0.27838 -0.07795,-0.16703 -0.07795,-0.40644 0,-0.27281 0.100217,-0.48438 0.105785,-0.21714 0.295085,-0.35633 0.189299,-0.14476 0.44541,-0.21714 0.256111,-0.0779 0.567898,-0.0779 0.395302,0 0.701522,0.12249 0.311787,0.11692 0.56233,0.33405 z"
           style="font-style:normal;font-variant:normal;font-weight:normal;font-stretch:normal;font-size:5.56763px;font-family:Raleway;-inkscape-font-specification:'Raleway, Normal';font-variant-ligatures:normal;font-variant-caps:normal;font-variant-numeric:normal;font-variant-east-asian:normal;text-align:start;text-anchor:start;fill:#ffffff;fill-opacity:1;stroke-width:0.366281"
           id="path11022" />
        <path
           d="m 29.884572,284.02975 h -1.408611 v 3.60782 h -0.389734 v -3.60782 h -1.40861 v -0.34519 h 3.206955 z"
           style="font-style:normal;font-variant:normal;font-weight:normal;font-stretch:normal;font-size:5.56763px;font-family:Raleway;-inkscape-font-specification:'Raleway, Normal';font-variant-ligatures:normal;font-variant-caps:normal;font-variant-numeric:normal;font-variant-east-asian:normal;text-align:start;text-anchor:start;fill:#ffffff;fill-opacity:1;stroke-width:0.366281"
           id="path11024" />
        <path
           d="m 30.474732,287.63757 v -3.95301 h 1.670289 q 0.256111,0 0.467681,0.11135 0.217138,0.10578 0.373031,0.28395 0.155894,0.17259 0.239408,0.3953 0.08908,0.2227 0.08908,0.45098 0,0.21714 -0.06681,0.41757 -0.06124,0.19487 -0.178164,0.35633 -0.111353,0.15589 -0.272814,0.26724 -0.161461,0.10579 -0.361896,0.14476 l 0.968768,1.52553 h -0.439843 l -0.929794,-1.45872 h -1.169203 v 1.45872 z m 0.389734,-1.80391 h 1.29169 q 0.172597,0 0.311788,-0.0724 0.144758,-0.0779 0.244975,-0.206 0.100218,-0.12806 0.155894,-0.28952 0.05568,-0.16146 0.05568,-0.33962 0,-0.17817 -0.06681,-0.33963 -0.06124,-0.16703 -0.172597,-0.28951 -0.105785,-0.12249 -0.256111,-0.19487 -0.144758,-0.0724 -0.306219,-0.0724 h -1.258285 z"
           style="font-style:normal;font-variant:normal;font-weight:normal;font-stretch:normal;font-size:5.56763px;font-family:Raleway;-inkscape-font-specification:'Raleway, Normal';font-variant-ligatures:normal;font-variant-caps:normal;font-variant-numeric:normal;font-variant-east-asian:normal;text-align:start;text-anchor:start;fill:#ffffff;fill-opacity:1;stroke-width:0.366281"
           id="path11026" />
        <path
           d="m 34.110394,287.63757 v -3.95301 h 0.389734 v 3.95301 z"
           style="font-style:normal;font-variant:normal;font-weight:normal;font-stretch:normal;font-size:5.56763px;font-family:Raleway;-inkscape-font-specification:'Raleway, Normal';font-variant-ligatures:normal;font-variant-caps:normal;font-variant-numeric:normal;font-variant-east-asian:normal;text-align:start;text-anchor:start;fill:#ffffff;fill-opacity:1;stroke-width:0.366281"
           id="path11028" />
        <path
           d="m 36.716041,283.68456 h 0.32849 l 1.642451,3.95301 h -0.412005 l -0.512222,-1.23601 h -1.776074 l -0.506654,1.23601 h -0.417572 z m 0.957632,2.41078 -0.796171,-1.95424 -0.807306,1.95424 z"
           style="font-style:normal;font-variant:normal;font-weight:normal;font-stretch:normal;font-size:5.56763px;font-family:Raleway;-inkscape-font-specification:'Raleway, Normal';font-variant-ligatures:normal;font-variant-caps:normal;font-variant-numeric:normal;font-variant-east-asian:normal;text-align:start;text-anchor:start;fill:#ffffff;fill-opacity:1;stroke-width:0.366281"
           id="path11030" />
        <path
           d="m 40.240336,285.63323 q 0,-0.35633 0.122488,-0.70709 0.128056,-0.35633 0.367464,-0.63471 0.239408,-0.27838 0.590169,-0.45098 0.35076,-0.17816 0.796171,-0.17816 0.528924,0 0.901956,0.2394 0.378599,0.23941 0.556763,0.62358 l -0.30622,0.1893 q -0.09465,-0.19487 -0.23384,-0.32849 -0.133624,-0.13363 -0.289517,-0.21714 -0.155894,-0.0835 -0.322923,-0.11692 -0.167029,-0.039 -0.32849,-0.039 -0.356328,0 -0.629142,0.14475 -0.272814,0.14476 -0.462113,0.3786 -0.183732,0.23384 -0.278382,0.52893 -0.09465,0.28952 -0.09465,0.59017 0,0.32849 0.111353,0.62914 0.11692,0.30065 0.311787,0.53449 0.200435,0.22827 0.467681,0.36747 0.272814,0.13362 0.590169,0.13362 0.167029,0 0.339625,-0.039 0.178165,-0.0445 0.339626,-0.13362 0.167029,-0.0947 0.306219,-0.22827 0.139191,-0.13919 0.233841,-0.33406 l 0.322922,0.16703 q -0.09465,0.22271 -0.267246,0.3953 -0.172596,0.16703 -0.384166,0.28395 -0.21157,0.11692 -0.450978,0.17817 -0.233841,0.0612 -0.462113,0.0612 -0.406437,0 -0.746063,-0.17817 -0.339625,-0.17816 -0.584601,-0.46211 -0.244976,-0.28952 -0.384166,-0.65141 -0.133624,-0.36746 -0.133624,-0.74606 z"
           style="font-style:normal;font-variant:normal;font-weight:normal;font-stretch:normal;font-size:5.56763px;font-family:Raleway;-inkscape-font-specification:'Raleway, Normal';font-variant-ligatures:normal;font-variant-caps:normal;font-variant-numeric:normal;font-variant-east-asian:normal;text-align:start;text-anchor:start;fill:#ffffff;fill-opacity:1;stroke-width:0.366281"
           id="path11032" />
        <path
           d="m 45.490604,283.68456 h 0.32849 l 1.642451,3.95301 H 47.04954 l -0.512222,-1.23601 h -1.776074 l -0.506654,1.23601 h -0.417572 z m 0.957632,2.41078 -0.796171,-1.95424 -0.807306,1.95424 z"
           style="font-style:normal;font-variant:normal;font-weight:normal;font-stretch:normal;font-size:5.56763px;font-family:Raleway;-inkscape-font-specification:'Raleway, Normal';font-variant-ligatures:normal;font-variant-caps:normal;font-variant-numeric:normal;font-variant-east-asian:normal;text-align:start;text-anchor:start;fill:#ffffff;fill-opacity:1;stroke-width:0.366281"
           id="path11034" />
        <path
           d="m 48.029435,287.63757 v -3.95301 h 1.670289 q 0.256111,0 0.467681,0.11135 0.217137,0.10578 0.373031,0.28395 0.155894,0.17259 0.239408,0.3953 0.08908,0.2227 0.08908,0.45098 0,0.21714 -0.06681,0.41757 -0.06124,0.19487 -0.178164,0.35633 -0.111353,0.15589 -0.272814,0.26724 -0.161462,0.10579 -0.361896,0.14476 l 0.968767,1.52553 h -0.439842 l -0.929795,-1.45872 h -1.169202 v 1.45872 z m 0.389734,-1.80391 h 1.29169 q 0.172597,0 0.311788,-0.0724 0.144758,-0.0779 0.244975,-0.206 0.100218,-0.12806 0.155894,-0.28952 0.05568,-0.16146 0.05568,-0.33962 0,-0.17817 -0.06681,-0.33963 -0.06124,-0.16703 -0.172597,-0.28951 -0.105785,-0.12249 -0.256111,-0.19487 -0.144758,-0.0724 -0.30622,-0.0724 h -1.258284 z"
           style="font-style:normal;font-variant:normal;font-weight:normal;font-stretch:normal;font-size:5.56763px;font-family:Raleway;-inkscape-font-specification:'Raleway, Normal';font-variant-ligatures:normal;font-variant-caps:normal;font-variant-numeric:normal;font-variant-east-asian:normal;text-align:start;text-anchor:start;fill:#ffffff;fill-opacity:1;stroke-width:0.366281"
           id="path11036" />
        <path
           d="m 54.638211,286.6187 q 0,0.2227 -0.08908,0.412 -0.08908,0.18373 -0.239408,0.32292 -0.150326,0.13363 -0.35076,0.21157 -0.200435,0.0724 -0.428708,0.0724 h -1.865156 v -3.95301 h 1.90413 q 0.206002,0 0.373031,0.0891 0.167029,0.0891 0.283949,0.23384 0.11692,0.13919 0.178164,0.32292 0.06681,0.17817 0.06681,0.3619 0,0.30065 -0.150326,0.55119 -0.150326,0.24498 -0.417573,0.36747 0.339626,0.10021 0.534493,0.37303 0.200434,0.27281 0.200434,0.63471 z m -0.389734,-0.0668 q 0,-0.14476 -0.05011,-0.27839 -0.05011,-0.13919 -0.144759,-0.2394 -0.08908,-0.10579 -0.217137,-0.16703 -0.122488,-0.0668 -0.267246,-0.0668 h -1.514396 v 1.49769 h 1.475422 q 0.150326,0 0.278382,-0.0613 0.133623,-0.0612 0.228272,-0.16146 0.100218,-0.10578 0.155894,-0.23941 0.05568,-0.13919 0.05568,-0.28394 z m -2.193646,-2.52771 v 1.45872 h 1.358502 q 0.144758,0 0.267246,-0.0612 0.128056,-0.0612 0.217138,-0.16146 0.08908,-0.10022 0.13919,-0.22828 0.05011,-0.13362 0.05011,-0.27838 0,-0.15033 -0.05011,-0.28395 -0.04454,-0.13362 -0.133623,-0.22827 -0.08351,-0.10022 -0.200434,-0.15589 -0.116921,-0.0612 -0.256111,-0.0612 z"
           style="font-style:normal;font-variant:normal;font-weight:normal;font-stretch:normal;font-size:5.56763px;font-family:Raleway;-inkscape-font-specification:'Raleway, Normal';font-variant-ligatures:normal;font-variant-caps:normal;font-variant-numeric:normal;font-variant-east-asian:normal;text-align:start;text-anchor:start;fill:#ffffff;fill-opacity:1;stroke-width:0.366281"
           id="path11038" />
        <path
           d="m 56.965474,287.66541 q -0.412005,0 -0.757198,-0.16703 -0.339625,-0.17259 -0.584601,-0.45098 -0.244976,-0.28394 -0.378599,-0.64584 -0.133623,-0.3619 -0.133623,-0.7405 0,-0.3953 0.139191,-0.75719 0.144758,-0.3619 0.395302,-0.64028 0.250543,-0.27838 0.590168,-0.43984 0.339626,-0.16703 0.734927,-0.16703 0.412005,0 0.75163,0.17816 0.345193,0.1726 0.584602,0.45655 0.244975,0.28395 0.378598,0.64584 0.133623,0.35633 0.133623,0.72936 0,0.3953 -0.144758,0.7572 -0.139191,0.3619 -0.389734,0.64028 -0.244976,0.27281 -0.584601,0.43984 -0.339626,0.16146 -0.734927,0.16146 z m -1.464287,-2.00435 q 0,0.32293 0.105785,0.62358 0.105785,0.29508 0.300652,0.52892 0.194867,0.22828 0.462113,0.36747 0.267247,0.13362 0.595737,0.13362 0.334058,0 0.606871,-0.14476 0.272814,-0.14476 0.462114,-0.3786 0.189299,-0.23384 0.289516,-0.52892 0.105785,-0.29509 0.105785,-0.60131 0,-0.32292 -0.111352,-0.618 -0.105785,-0.30065 -0.300652,-0.52893 -0.194867,-0.22827 -0.462113,-0.36189 -0.267247,-0.13919 -0.590169,-0.13919 -0.334058,0 -0.606872,0.14475 -0.272814,0.1392 -0.462113,0.37304 -0.1893,0.23384 -0.295085,0.52892 -0.100217,0.29509 -0.100217,0.6013 z"
           style="font-style:normal;font-variant:normal;font-weight:normal;font-stretch:normal;font-size:5.56763px;font-family:Raleway;-inkscape-font-specification:'Raleway, Normal';font-variant-ligatures:normal;font-variant-caps:normal;font-variant-numeric:normal;font-variant-east-asian:normal;text-align:start;text-anchor:start;fill:#ffffff;fill-opacity:1;stroke-width:0.366281"
           id="path11040" />
        <path
           d="m 59.944152,284.40835 v 3.22922 h -0.389734 v -3.95301 h 0.300652 l 2.616786,3.29047 v -3.28491 h 0.389734 v 3.94745 h -0.339626 z"
           style="font-style:normal;font-variant:normal;font-weight:normal;font-stretch:normal;font-size:5.56763px;font-family:Raleway;-inkscape-font-specification:'Raleway, Normal';font-variant-ligatures:normal;font-variant-caps:normal;font-variant-numeric:normal;font-variant-east-asian:normal;text-align:start;text-anchor:start;fill:#ffffff;fill-opacity:1;stroke-width:0.366281"
           id="path11042" />
        <path
           d="m 63.852624,287.63757 v -3.95301 h 0.389734 v 3.95301 z m 0.228273,-4.49307 -0.250544,-0.0947 0.32849,-0.51779 h 0.40087 z"
           style="font-style:normal;font-variant:normal;font-weight:normal;font-stretch:normal;font-size:5.56763px;font-family:Raleway;-inkscape-font-specification:'Raleway, Normal';font-variant-ligatures:normal;font-variant-caps:normal;font-variant-numeric:normal;font-variant-east-asian:normal;text-align:start;text-anchor:start;fill:#ffffff;fill-opacity:1;stroke-width:0.366281"
           id="path11044" />
        <path
           d="m 65.233392,287.63757 v -3.95301 h 2.594515 v 0.34519 h -2.204781 v 1.45315 h 1.859588 v 0.32292 h -1.859588 v 1.83175 z"
           style="font-style:normal;font-variant:normal;font-weight:normal;font-stretch:normal;font-size:5.56763px;font-family:Raleway;-inkscape-font-specification:'Raleway, Normal';font-variant-ligatures:normal;font-variant-caps:normal;font-variant-numeric:normal;font-variant-east-asian:normal;text-align:start;text-anchor:start;fill:#ffffff;fill-opacity:1;stroke-width:0.366281"
           id="path11046" />
        <path
           d="m 71.168478,287.29238 v 0.34519 h -2.655759 v -3.95301 h 2.605651 v 0.34519 h -2.215917 v 1.42531 h 1.931968 v 0.32849 h -1.931968 v 1.50883 z"
           style="font-style:normal;font-variant:normal;font-weight:normal;font-stretch:normal;font-size:5.56763px;font-family:Raleway;-inkscape-font-specification:'Raleway, Normal';font-variant-ligatures:normal;font-variant-caps:normal;font-variant-numeric:normal;font-variant-east-asian:normal;text-align:start;text-anchor:start;fill:#ffffff;fill-opacity:1;stroke-width:0.366281"
           id="path11048" />
        <path
           d="m 71.903405,287.63757 v -3.95301 h 1.670289 q 0.256111,0 0.467681,0.11135 0.217137,0.10578 0.373031,0.28395 0.155894,0.17259 0.239408,0.3953 0.08908,0.2227 0.08908,0.45098 0,0.21714 -0.06681,0.41757 -0.06124,0.19487 -0.178164,0.35633 -0.111353,0.15589 -0.272814,0.26724 -0.161462,0.10579 -0.361896,0.14476 l 0.968767,1.52553 h -0.439842 l -0.929795,-1.45872 h -1.169202 v 1.45872 z m 0.389734,-1.80391 h 1.29169 q 0.172597,0 0.311788,-0.0724 0.144758,-0.0779 0.244975,-0.206 0.100218,-0.12806 0.155894,-0.28952 0.05568,-0.16146 0.05568,-0.33962 0,-0.17817 -0.06681,-0.33963 -0.06124,-0.16703 -0.172597,-0.28951 -0.105785,-0.12249 -0.256111,-0.19487 -0.144758,-0.0724 -0.306219,-0.0724 h -1.258285 z"
           style="font-style:normal;font-variant:normal;font-weight:normal;font-stretch:normal;font-size:5.56763px;font-family:Raleway;-inkscape-font-specification:'Raleway, Normal';font-variant-ligatures:normal;font-variant-caps:normal;font-variant-numeric:normal;font-variant-east-asian:normal;text-align:start;text-anchor:start;fill:#ffffff;fill-opacity:1;stroke-width:0.366281"
           id="path11050" />
        <path
           d="m 76.702693,283.68456 h 0.32849 l 1.642451,3.95301 h -0.412005 l -0.512221,-1.23601 h -1.776074 l -0.506655,1.23601 h -0.417572 z m 0.957632,2.41078 -0.796171,-1.95424 -0.807306,1.95424 z"
           style="font-style:normal;font-variant:normal;font-weight:normal;font-stretch:normal;font-size:5.56763px;font-family:Raleway;-inkscape-font-specification:'Raleway, Normal';font-variant-ligatures:normal;font-variant-caps:normal;font-variant-numeric:normal;font-variant-east-asian:normal;text-align:start;text-anchor:start;fill:#ffffff;fill-opacity:1;stroke-width:0.366281"
           id="path11052" />
      </g>
      <g
         aria-label="DE SANTA CATARINA (SATC)"
         id="text10955"
         style="font-style:normal;font-variant:normal;font-weight:normal;font-stretch:normal;font-size:5.56763px;line-height:1.25;font-family:Raleway;-inkscape-font-specification:'Raleway, Normal';font-variant-ligatures:normal;font-variant-caps:normal;font-variant-numeric:normal;font-variant-east-asian:normal;text-align:start;text-anchor:start;fill:#ffffff;fill-opacity:1;stroke:none;stroke-width:0.366281">
        <path
           d="m 1.0109109,293.98746 v -3.95302 h 1.3417988 q 0.4732485,0 0.8240092,0.15589 0.3563283,0.1559 0.5901687,0.42314 0.2394081,0.26725 0.3563283,0.62915 0.1224879,0.35632 0.1224879,0.76276 0,0.45098 -0.1336231,0.81844 -0.1336231,0.3619 -0.3841665,0.62358 -0.2449757,0.25611 -0.5957364,0.40087 -0.345193,0.13919 -0.7794681,0.13919 z m 2.8450588,-1.98208 q 0,-0.35633 -0.1002173,-0.65141 Q 3.655535,291.05332 3.460668,290.83618 3.2713686,290.61904 2.9929871,290.50212 2.7146056,290.37963 2.3527097,290.37963 H 1.400645 v 3.26263 h 0.9520647 q 0.3674635,0 0.645845,-0.12248 0.2839491,-0.12806 0.4732486,-0.3452 0.1892994,-0.2227 0.2839491,-0.51779 0.1002173,-0.30065 0.1002173,-0.65141 z"
           style="font-style:normal;font-variant:normal;font-weight:normal;font-stretch:normal;font-size:5.56763px;font-family:Raleway;-inkscape-font-specification:'Raleway, Normal';font-variant-ligatures:normal;font-variant-caps:normal;font-variant-numeric:normal;font-variant-east-asian:normal;text-align:start;text-anchor:start;fill:#ffffff;fill-opacity:1;stroke-width:0.366281"
           id="path11055" />
        <path
           d="m 7.6475158,293.64226 v 0.3452 H 4.9917563 v -3.95302 h 2.6056508 v 0.34519 H 5.3814904 v 1.42532 H 7.313458 v 0.32849 H 5.3814904 v 1.50882 z"
           style="font-style:normal;font-variant:normal;font-weight:normal;font-stretch:normal;font-size:5.56763px;font-family:Raleway;-inkscape-font-specification:'Raleway, Normal';font-variant-ligatures:normal;font-variant-caps:normal;font-variant-numeric:normal;font-variant-east-asian:normal;text-align:start;text-anchor:start;fill:#ffffff;fill-opacity:1;stroke-width:0.366281"
           id="path11057" />
        <path
           d="m 12.112747,290.77493 q -0.167029,-0.18929 -0.445411,-0.30621 -0.278381,-0.11692 -0.63471,-0.11692 -0.523357,0 -0.762765,0.20043 -0.239408,0.19487 -0.239408,0.53449 0,0.17817 0.06124,0.29509 0.06681,0.11135 0.200435,0.19486 0.133623,0.0835 0.339625,0.14476 0.21157,0.0613 0.495519,0.12249 0.317355,0.0668 0.567898,0.15033 0.256111,0.0835 0.434275,0.21157 0.178165,0.12248 0.272814,0.30065 0.09465,0.17816 0.09465,0.44541 0,0.27281 -0.105785,0.47325 -0.105785,0.20043 -0.295084,0.33405 -0.1893,0.13363 -0.450978,0.20044 -0.261679,0.0612 -0.573466,0.0612 -0.918659,0 -1.5867747,-0.57346 L 9.6796883,293.13 q 0.105785,0.11135 0.2505434,0.21157 0.1503263,0.10022 0.3284903,0.17817 0.183732,0.0724 0.389734,0.11692 0.206002,0.039 0.434275,0.039 0.473249,0 0.734927,-0.16703 0.267246,-0.1726 0.267246,-0.51779 0,-0.18373 -0.07795,-0.30622 -0.07238,-0.12805 -0.222706,-0.21714 -0.150326,-0.0947 -0.373031,-0.16146 -0.222705,-0.0668 -0.517789,-0.13362 -0.311788,-0.0724 -0.545628,-0.15033 -0.233841,-0.0779 -0.3953018,-0.19486 -0.1614613,-0.11692 -0.2449757,-0.27838 -0.077947,-0.16703 -0.077947,-0.40644 0,-0.27282 0.1002173,-0.48439 0.105785,-0.21713 0.2950842,-0.35632 0.1893,-0.14476 0.445411,-0.21714 0.256111,-0.0779 0.567898,-0.0779 0.395302,0 0.701521,0.12249 0.311788,0.11692 0.562331,0.33406 z"
           style="font-style:normal;font-variant:normal;font-weight:normal;font-stretch:normal;font-size:5.56763px;font-family:Raleway;-inkscape-font-specification:'Raleway, Normal';font-variant-ligatures:normal;font-variant-caps:normal;font-variant-numeric:normal;font-variant-east-asian:normal;text-align:start;text-anchor:start;fill:#ffffff;fill-opacity:1;stroke-width:0.366281"
           id="path11059" />
        <path
           d="m 14.339784,290.03444 h 0.32849 l 1.642451,3.95302 H 15.89872 l -0.512222,-1.23602 h -1.776074 l -0.506654,1.23602 h -0.417572 z m 0.957632,2.41078 -0.796171,-1.95423 -0.807306,1.95423 z"
           style="font-style:normal;font-variant:normal;font-weight:normal;font-stretch:normal;font-size:5.56763px;font-family:Raleway;-inkscape-font-specification:'Raleway, Normal';font-variant-ligatures:normal;font-variant-caps:normal;font-variant-numeric:normal;font-variant-east-asian:normal;text-align:start;text-anchor:start;fill:#ffffff;fill-opacity:1;stroke-width:0.366281"
           id="path11061" />
        <path
           d="m 17.268349,290.75823 v 3.22923 h -0.389734 v -3.95302 h 0.300652 l 2.616786,3.29047 v -3.2849 h 0.389734 v 3.94745 h -0.339625 z"
           style="font-style:normal;font-variant:normal;font-weight:normal;font-stretch:normal;font-size:5.56763px;font-family:Raleway;-inkscape-font-specification:'Raleway, Normal';font-variant-ligatures:normal;font-variant-caps:normal;font-variant-numeric:normal;font-variant-east-asian:normal;text-align:start;text-anchor:start;fill:#ffffff;fill-opacity:1;stroke-width:0.366281"
           id="path11063" />
        <path
           d="m 23.982907,290.37963 h -1.40861 v 3.60783 h -0.389734 v -3.60783 h -1.408611 v -0.34519 h 3.206955 z"
           style="font-style:normal;font-variant:normal;font-weight:normal;font-stretch:normal;font-size:5.56763px;font-family:Raleway;-inkscape-font-specification:'Raleway, Normal';font-variant-ligatures:normal;font-variant-caps:normal;font-variant-numeric:normal;font-variant-east-asian:normal;text-align:start;text-anchor:start;fill:#ffffff;fill-opacity:1;stroke-width:0.366281"
           id="path11065" />
        <path
           d="m 25.408204,290.03444 h 0.32849 l 1.642451,3.95302 h -0.412004 l -0.512222,-1.23602 h -1.776074 l -0.506655,1.23602 h -0.417572 z m 0.957633,2.41078 -0.796172,-1.95423 -0.807306,1.95423 z"
           style="font-style:normal;font-variant:normal;font-weight:normal;font-stretch:normal;font-size:5.56763px;font-family:Raleway;-inkscape-font-specification:'Raleway, Normal';font-variant-ligatures:normal;font-variant-caps:normal;font-variant-numeric:normal;font-variant-east-asian:normal;text-align:start;text-anchor:start;fill:#ffffff;fill-opacity:1;stroke-width:0.366281"
           id="path11067" />
        <path
           d="m 28.932502,291.98311 q 0,-0.35633 0.122488,-0.70709 0.128055,-0.35633 0.367463,-0.63471 0.239408,-0.27838 0.590169,-0.45098 0.350761,-0.17816 0.796171,-0.17816 0.528925,0 0.901956,0.23941 0.378599,0.23941 0.556763,0.62357 l -0.30622,0.1893 q -0.09465,-0.19487 -0.23384,-0.32849 -0.133623,-0.13362 -0.289517,-0.21714 -0.155893,-0.0835 -0.322922,-0.11692 -0.167029,-0.039 -0.32849,-0.039 -0.356329,0 -0.629143,0.14476 -0.272814,0.14476 -0.462113,0.3786 -0.183732,0.23384 -0.278381,0.52892 -0.09465,0.28952 -0.09465,0.59017 0,0.32849 0.111352,0.62914 0.116921,0.30066 0.311788,0.5345 0.200434,0.22827 0.467681,0.36746 0.272813,0.13362 0.590168,0.13362 0.167029,0 0.339626,-0.039 0.178164,-0.0445 0.339625,-0.13362 0.167029,-0.0947 0.30622,-0.22828 0.139191,-0.13919 0.23384,-0.33405 l 0.322923,0.16702 q -0.09465,0.22271 -0.267246,0.39531 -0.172597,0.16702 -0.384167,0.28394 -0.21157,0.11693 -0.450978,0.17817 -0.23384,0.0612 -0.462113,0.0612 -0.406437,0 -0.746063,-0.17816 -0.339625,-0.17817 -0.584601,-0.46211 -0.244975,-0.28952 -0.384166,-0.65142 -0.133623,-0.36746 -0.133623,-0.74606 z"
           style="font-style:normal;font-variant:normal;font-weight:normal;font-stretch:normal;font-size:5.56763px;font-family:Raleway;-inkscape-font-specification:'Raleway, Normal';font-variant-ligatures:normal;font-variant-caps:normal;font-variant-numeric:normal;font-variant-east-asian:normal;text-align:start;text-anchor:start;fill:#ffffff;fill-opacity:1;stroke-width:0.366281"
           id="path11069" />
        <path
           d="m 34.182769,290.03444 h 0.32849 l 1.642451,3.95302 h -0.412005 l -0.512222,-1.23602 h -1.776074 l -0.506654,1.23602 h -0.417572 z m 0.957632,2.41078 -0.796171,-1.95423 -0.807306,1.95423 z"
           style="font-style:normal;font-variant:normal;font-weight:normal;font-stretch:normal;font-size:5.56763px;font-family:Raleway;-inkscape-font-specification:'Raleway, Normal';font-variant-ligatures:normal;font-variant-caps:normal;font-variant-numeric:normal;font-variant-east-asian:normal;text-align:start;text-anchor:start;fill:#ffffff;fill-opacity:1;stroke-width:0.366281"
           id="path11071" />
        <path
           d="m 39.137942,290.37963 h -1.40861 v 3.60783 h -0.389734 v -3.60783 h -1.408611 v -0.34519 h 3.206955 z"
           style="font-style:normal;font-variant:normal;font-weight:normal;font-stretch:normal;font-size:5.56763px;font-family:Raleway;-inkscape-font-specification:'Raleway, Normal';font-variant-ligatures:normal;font-variant-caps:normal;font-variant-numeric:normal;font-variant-east-asian:normal;text-align:start;text-anchor:start;fill:#ffffff;fill-opacity:1;stroke-width:0.366281"
           id="path11073" />
        <path
           d="m 40.563239,290.03444 h 0.32849 l 1.642451,3.95302 h -0.412004 l -0.512222,-1.23602 H 39.83388 l -0.506655,1.23602 h -0.417572 z m 0.957633,2.41078 -0.796171,-1.95423 -0.807307,1.95423 z"
           style="font-style:normal;font-variant:normal;font-weight:normal;font-stretch:normal;font-size:5.56763px;font-family:Raleway;-inkscape-font-specification:'Raleway, Normal';font-variant-ligatures:normal;font-variant-caps:normal;font-variant-numeric:normal;font-variant-east-asian:normal;text-align:start;text-anchor:start;fill:#ffffff;fill-opacity:1;stroke-width:0.366281"
           id="path11075" />
        <path
           d="m 43.102075,293.98746 v -3.95302 h 1.670288 q 0.256111,0 0.467681,0.11135 0.217138,0.10579 0.373032,0.28395 0.155893,0.1726 0.239408,0.3953 0.08908,0.22271 0.08908,0.45098 0,0.21714 -0.06681,0.41757 -0.06124,0.19487 -0.178164,0.35633 -0.111353,0.1559 -0.272814,0.26725 -0.161461,0.10578 -0.361896,0.14476 l 0.968768,1.52553 h -0.439843 l -0.929794,-1.45872 h -1.169202 v 1.45872 z m 0.389734,-1.80391 h 1.29169 q 0.172596,0 0.311787,-0.0724 0.144758,-0.078 0.244976,-0.20601 0.100217,-0.12805 0.155893,-0.28951 0.05568,-0.16146 0.05568,-0.33963 0,-0.17816 -0.06681,-0.33962 -0.06124,-0.16703 -0.172596,-0.28952 -0.105785,-0.12249 -0.256111,-0.19487 -0.144759,-0.0724 -0.30622,-0.0724 h -1.258284 z"
           style="font-style:normal;font-variant:normal;font-weight:normal;font-stretch:normal;font-size:5.56763px;font-family:Raleway;-inkscape-font-specification:'Raleway, Normal';font-variant-ligatures:normal;font-variant-caps:normal;font-variant-numeric:normal;font-variant-east-asian:normal;text-align:start;text-anchor:start;fill:#ffffff;fill-opacity:1;stroke-width:0.366281"
           id="path11077" />
        <path
           d="m 46.737733,293.98746 v -3.95302 h 0.389734 v 3.95302 z"
           style="font-style:normal;font-variant:normal;font-weight:normal;font-stretch:normal;font-size:5.56763px;font-family:Raleway;-inkscape-font-specification:'Raleway, Normal';font-variant-ligatures:normal;font-variant-caps:normal;font-variant-numeric:normal;font-variant-east-asian:normal;text-align:start;text-anchor:start;fill:#ffffff;fill-opacity:1;stroke-width:0.366281"
           id="path11079" />
        <path
           d="m 48.508235,290.75823 v 3.22923 h -0.389734 v -3.95302 h 0.300652 l 2.616786,3.29047 v -3.2849 h 0.389734 v 3.94745 h -0.339626 z"
           style="font-style:normal;font-variant:normal;font-weight:normal;font-stretch:normal;font-size:5.56763px;font-family:Raleway;-inkscape-font-specification:'Raleway, Normal';font-variant-ligatures:normal;font-variant-caps:normal;font-variant-numeric:normal;font-variant-east-asian:normal;text-align:start;text-anchor:start;fill:#ffffff;fill-opacity:1;stroke-width:0.366281"
           id="path11081" />
        <path
           d="m 53.641589,290.03444 h 0.32849 l 1.642451,3.95302 h -0.412004 l -0.512222,-1.23602 H 52.91223 l -0.506655,1.23602 h -0.417572 z m 0.957633,2.41078 -0.796171,-1.95423 -0.807307,1.95423 z"
           style="font-style:normal;font-variant:normal;font-weight:normal;font-stretch:normal;font-size:5.56763px;font-family:Raleway;-inkscape-font-specification:'Raleway, Normal';font-variant-ligatures:normal;font-variant-caps:normal;font-variant-numeric:normal;font-variant-east-asian:normal;text-align:start;text-anchor:start;fill:#ffffff;fill-opacity:1;stroke-width:0.366281"
           id="path11083" />
        <path
           d="m 57.17702,292.06106 q 0,-0.28395 0.06124,-0.55677 0.06124,-0.27838 0.167029,-0.54562 0.105785,-0.27282 0.244976,-0.54006 0.144758,-0.27282 0.306219,-0.54563 l 0.289517,0.13919 q -0.111352,0.16703 -0.239408,0.412 -0.122488,0.24498 -0.228273,0.52336 -0.105785,0.27838 -0.178164,0.57347 -0.06681,0.28951 -0.06681,0.55676 0,0.43428 0.189299,0.95206 0.189299,0.51223 0.51779,1.01331 l -0.28395,0.15033 q -0.35076,-0.52336 -0.567898,-1.05785 -0.21157,-0.54006 -0.21157,-1.07455 z"
           style="font-style:normal;font-variant:normal;font-weight:normal;font-stretch:normal;font-size:5.56763px;font-family:Raleway;-inkscape-font-specification:'Raleway, Normal';font-variant-ligatures:normal;font-variant-caps:normal;font-variant-numeric:normal;font-variant-east-asian:normal;text-align:start;text-anchor:start;fill:#ffffff;fill-opacity:1;stroke-width:0.366281"
           id="path11085" />
        <path
           d="m 61.235818,290.77493 q -0.167029,-0.18929 -0.44541,-0.30621 -0.278382,-0.11692 -0.63471,-0.11692 -0.523357,0 -0.762765,0.20043 -0.239408,0.19487 -0.239408,0.53449 0,0.17817 0.06124,0.29509 0.06681,0.11135 0.200434,0.19486 0.133623,0.0835 0.339626,0.14476 0.21157,0.0613 0.495519,0.12249 0.317355,0.0668 0.567898,0.15033 0.256111,0.0835 0.434275,0.21157 0.178164,0.12248 0.272814,0.30065 0.09465,0.17816 0.09465,0.44541 0,0.27281 -0.105785,0.47325 -0.105785,0.20043 -0.295085,0.33405 -0.189299,0.13363 -0.450978,0.20044 -0.261678,0.0612 -0.573466,0.0612 -0.918658,0 -1.586774,-0.57346 L 58.80276,293.13 q 0.105785,0.11135 0.250543,0.21157 0.150326,0.10022 0.32849,0.17817 0.183732,0.0724 0.389735,0.11692 0.206002,0.039 0.434275,0.039 0.473248,0 0.734927,-0.16703 0.267246,-0.1726 0.267246,-0.51779 0,-0.18373 -0.07795,-0.30622 -0.07238,-0.12805 -0.222705,-0.21714 -0.150326,-0.0947 -0.373031,-0.16146 -0.222705,-0.0668 -0.51779,-0.13362 -0.311787,-0.0724 -0.545627,-0.15033 -0.233841,-0.0779 -0.395302,-0.19486 -0.161461,-0.11692 -0.244976,-0.27838 -0.07795,-0.16703 -0.07795,-0.40644 0,-0.27282 0.100218,-0.48439 0.105785,-0.21713 0.295084,-0.35632 0.189299,-0.14476 0.44541,-0.21714 0.256111,-0.0779 0.567899,-0.0779 0.395301,0 0.701521,0.12249 0.311787,0.11692 0.562331,0.33406 z"
           style="font-style:normal;font-variant:normal;font-weight:normal;font-stretch:normal;font-size:5.56763px;font-family:Raleway;-inkscape-font-specification:'Raleway, Normal';font-variant-ligatures:normal;font-variant-caps:normal;font-variant-numeric:normal;font-variant-east-asian:normal;text-align:start;text-anchor:start;fill:#ffffff;fill-opacity:1;stroke-width:0.366281"
           id="path11087" />
        <path
           d="m 63.462855,290.03444 h 0.328491 l 1.64245,3.95302 h -0.412004 l -0.512222,-1.23602 h -1.776074 l -0.506654,1.23602 h -0.417573 z m 0.957633,2.41078 -0.796171,-1.95423 -0.807307,1.95423 z"
           style="font-style:normal;font-variant:normal;font-weight:normal;font-stretch:normal;font-size:5.56763px;font-family:Raleway;-inkscape-font-specification:'Raleway, Normal';font-variant-ligatures:normal;font-variant-caps:normal;font-variant-numeric:normal;font-variant-east-asian:normal;text-align:start;text-anchor:start;fill:#ffffff;fill-opacity:1;stroke-width:0.366281"
           id="path11089" />
        <path
           d="m 68.418025,290.37963 h -1.408611 v 3.60783 H 66.61968 v -3.60783 h -1.40861 v -0.34519 h 3.206955 z"
           style="font-style:normal;font-variant:normal;font-weight:normal;font-stretch:normal;font-size:5.56763px;font-family:Raleway;-inkscape-font-specification:'Raleway, Normal';font-variant-ligatures:normal;font-variant-caps:normal;font-variant-numeric:normal;font-variant-east-asian:normal;text-align:start;text-anchor:start;fill:#ffffff;fill-opacity:1;stroke-width:0.366281"
           id="path11091" />
        <path
           d="m 68.562778,291.98311 q 0,-0.35633 0.122487,-0.70709 0.128056,-0.35633 0.367464,-0.63471 0.239408,-0.27838 0.590169,-0.45098 0.35076,-0.17816 0.796171,-0.17816 0.528925,0 0.901956,0.23941 0.378599,0.23941 0.556763,0.62357 l -0.30622,0.1893 q -0.09465,-0.19487 -0.23384,-0.32849 -0.133623,-0.13362 -0.289517,-0.21714 -0.155894,-0.0835 -0.322923,-0.11692 -0.167029,-0.039 -0.32849,-0.039 -0.356328,0 -0.629142,0.14476 -0.272814,0.14476 -0.462113,0.3786 -0.183732,0.23384 -0.278382,0.52892 -0.09465,0.28952 -0.09465,0.59017 0,0.32849 0.111352,0.62914 0.11692,0.30066 0.311787,0.5345 0.200435,0.22827 0.467681,0.36746 0.272814,0.13362 0.590169,0.13362 0.167029,0 0.339626,-0.039 0.178164,-0.0445 0.339625,-0.13362 0.167029,-0.0947 0.30622,-0.22828 0.13919,-0.13919 0.23384,-0.33405 l 0.322923,0.16702 q -0.09465,0.22271 -0.267247,0.39531 -0.172596,0.16702 -0.384166,0.28394 -0.21157,0.11693 -0.450978,0.17817 -0.233841,0.0612 -0.462113,0.0612 -0.406437,0 -0.746063,-0.17816 -0.339625,-0.17817 -0.584601,-0.46211 -0.244976,-0.28952 -0.384166,-0.65142 -0.133623,-0.36746 -0.133623,-0.74606 z"
           style="font-style:normal;font-variant:normal;font-weight:normal;font-stretch:normal;font-size:5.56763px;font-family:Raleway;-inkscape-font-specification:'Raleway, Normal';font-variant-ligatures:normal;font-variant-caps:normal;font-variant-numeric:normal;font-variant-east-asian:normal;text-align:start;text-anchor:start;fill:#ffffff;fill-opacity:1;stroke-width:0.366281"
           id="path11093" />
        <path
           d="m 73.395468,292.06106 q 0,0.53449 -0.21157,1.07455 -0.21157,0.53449 -0.567898,1.05785 l -0.278382,-0.15033 q 0.161461,-0.25054 0.289517,-0.50665 0.133623,-0.25611 0.222705,-0.50666 0.09465,-0.25611 0.144758,-0.49551 0.05011,-0.23941 0.05011,-0.45655 0,-0.26725 -0.07238,-0.55676 -0.06681,-0.29509 -0.172597,-0.57347 -0.105785,-0.27838 -0.23384,-0.52336 -0.122488,-0.24497 -0.239408,-0.412 l 0.295084,-0.13919 q 0.161462,0.27281 0.300652,0.54563 0.144759,0.26724 0.244976,0.54006 0.105785,0.26724 0.167029,0.54562 0.06124,0.27282 0.06124,0.55677 z"
           style="font-style:normal;font-variant:normal;font-weight:normal;font-stretch:normal;font-size:5.56763px;font-family:Raleway;-inkscape-font-specification:'Raleway, Normal';font-variant-ligatures:normal;font-variant-caps:normal;font-variant-numeric:normal;font-variant-east-asian:normal;text-align:start;text-anchor:start;fill:#ffffff;fill-opacity:1;stroke-width:0.366281"
           id="path11095" />
      </g>
    </g>
  </g>
</svg>
