<?xml version="1.0" encoding="UTF-8" standalone="no"?>
<svg
   xmlns:dc="http://purl.org/dc/elements/1.1/"
   xmlns:cc="http://creativecommons.org/ns#"
   xmlns:rdf="http://www.w3.org/1999/02/22-rdf-syntax-ns#"
   xmlns:svg="http://www.w3.org/2000/svg"
   xmlns="http://www.w3.org/2000/svg"
   xmlns:sodipodi="http://sodipodi.sourceforge.net/DTD/sodipodi-0.dtd"
   xmlns:inkscape="http://www.inkscape.org/namespaces/inkscape"
   width="75"
   height="75"
   viewBox="0 0 19.843749 19.84375"
   version="1.1"
   id="svg3969"
   inkscape:version="1.0.2-2 (e86c870879, 2021-01-15)"
   sodipodi:docname="icone_01.svg">
  <defs
     id="defs3963" />
  <sodipodi:namedview
     id="base"
     pagecolor="#ffffff"
     bordercolor="#666666"
     borderopacity="1.0"
     inkscape:pageopacity="0.0"
     inkscape:pageshadow="2"
     inkscape:zoom="2.8"
     inkscape:cx="72.950894"
     inkscape:cy="-2.7345695"
     inkscape:document-units="mm"
     inkscape:current-layer="g23066"
     inkscape:document-rotation="0"
     showgrid="false"
     units="px"
     fit-margin-top="0"
     fit-margin-left="0"
     fit-margin-right="0"
     fit-margin-bottom="0"
     inkscape:window-width="1600"
     inkscape:window-height="837"
     inkscape:window-x="1358"
     inkscape:window-y="-8"
     inkscape:window-maximized="1" />
  <metadata
     id="metadata3966">
    <rdf:RDF>
      <cc:Work
         rdf:about="">
        <dc:format>image/svg+xml</dc:format>
        <dc:type
           rdf:resource="http://purl.org/dc/dcmitype/StillImage" />
        <dc:title></dc:title>
      </cc:Work>
    </rdf:RDF>
  </metadata>
  <g
     inkscape:label="Layer 1"
     inkscape:groupmode="layer"
     id="layer1"
     transform="translate(-34.192483,-133.49542)">
    <g
       id="g23066"
       transform="translate(-515.60332,251.70778)">
      <path
         id="path23058"
         style="fill:#dd1b16;fill-opacity:0.35;stroke-width:0.129007"
         d="m 3614.6113,-1155.0586 c -3.4186,0 -6.1914,2.7747 -6.1914,6.1934 v 51.666 c 0,3.4186 2.7728,6.1933 6.1914,6.1933 h 49.1543 c 3.4187,0 6.1914,-2.7747 6.1914,-6.1933 v -51.666 c 0,-3.4187 -2.7727,-6.1934 -6.1914,-6.1934 h -14.2265 v 6.2344 h -20.7012 v -6.2344 z m 0,10.1934 h 49.1543 v 47.666 h -49.1543 z"
         transform="matrix(0.26458333,0,0,0.26458333,-403.34444,190.29336)" />
      <path
         d="m 560.47299,-106.78884 c -0.0472,0 -0.0944,0.007 -0.13955,0.0216 -0.25618,0.0832 -0.5256,0.1366 -0.80925,0.1366 -0.28365,0 -0.55306,-0.0533 -0.80943,-0.1366 -0.0451,-0.0146 -0.0921,-0.0216 -0.13937,-0.0216 -1.22672,0 -2.22039,0.99783 -2.21387,2.22614 0.003,0.51907 0.42953,0.93655 0.94881,0.93655 h 4.42774 c 0.51926,0 0.94603,-0.41748 0.9488,-0.93655 0.006,-1.22831 -0.98716,-2.22614 -2.21388,-2.22614 z m -0.9488,-0.63253 c 1.04803,0 1.8976,-0.84957 1.8976,-1.89759 0,-1.04804 -0.84957,-1.89761 -1.8976,-1.89761 -1.04802,0 -1.89759,0.84957 -1.89759,1.89761 0,1.04802 0.84957,1.89759 1.89759,1.89759 z"
         id="path23060"
         style="fill:#dd1b16;fill-opacity:1;stroke-width:0.0197666"
         sodipodi:nodetypes="scssscsssssssss" />
      <path
         id="rect23062"
         style="opacity:0.999;fill:#dd1b16;fill-opacity:1;stroke:none;stroke-width:0.166782"
         d="m 557.1739,-102.01336 h 4.70061 c 0.22673,0 0.40925,0.18253 0.40925,0.40926 0,0.22673 -0.18252,0.40925 -0.40925,0.40925 h -4.70061 c -0.22672,0 -0.40925,-0.18252 -0.40925,-0.40925 0,-0.22673 0.18253,-0.40926 0.40925,-0.40926 z" />
      <path
         d="m 561.50209,-117.08781 c 0,-0.48443 -0.44194,-0.87582 -0.98896,-0.87582 h -1.97788 c -0.54702,0 -0.98895,0.39139 -0.98895,0.87582 v 2.62745 h 3.95579 z"
         id="path23064"
         style="fill:#dd1b16;fill-opacity:0.35;stroke-width:0.0290832"
         sodipodi:nodetypes="ssssccs" />
    </g>
  </g>
</svg>
